<svg width="272" height="389" viewBox="0 0 272 389" fill="none" xmlns="http://www.w3.org/2000/svg">
<rect x="23.875" y="381.927" width="421.411" height="16" rx="8" transform="rotate(-65 23.875 381.927)" fill="#FCC304"/>
<rect x="23.875" y="381.927" width="421.411" height="16" rx="8" transform="rotate(-65 23.875 381.927)" fill="url(#paint0_linear)" fill-opacity="0.25"/>
<g filter="url(#filter0_d)">
<rect y="66.5537" width="240" height="256" fill="white"/>
</g>
<path d="M44.1983 208.555V199.583H47.8019C48.7091 199.583 49.4189 199.789 49.9313 200.201C50.4437 200.604 50.6999 201.179 50.6999 201.927C50.6999 202.448 50.5571 202.889 50.2715 203.25C49.9943 203.603 49.6079 203.855 49.1123 204.006V203.905C49.6751 204.014 50.1161 204.262 50.4353 204.649C50.7545 205.035 50.9141 205.522 50.9141 206.11C50.9141 206.9 50.6537 207.505 50.1329 207.925C49.6121 208.345 48.8771 208.555 47.9279 208.555H44.1983ZM45.2189 207.698H47.8397C48.5453 207.698 49.0619 207.568 49.3895 207.307C49.7255 207.047 49.8935 206.639 49.8935 206.085C49.8935 205.539 49.7255 205.127 49.3895 204.85C49.0535 204.573 48.5369 204.434 47.8397 204.434H45.2189V207.698ZM45.2189 203.565H47.6381C48.3185 203.565 48.8267 203.431 49.1627 203.162C49.5071 202.893 49.6793 202.498 49.6793 201.977C49.6793 201.465 49.5113 201.083 49.1753 200.831C48.8393 200.57 48.3269 200.44 47.6381 200.44H45.2189V203.565ZM52.3463 211.415L52.1321 210.621C52.5185 210.529 52.8419 210.419 53.1023 210.293C53.3711 210.176 53.5937 210.02 53.7701 209.827C53.9549 209.634 54.1145 209.378 54.2489 209.059L54.6521 208.126L54.8789 207.811L57.1973 202.217H58.2179L55.2569 209.134C55.0301 209.647 54.7739 210.054 54.4883 210.356C54.2027 210.667 53.8793 210.902 53.5181 211.062C53.1653 211.222 52.7747 211.339 52.3463 211.415ZM54.6647 208.882L51.8171 202.217H52.8881L55.1813 207.811L54.6647 208.882ZM61.7332 203.023V202.217H65.803V203.023H61.7332ZM65.7778 207.647V208.517C65.635 208.559 65.4922 208.588 65.3494 208.605C65.215 208.63 65.0638 208.643 64.8958 208.643C64.3078 208.643 63.8374 208.475 63.4846 208.139C63.1402 207.803 62.968 207.299 62.968 206.627V200.591L63.9886 200.226V206.488C63.9886 206.824 64.0348 207.085 64.1272 207.269C64.228 207.454 64.3624 207.584 64.5304 207.66C64.6984 207.727 64.8874 207.761 65.0974 207.761C65.2234 207.761 65.3368 207.752 65.4376 207.736C65.5384 207.719 65.6518 207.689 65.7778 207.647ZM67.0329 208.555V199.281H68.0535V203.502L67.8897 203.628C68.0661 203.116 68.3601 202.729 68.7717 202.469C69.1833 202.2 69.6579 202.066 70.1955 202.066C71.7159 202.066 72.4761 202.901 72.4761 204.573V208.555H71.4555V204.623C71.4555 204.035 71.3379 203.607 71.1027 203.338C70.8675 203.061 70.4979 202.922 69.9939 202.922C69.4059 202.922 68.9355 203.103 68.5827 203.464C68.2299 203.825 68.0535 204.313 68.0535 204.926V208.555H67.0329ZM79.5946 207.799C79.3174 208.059 78.9604 208.265 78.5236 208.416C78.0952 208.567 77.6542 208.643 77.2006 208.643C76.5454 208.643 75.9784 208.513 75.4996 208.252C75.0292 207.992 74.6638 207.618 74.4034 207.131C74.1514 206.635 74.0254 206.047 74.0254 205.367C74.0254 204.712 74.1514 204.136 74.4034 203.641C74.6554 203.145 75.004 202.759 75.4492 202.481C75.9028 202.204 76.4236 202.066 77.0116 202.066C77.5744 202.066 78.0574 202.192 78.4606 202.444C78.8638 202.687 79.1704 203.04 79.3804 203.502C79.5988 203.964 79.708 204.518 79.708 205.165V205.354H74.92V204.686H79.1284L78.8008 205.153C78.8176 204.413 78.6706 203.846 78.3598 203.452C78.0574 203.057 77.6122 202.859 77.0242 202.859C76.411 202.859 75.928 203.078 75.5752 203.515C75.2308 203.943 75.0586 204.539 75.0586 205.304C75.0586 206.127 75.2392 206.749 75.6004 207.169C75.97 207.589 76.5076 207.799 77.2132 207.799C77.5828 207.799 77.9356 207.74 78.2716 207.622C78.616 207.496 78.9436 207.307 79.2544 207.055L79.5946 207.799ZM86.6845 208.643C85.6177 208.643 84.7735 208.37 84.1519 207.824L84.4921 207.068C84.8281 207.328 85.1725 207.521 85.5253 207.647C85.8865 207.765 86.2855 207.824 86.7223 207.824C87.2011 207.824 87.5623 207.744 87.8059 207.584C88.0579 207.416 88.1839 207.177 88.1839 206.866C88.1839 206.614 88.0999 206.417 87.9319 206.274C87.7639 206.123 87.4867 206.001 87.1003 205.909L86.0293 205.657C85.5001 205.539 85.0885 205.329 84.7945 205.027C84.5089 204.724 84.3661 204.363 84.3661 203.943C84.3661 203.573 84.4669 203.25 84.6685 202.973C84.8701 202.687 85.1515 202.465 85.5127 202.305C85.8739 202.145 86.3023 202.066 86.7979 202.066C87.2431 202.066 87.6631 202.137 88.0579 202.28C88.4527 202.423 88.7845 202.628 89.0533 202.897L88.7131 203.641C88.4107 203.389 88.0999 203.204 87.7807 203.086C87.4699 202.96 87.1423 202.897 86.7979 202.897C86.3443 202.897 85.9915 202.985 85.7395 203.162C85.4959 203.338 85.3741 203.578 85.3741 203.88C85.3741 204.14 85.4497 204.346 85.6009 204.497C85.7605 204.649 86.0125 204.766 86.3569 204.85L87.4279 205.115C88.0243 205.241 88.4611 205.451 88.7383 205.745C89.0239 206.03 89.1667 206.396 89.1667 206.841C89.1667 207.387 88.9441 207.824 88.4989 208.151C88.0537 208.479 87.4489 208.643 86.6845 208.643ZM93.225 208.643C92.6622 208.643 92.1666 208.513 91.7382 208.252C91.3182 207.983 90.9906 207.605 90.7554 207.118C90.5286 206.623 90.4152 206.043 90.4152 205.379C90.4152 204.716 90.5328 204.136 90.768 203.641C91.0032 203.145 91.3308 202.759 91.7508 202.481C92.1792 202.204 92.6706 202.066 93.225 202.066C93.8046 202.066 94.296 202.208 94.6992 202.494C95.1024 202.78 95.3754 203.187 95.5182 203.716L95.367 203.817V202.217H96.375V208.555H95.367V206.917L95.5182 206.992C95.3754 207.521 95.1024 207.929 94.6992 208.214C94.296 208.5 93.8046 208.643 93.225 208.643ZM93.4266 207.799C94.0482 207.799 94.527 207.589 94.863 207.169C95.199 206.74 95.367 206.135 95.367 205.354C95.367 204.573 95.1948 203.972 94.8504 203.552C94.5144 203.132 94.0398 202.922 93.4266 202.922C92.805 202.922 92.3178 203.141 91.965 203.578C91.6206 204.006 91.4484 204.607 91.4484 205.379C91.4484 206.152 91.6206 206.749 91.965 207.169C92.3178 207.589 92.805 207.799 93.4266 207.799ZM98.3483 208.555V203.993C98.3483 203.699 98.3399 203.405 98.3231 203.111C98.3147 202.809 98.2895 202.511 98.2475 202.217H99.2177L99.3311 203.527L99.2051 203.615C99.3563 203.12 99.6167 202.738 99.9863 202.469C100.364 202.2 100.81 202.066 101.322 202.066C101.935 202.066 102.41 202.217 102.746 202.519C103.09 202.822 103.309 203.284 103.401 203.905L103.099 203.741C103.233 203.229 103.502 202.822 103.905 202.519C104.317 202.217 104.808 202.066 105.379 202.066C106.076 202.066 106.601 202.276 106.954 202.696C107.307 203.107 107.483 203.733 107.483 204.573V208.555H106.463V204.623C106.463 204.035 106.358 203.607 106.148 203.338C105.938 203.061 105.606 202.922 105.152 202.922C104.623 202.922 104.203 203.103 103.892 203.464C103.59 203.825 103.439 204.317 103.439 204.938V208.555H102.418V204.623C102.418 204.035 102.309 203.607 102.091 203.338C101.881 203.061 101.549 202.922 101.095 202.922C100.558 202.922 100.133 203.103 99.8225 203.464C99.5201 203.825 99.3689 204.317 99.3689 204.938V208.555H98.3483ZM114.614 207.799C114.337 208.059 113.98 208.265 113.543 208.416C113.114 208.567 112.673 208.643 112.22 208.643C111.565 208.643 110.998 208.513 110.519 208.252C110.048 207.992 109.683 207.618 109.423 207.131C109.171 206.635 109.045 206.047 109.045 205.367C109.045 204.712 109.171 204.136 109.423 203.641C109.675 203.145 110.023 202.759 110.468 202.481C110.922 202.204 111.443 202.066 112.031 202.066C112.594 202.066 113.077 202.192 113.48 202.444C113.883 202.687 114.19 203.04 114.4 203.502C114.618 203.964 114.727 204.518 114.727 205.165V205.354H109.939V204.686H114.148L113.82 205.153C113.837 204.413 113.69 203.846 113.379 203.452C113.077 203.057 112.631 202.859 112.043 202.859C111.43 202.859 110.947 203.078 110.594 203.515C110.25 203.943 110.078 204.539 110.078 205.304C110.078 206.127 110.258 206.749 110.62 207.169C110.989 207.589 111.527 207.799 112.232 207.799C112.602 207.799 112.955 207.74 113.291 207.622C113.635 207.496 113.963 207.307 114.274 207.055L114.614 207.799ZM119.562 208.555V202.217H120.582V208.555H119.562ZM119.461 199.533H120.708V200.692H119.461V199.533ZM122.564 208.555V199.281H123.585V208.555H122.564ZM125.566 208.555V199.281H126.587V208.555H125.566ZM130.811 208.643C130.055 208.643 129.484 208.433 129.098 208.013C128.72 207.593 128.531 206.971 128.531 206.148V202.217H129.551V206.123C129.551 206.694 129.669 207.114 129.904 207.383C130.139 207.652 130.496 207.786 130.975 207.786C131.538 207.786 131.992 207.605 132.336 207.244C132.68 206.883 132.853 206.4 132.853 205.795V202.217H133.873V208.555H132.878V207.181L133.029 207.106C132.861 207.61 132.575 207.992 132.172 208.252C131.777 208.513 131.324 208.643 130.811 208.643ZM137.983 208.643C136.916 208.643 136.072 208.37 135.45 207.824L135.79 207.068C136.126 207.328 136.471 207.521 136.824 207.647C137.185 207.765 137.584 207.824 138.021 207.824C138.499 207.824 138.861 207.744 139.104 207.584C139.356 207.416 139.482 207.177 139.482 206.866C139.482 206.614 139.398 206.417 139.23 206.274C139.062 206.123 138.785 206.001 138.399 205.909L137.328 205.657C136.798 205.539 136.387 205.329 136.093 205.027C135.807 204.724 135.664 204.363 135.664 203.943C135.664 203.573 135.765 203.25 135.967 202.973C136.168 202.687 136.45 202.465 136.811 202.305C137.172 202.145 137.601 202.066 138.096 202.066C138.541 202.066 138.961 202.137 139.356 202.28C139.751 202.423 140.083 202.628 140.352 202.897L140.011 203.641C139.709 203.389 139.398 203.204 139.079 203.086C138.768 202.96 138.441 202.897 138.096 202.897C137.643 202.897 137.29 202.985 137.038 203.162C136.794 203.338 136.672 203.578 136.672 203.88C136.672 204.14 136.748 204.346 136.899 204.497C137.059 204.649 137.311 204.766 137.655 204.85L138.726 205.115C139.323 205.241 139.759 205.451 140.037 205.745C140.322 206.03 140.465 206.396 140.465 206.841C140.465 207.387 140.242 207.824 139.797 208.151C139.352 208.479 138.747 208.643 137.983 208.643ZM142.091 208.555V202.217H143.112V208.555H142.091ZM141.991 199.533H143.238V200.692H141.991V199.533ZM147.715 208.643C147.11 208.643 146.581 208.508 146.127 208.24C145.682 207.971 145.333 207.593 145.081 207.106C144.838 206.61 144.716 206.026 144.716 205.354C144.716 204.691 144.838 204.111 145.081 203.615C145.333 203.12 145.682 202.738 146.127 202.469C146.581 202.2 147.11 202.066 147.715 202.066C148.319 202.066 148.844 202.2 149.29 202.469C149.743 202.738 150.092 203.12 150.335 203.615C150.587 204.111 150.713 204.691 150.713 205.354C150.713 206.026 150.587 206.61 150.335 207.106C150.092 207.593 149.743 207.971 149.29 208.24C148.844 208.508 148.319 208.643 147.715 208.643ZM147.715 207.799C148.336 207.799 148.815 207.593 149.151 207.181C149.495 206.761 149.668 206.152 149.668 205.354C149.668 204.573 149.495 203.972 149.151 203.552C148.807 203.132 148.328 202.922 147.715 202.922C147.101 202.922 146.618 203.132 146.266 203.552C145.921 203.972 145.749 204.573 145.749 205.354C145.749 206.152 145.917 206.761 146.253 207.181C146.597 207.593 147.085 207.799 147.715 207.799ZM152.304 208.555V203.993C152.304 203.699 152.296 203.405 152.279 203.111C152.271 202.809 152.246 202.511 152.204 202.217H153.174L153.287 203.527L153.161 203.628C153.338 203.116 153.632 202.729 154.043 202.469C154.455 202.2 154.929 202.066 155.467 202.066C156.987 202.066 157.748 202.901 157.748 204.573V208.555H156.727V204.623C156.727 204.035 156.609 203.607 156.374 203.338C156.139 203.061 155.769 202.922 155.265 202.922C154.677 202.922 154.207 203.103 153.854 203.464C153.501 203.825 153.325 204.313 153.325 204.926V208.555H152.304ZM164.661 208.555L162.318 202.217H163.389L165.342 207.799H165.014L167.03 202.217H167.925L169.915 207.799H169.588L171.579 202.217H172.587L170.243 208.555H169.26L167.169 202.847H167.723L165.644 208.555H164.661ZM173.911 208.555V199.281H174.932V203.502L174.768 203.628C174.945 203.116 175.239 202.729 175.65 202.469C176.062 202.2 176.536 202.066 177.074 202.066C178.594 202.066 179.355 202.901 179.355 204.573V208.555H178.334V204.623C178.334 204.035 178.216 203.607 177.981 203.338C177.746 203.061 177.376 202.922 176.872 202.922C176.284 202.922 175.814 203.103 175.461 203.464C175.108 203.825 174.932 204.313 174.932 204.926V208.555H173.911ZM181.282 208.555V202.217H182.303V208.555H181.282ZM181.181 199.533H182.429V200.692H181.181V199.533ZM186.943 208.643C186.321 208.643 185.784 208.508 185.33 208.24C184.876 207.971 184.524 207.593 184.272 207.106C184.028 206.618 183.906 206.043 183.906 205.379C183.906 204.724 184.032 204.149 184.284 203.653C184.536 203.149 184.893 202.759 185.355 202.481C185.817 202.204 186.363 202.066 186.993 202.066C187.422 202.066 187.833 202.141 188.228 202.292C188.631 202.435 188.963 202.637 189.223 202.897L188.883 203.653C188.572 203.41 188.266 203.229 187.963 203.111C187.669 202.985 187.363 202.922 187.044 202.922C186.405 202.922 185.897 203.137 185.519 203.565C185.149 203.993 184.965 204.598 184.965 205.379C184.965 206.152 185.149 206.749 185.519 207.169C185.889 207.589 186.397 207.799 187.044 207.799C187.354 207.799 187.661 207.74 187.963 207.622C188.266 207.496 188.572 207.311 188.883 207.068L189.223 207.824C188.955 208.076 188.614 208.277 188.203 208.429C187.8 208.571 187.38 208.643 186.943 208.643ZM190.523 208.555V199.281H191.543V203.502L191.38 203.628C191.556 203.116 191.85 202.729 192.262 202.469C192.673 202.2 193.148 202.066 193.685 202.066C195.206 202.066 195.966 202.901 195.966 204.573V208.555H194.945V204.623C194.945 204.035 194.828 203.607 194.593 203.338C194.357 203.061 193.988 202.922 193.484 202.922C192.896 202.922 192.425 203.103 192.073 203.464C191.72 203.825 191.543 204.313 191.543 204.926V208.555H190.523ZM38.7813 227.555V218.281H39.8019V227.555H38.7813ZM41.7837 227.555V221.217H42.8043V227.555H41.7837ZM41.6829 218.533H42.9303V219.692H41.6829V218.533ZM43.8914 222.023V221.217H47.6966V222.023H43.8914ZM47.873 219.213C47.6378 219.146 47.4194 219.113 47.2178 219.113C47.0162 219.113 46.8314 219.15 46.6634 219.226C46.5038 219.293 46.3778 219.419 46.2854 219.604C46.193 219.789 46.1468 220.045 46.1468 220.373V227.555H45.1262V220.247C45.1262 219.566 45.2942 219.062 45.6302 218.735C45.9662 218.399 46.4282 218.231 47.0162 218.231C47.159 218.231 47.3018 218.239 47.4446 218.256C47.5874 218.273 47.7302 218.302 47.873 218.344V219.213ZM47.8412 222.023V221.217H51.911V222.023H47.8412ZM51.8858 226.647V227.517C51.743 227.559 51.6002 227.588 51.4574 227.605C51.323 227.63 51.1718 227.643 51.0038 227.643C50.4158 227.643 49.9454 227.475 49.5926 227.139C49.2482 226.803 49.076 226.299 49.076 225.627V219.591L50.0966 219.226V225.488C50.0966 225.824 50.1428 226.085 50.2352 226.269C50.336 226.454 50.4704 226.584 50.6384 226.66C50.8064 226.727 50.9954 226.761 51.2054 226.761C51.3314 226.761 51.4448 226.752 51.5456 226.736C51.6464 226.719 51.7598 226.689 51.8858 226.647ZM55.2829 227.643C54.2161 227.643 53.3719 227.37 52.7503 226.824L53.0905 226.068C53.4265 226.328 53.7709 226.521 54.1237 226.647C54.4849 226.765 54.8839 226.824 55.3207 226.824C55.7995 226.824 56.1607 226.744 56.4043 226.584C56.6563 226.416 56.7823 226.177 56.7823 225.866C56.7823 225.614 56.6983 225.417 56.5303 225.274C56.3623 225.123 56.0851 225.001 55.6987 224.909L54.6277 224.657C54.0985 224.539 53.6869 224.329 53.3929 224.027C53.1073 223.724 52.9645 223.363 52.9645 222.943C52.9645 222.573 53.0653 222.25 53.2669 221.973C53.4685 221.687 53.7499 221.465 54.1111 221.305C54.4723 221.145 54.9007 221.066 55.3963 221.066C55.8415 221.066 56.2615 221.137 56.6563 221.28C57.0511 221.423 57.3829 221.628 57.6517 221.897L57.3115 222.641C57.0091 222.389 56.6983 222.204 56.3791 222.086C56.0683 221.96 55.7407 221.897 55.3963 221.897C54.9427 221.897 54.5899 221.985 54.3379 222.162C54.0943 222.338 53.9725 222.578 53.9725 222.88C53.9725 223.14 54.0481 223.346 54.1993 223.497C54.3589 223.649 54.6109 223.766 54.9553 223.85L56.0263 224.115C56.6227 224.241 57.0595 224.451 57.3367 224.745C57.6223 225.03 57.7651 225.396 57.7651 225.841C57.7651 226.387 57.5425 226.824 57.0973 227.151C56.6521 227.479 56.0473 227.643 55.2829 227.643ZM61.7824 222.023V221.217H65.8522V222.023H61.7824ZM65.827 226.647V227.517C65.6842 227.559 65.5414 227.588 65.3986 227.605C65.2642 227.63 65.113 227.643 64.945 227.643C64.357 227.643 63.8866 227.475 63.5338 227.139C63.1894 226.803 63.0172 226.299 63.0172 225.627V219.591L64.0378 219.226V225.488C64.0378 225.824 64.084 226.085 64.1764 226.269C64.2772 226.454 64.4116 226.584 64.5796 226.66C64.7476 226.727 64.9366 226.761 65.1466 226.761C65.2726 226.761 65.386 226.752 65.4868 226.736C65.5876 226.719 65.701 226.689 65.827 226.647ZM67.0821 227.555V218.281H68.1027V222.502L67.9389 222.628C68.1153 222.116 68.4093 221.729 68.8209 221.469C69.2325 221.2 69.7071 221.066 70.2447 221.066C71.7651 221.066 72.5253 221.901 72.5253 223.573V227.555H71.5047V223.623C71.5047 223.035 71.3871 222.607 71.1519 222.338C70.9167 222.061 70.5471 221.922 70.0431 221.922C69.4551 221.922 68.9847 222.103 68.6319 222.464C68.2791 222.825 68.1027 223.313 68.1027 223.926V227.555H67.0821ZM79.6438 226.799C79.3666 227.059 79.0096 227.265 78.5728 227.416C78.1444 227.567 77.7034 227.643 77.2498 227.643C76.5946 227.643 76.0276 227.513 75.5488 227.252C75.0784 226.992 74.713 226.618 74.4526 226.131C74.2006 225.635 74.0746 225.047 74.0746 224.367C74.0746 223.712 74.2006 223.136 74.4526 222.641C74.7046 222.145 75.0532 221.759 75.4984 221.481C75.952 221.204 76.4728 221.066 77.0608 221.066C77.6236 221.066 78.1066 221.192 78.5098 221.444C78.913 221.687 79.2196 222.04 79.4296 222.502C79.648 222.964 79.7572 223.518 79.7572 224.165V224.354H74.9692V223.686H79.1776L78.85 224.153C78.8668 223.413 78.7198 222.846 78.409 222.452C78.1066 222.057 77.6614 221.859 77.0734 221.859C76.4602 221.859 75.9772 222.078 75.6244 222.515C75.28 222.943 75.1078 223.539 75.1078 224.304C75.1078 225.127 75.2884 225.749 75.6496 226.169C76.0192 226.589 76.5568 226.799 77.2624 226.799C77.632 226.799 77.9848 226.74 78.3208 226.622C78.6652 226.496 78.9928 226.307 79.3036 226.055L79.6438 226.799ZM84.5917 227.555V218.281H85.6123V222.502L85.4485 222.628C85.6249 222.116 85.9189 221.729 86.3305 221.469C86.7421 221.2 87.2167 221.066 87.7543 221.066C89.2747 221.066 90.0349 221.901 90.0349 223.573V227.555H89.0143V223.623C89.0143 223.035 88.8967 222.607 88.6615 222.338C88.4263 222.061 88.0567 221.922 87.5527 221.922C86.9647 221.922 86.4943 222.103 86.1415 222.464C85.7887 222.825 85.6123 223.313 85.6123 223.926V227.555H84.5917ZM94.583 227.643C93.9782 227.643 93.449 227.508 92.9954 227.24C92.5502 226.971 92.2016 226.593 91.9496 226.106C91.706 225.61 91.5842 225.026 91.5842 224.354C91.5842 223.691 91.706 223.111 91.9496 222.615C92.2016 222.12 92.5502 221.738 92.9954 221.469C93.449 221.2 93.9782 221.066 94.583 221.066C95.1878 221.066 95.7128 221.2 96.158 221.469C96.6116 221.738 96.9602 222.12 97.2038 222.615C97.4558 223.111 97.5818 223.691 97.5818 224.354C97.5818 225.026 97.4558 225.61 97.2038 226.106C96.9602 226.593 96.6116 226.971 96.158 227.24C95.7128 227.508 95.1878 227.643 94.583 227.643ZM94.583 226.799C95.2046 226.799 95.6834 226.593 96.0194 226.181C96.3638 225.761 96.536 225.152 96.536 224.354C96.536 223.573 96.3638 222.972 96.0194 222.552C95.675 222.132 95.1962 221.922 94.583 221.922C93.9698 221.922 93.4868 222.132 93.134 222.552C92.7896 222.972 92.6174 223.573 92.6174 224.354C92.6174 225.152 92.7854 225.761 93.1214 226.181C93.4658 226.593 93.953 226.799 94.583 226.799ZM99.1727 227.555V222.993C99.1727 222.699 99.1643 222.405 99.1475 222.111C99.1391 221.809 99.1139 221.511 99.0719 221.217H100.042L100.181 222.779L100.042 222.741C100.16 222.187 100.412 221.771 100.798 221.494C101.193 221.208 101.634 221.066 102.121 221.066C102.23 221.066 102.331 221.074 102.424 221.091C102.524 221.099 102.617 221.116 102.701 221.141L102.676 222.074C102.482 222.006 102.26 221.973 102.008 221.973C101.571 221.973 101.218 222.069 100.949 222.263C100.689 222.456 100.496 222.704 100.37 223.006C100.252 223.3 100.193 223.611 100.193 223.938V227.555H99.1727ZM103.738 227.555V221.217H104.758V227.555H103.738ZM103.637 218.533H104.884V219.692H103.637V218.533ZM106.387 227.555V226.849L110.722 221.607L110.886 222.023H106.526V221.217H111.604V221.96L107.295 227.177L107.156 226.748H111.742V227.555H106.387ZM115.735 227.643C115.13 227.643 114.601 227.508 114.147 227.24C113.702 226.971 113.353 226.593 113.101 226.106C112.858 225.61 112.736 225.026 112.736 224.354C112.736 223.691 112.858 223.111 113.101 222.615C113.353 222.12 113.702 221.738 114.147 221.469C114.601 221.2 115.13 221.066 115.735 221.066C116.34 221.066 116.865 221.2 117.31 221.469C117.763 221.738 118.112 222.12 118.356 222.615C118.608 223.111 118.734 223.691 118.734 224.354C118.734 225.026 118.608 225.61 118.356 226.106C118.112 226.593 117.763 226.971 117.31 227.24C116.865 227.508 116.34 227.643 115.735 227.643ZM115.735 226.799C116.356 226.799 116.835 226.593 117.171 226.181C117.516 225.761 117.688 225.152 117.688 224.354C117.688 223.573 117.516 222.972 117.171 222.552C116.827 222.132 116.348 221.922 115.735 221.922C115.122 221.922 114.639 222.132 114.286 222.552C113.941 222.972 113.769 223.573 113.769 224.354C113.769 225.152 113.937 225.761 114.273 226.181C114.618 226.593 115.105 226.799 115.735 226.799ZM120.324 227.555V222.993C120.324 222.699 120.316 222.405 120.299 222.111C120.291 221.809 120.266 221.511 120.224 221.217H121.194L121.307 222.527L121.181 222.628C121.358 222.116 121.652 221.729 122.063 221.469C122.475 221.2 122.949 221.066 123.487 221.066C125.007 221.066 125.768 221.901 125.768 223.573V227.555H124.747V223.623C124.747 223.035 124.629 222.607 124.394 222.338C124.159 222.061 123.789 221.922 123.285 221.922C122.697 221.922 122.227 222.103 121.874 222.464C121.521 222.825 121.345 223.313 121.345 223.926V227.555H120.324ZM133.601 227.643C132.996 227.643 132.467 227.508 132.014 227.24C131.568 226.971 131.22 226.593 130.968 226.106C130.724 225.61 130.602 225.026 130.602 224.354C130.602 223.691 130.724 223.111 130.968 222.615C131.22 222.12 131.568 221.738 132.014 221.469C132.467 221.2 132.996 221.066 133.601 221.066C134.206 221.066 134.731 221.2 135.176 221.469C135.63 221.738 135.978 222.12 136.222 222.615C136.474 223.111 136.6 223.691 136.6 224.354C136.6 225.026 136.474 225.61 136.222 226.106C135.978 226.593 135.63 226.971 135.176 227.24C134.731 227.508 134.206 227.643 133.601 227.643ZM133.601 226.799C134.223 226.799 134.702 226.593 135.038 226.181C135.382 225.761 135.554 225.152 135.554 224.354C135.554 223.573 135.382 222.972 135.038 222.552C134.693 222.132 134.214 221.922 133.601 221.922C132.988 221.922 132.505 222.132 132.152 222.552C131.808 222.972 131.636 223.573 131.636 224.354C131.636 225.152 131.804 225.761 132.14 226.181C132.484 226.593 132.971 226.799 133.601 226.799ZM137.284 222.023V221.217H141.089V222.023H137.284ZM141.266 219.213C141.03 219.146 140.812 219.113 140.61 219.113C140.409 219.113 140.224 219.15 140.056 219.226C139.896 219.293 139.77 219.419 139.678 219.604C139.586 219.789 139.539 220.045 139.539 220.373V227.555H138.519V220.247C138.519 219.566 138.687 219.062 139.023 218.735C139.359 218.399 139.821 218.231 140.409 218.231C140.552 218.231 140.694 218.239 140.837 218.256C140.98 218.273 141.123 218.302 141.266 218.344V219.213ZM144.814 222.023V221.217H148.884V222.023H144.814ZM148.859 226.647V227.517C148.716 227.559 148.573 227.588 148.431 227.605C148.296 227.63 148.145 227.643 147.977 227.643C147.389 227.643 146.919 227.475 146.566 227.139C146.221 226.803 146.049 226.299 146.049 225.627V219.591L147.07 219.226V225.488C147.07 225.824 147.116 226.085 147.208 226.269C147.309 226.454 147.444 226.584 147.612 226.66C147.78 226.727 147.969 226.761 148.179 226.761C148.305 226.761 148.418 226.752 148.519 226.736C148.62 226.719 148.733 226.689 148.859 226.647ZM150.114 227.555V218.281H151.135V222.502L150.971 222.628C151.147 222.116 151.441 221.729 151.853 221.469C152.265 221.2 152.739 221.066 153.277 221.066C154.797 221.066 155.557 221.901 155.557 223.573V227.555H154.537V223.623C154.537 223.035 154.419 222.607 154.184 222.338C153.949 222.061 153.579 221.922 153.075 221.922C152.487 221.922 152.017 222.103 151.664 222.464C151.311 222.825 151.135 223.313 151.135 223.926V227.555H150.114ZM162.676 226.799C162.399 227.059 162.042 227.265 161.605 227.416C161.176 227.567 160.735 227.643 160.282 227.643C159.627 227.643 159.06 227.513 158.581 227.252C158.11 226.992 157.745 226.618 157.485 226.131C157.233 225.635 157.107 225.047 157.107 224.367C157.107 223.712 157.233 223.136 157.485 222.641C157.737 222.145 158.085 221.759 158.53 221.481C158.984 221.204 159.505 221.066 160.093 221.066C160.656 221.066 161.139 221.192 161.542 221.444C161.945 221.687 162.252 222.04 162.462 222.502C162.68 222.964 162.789 223.518 162.789 224.165V224.354H158.001V223.686H162.21L161.882 224.153C161.899 223.413 161.752 222.846 161.441 222.452C161.139 222.057 160.693 221.859 160.105 221.859C159.492 221.859 159.009 222.078 158.656 222.515C158.312 222.943 158.14 223.539 158.14 224.304C158.14 225.127 158.32 225.749 158.682 226.169C159.051 226.589 159.589 226.799 160.294 226.799C160.664 226.799 161.017 226.74 161.353 226.622C161.697 226.496 162.025 226.307 162.336 226.055L162.676 226.799ZM169.766 227.643C168.699 227.643 167.855 227.37 167.233 226.824L167.573 226.068C167.909 226.328 168.254 226.521 168.607 226.647C168.968 226.765 169.367 226.824 169.804 226.824C170.282 226.824 170.644 226.744 170.887 226.584C171.139 226.416 171.265 226.177 171.265 225.866C171.265 225.614 171.181 225.417 171.013 225.274C170.845 225.123 170.568 225.001 170.182 224.909L169.111 224.657C168.581 224.539 168.17 224.329 167.876 224.027C167.59 223.724 167.447 223.363 167.447 222.943C167.447 222.573 167.548 222.25 167.75 221.973C167.951 221.687 168.233 221.465 168.594 221.305C168.955 221.145 169.384 221.066 169.879 221.066C170.324 221.066 170.744 221.137 171.139 221.28C171.534 221.423 171.866 221.628 172.135 221.897L171.794 222.641C171.492 222.389 171.181 222.204 170.862 222.086C170.551 221.96 170.224 221.897 169.879 221.897C169.426 221.897 169.073 221.985 168.821 222.162C168.577 222.338 168.455 222.578 168.455 222.88C168.455 223.14 168.531 223.346 168.682 223.497C168.842 223.649 169.094 223.766 169.438 223.85L170.509 224.115C171.106 224.241 171.542 224.451 171.82 224.745C172.105 225.03 172.248 225.396 172.248 225.841C172.248 226.387 172.025 226.824 171.58 227.151C171.135 227.479 170.53 227.643 169.766 227.643ZM179.066 226.799C178.788 227.059 178.431 227.265 177.995 227.416C177.566 227.567 177.125 227.643 176.672 227.643C176.016 227.643 175.449 227.513 174.971 227.252C174.5 226.992 174.135 226.618 173.874 226.131C173.622 225.635 173.496 225.047 173.496 224.367C173.496 223.712 173.622 223.136 173.874 222.641C174.126 222.145 174.475 221.759 174.92 221.481C175.374 221.204 175.895 221.066 176.483 221.066C177.045 221.066 177.528 221.192 177.932 221.444C178.335 221.687 178.641 222.04 178.851 222.502C179.07 222.964 179.179 223.518 179.179 224.165V224.354H174.391V223.686H178.599L178.272 224.153C178.289 223.413 178.142 222.846 177.831 222.452C177.528 222.057 177.083 221.859 176.495 221.859C175.882 221.859 175.399 222.078 175.046 222.515C174.702 222.943 174.53 223.539 174.53 224.304C174.53 225.127 174.71 225.749 175.071 226.169C175.441 226.589 175.979 226.799 176.684 226.799C177.054 226.799 177.407 226.74 177.743 226.622C178.087 226.496 178.415 226.307 178.725 226.055L179.066 226.799ZM183.16 227.643C182.597 227.643 182.102 227.513 181.673 227.252C181.253 226.983 180.926 226.605 180.69 226.118C180.464 225.623 180.35 225.043 180.35 224.379C180.35 223.716 180.468 223.136 180.703 222.641C180.938 222.145 181.266 221.759 181.686 221.481C182.114 221.204 182.606 221.066 183.16 221.066C183.74 221.066 184.231 221.208 184.634 221.494C185.037 221.78 185.31 222.187 185.453 222.716L185.302 222.817V221.217H186.31V227.555H185.302V225.917L185.453 225.992C185.31 226.521 185.037 226.929 184.634 227.214C184.231 227.5 183.74 227.643 183.16 227.643ZM183.362 226.799C183.983 226.799 184.462 226.589 184.798 226.169C185.134 225.74 185.302 225.135 185.302 224.354C185.302 223.573 185.13 222.972 184.785 222.552C184.449 222.132 183.975 221.922 183.362 221.922C182.74 221.922 182.253 222.141 181.9 222.578C181.556 223.006 181.383 223.607 181.383 224.379C181.383 225.152 181.556 225.749 181.9 226.169C182.253 226.589 182.74 226.799 183.362 226.799ZM190.674 222.023V221.217H194.744V222.023H190.674ZM194.719 226.647V227.517C194.576 227.559 194.433 227.588 194.29 227.605C194.156 227.63 194.005 227.643 193.837 227.643C193.249 227.643 192.778 227.475 192.425 227.139C192.081 226.803 191.909 226.299 191.909 225.627V219.591L192.929 219.226V225.488C192.929 225.824 192.976 226.085 193.068 226.269C193.169 226.454 193.303 226.584 193.471 226.66C193.639 226.727 193.828 226.761 194.038 226.761C194.164 226.761 194.278 226.752 194.378 226.736C194.479 226.719 194.593 226.689 194.719 226.647ZM198.595 227.643C197.99 227.643 197.461 227.508 197.007 227.24C196.562 226.971 196.213 226.593 195.961 226.106C195.718 225.61 195.596 225.026 195.596 224.354C195.596 223.691 195.718 223.111 195.961 222.615C196.213 222.12 196.562 221.738 197.007 221.469C197.461 221.2 197.99 221.066 198.595 221.066C199.199 221.066 199.724 221.2 200.17 221.469C200.623 221.738 200.972 222.12 201.215 222.615C201.467 223.111 201.593 223.691 201.593 224.354C201.593 225.026 201.467 225.61 201.215 226.106C200.972 226.593 200.623 226.971 200.17 227.24C199.724 227.508 199.199 227.643 198.595 227.643ZM198.595 226.799C199.216 226.799 199.695 226.593 200.031 226.181C200.375 225.761 200.548 225.152 200.548 224.354C200.548 223.573 200.375 222.972 200.031 222.552C199.687 222.132 199.208 221.922 198.595 221.922C197.981 221.922 197.498 222.132 197.146 222.552C196.801 222.972 196.629 223.573 196.629 224.354C196.629 225.152 196.797 225.761 197.133 226.181C197.477 226.593 197.965 226.799 198.595 226.799ZM34.1584 241.023V240.217H38.2282V241.023H34.1584ZM38.203 245.647V246.517C38.0602 246.559 37.9174 246.588 37.7746 246.605C37.6402 246.63 37.489 246.643 37.321 246.643C36.733 246.643 36.2626 246.475 35.9098 246.139C35.5654 245.803 35.3932 245.299 35.3932 244.627V238.591L36.4138 238.226V244.488C36.4138 244.824 36.46 245.085 36.5524 245.269C36.6532 245.454 36.7876 245.584 36.9556 245.66C37.1236 245.727 37.3126 245.761 37.5226 245.761C37.6486 245.761 37.762 245.752 37.8628 245.736C37.9636 245.719 38.077 245.689 38.203 245.647ZM39.4581 246.555V237.281H40.4787V241.502L40.3149 241.628C40.4913 241.116 40.7853 240.729 41.1969 240.469C41.6085 240.2 42.0831 240.066 42.6207 240.066C44.1411 240.066 44.9013 240.901 44.9013 242.573V246.555H43.8807V242.623C43.8807 242.035 43.7631 241.607 43.5279 241.338C43.2927 241.061 42.9231 240.922 42.4191 240.922C41.8311 240.922 41.3607 241.103 41.0079 241.464C40.6551 241.825 40.4787 242.313 40.4787 242.926V246.555H39.4581ZM52.0198 245.799C51.7426 246.059 51.3856 246.265 50.9488 246.416C50.5204 246.567 50.0794 246.643 49.6258 246.643C48.9706 246.643 48.4036 246.513 47.9248 246.252C47.4544 245.992 47.089 245.618 46.8286 245.131C46.5766 244.635 46.4506 244.047 46.4506 243.367C46.4506 242.712 46.5766 242.136 46.8286 241.641C47.0806 241.145 47.4292 240.759 47.8744 240.481C48.328 240.204 48.8488 240.066 49.4368 240.066C49.9996 240.066 50.4826 240.192 50.8858 240.444C51.289 240.687 51.5956 241.04 51.8056 241.502C52.024 241.964 52.1332 242.518 52.1332 243.165V243.354H47.3452V242.686H51.5536L51.226 243.153C51.2428 242.413 51.0958 241.846 50.785 241.452C50.4826 241.057 50.0374 240.859 49.4494 240.859C48.8362 240.859 48.3532 241.078 48.0004 241.515C47.656 241.943 47.4838 242.539 47.4838 243.304C47.4838 244.127 47.6644 244.749 48.0256 245.169C48.3952 245.589 48.9328 245.799 49.6384 245.799C50.008 245.799 50.3608 245.74 50.6968 245.622C51.0412 245.496 51.3688 245.307 51.6796 245.055L52.0198 245.799ZM56.9677 246.555V237.281H57.9883V246.555H56.9677ZM65.1612 245.799C64.884 246.059 64.527 246.265 64.0902 246.416C63.6618 246.567 63.2208 246.643 62.7672 246.643C62.112 246.643 61.545 246.513 61.0662 246.252C60.5958 245.992 60.2304 245.618 59.97 245.131C59.718 244.635 59.592 244.047 59.592 243.367C59.592 242.712 59.718 242.136 59.97 241.641C60.222 241.145 60.5706 240.759 61.0158 240.481C61.4694 240.204 61.9902 240.066 62.5782 240.066C63.141 240.066 63.624 240.192 64.0272 240.444C64.4304 240.687 64.737 241.04 64.947 241.502C65.1654 241.964 65.2746 242.518 65.2746 243.165V243.354H60.4866V242.686H64.695L64.3674 243.153C64.3842 242.413 64.2372 241.846 63.9264 241.452C63.624 241.057 63.1788 240.859 62.5908 240.859C61.9776 240.859 61.4946 241.078 61.1418 241.515C60.7974 241.943 60.6252 242.539 60.6252 243.304C60.6252 244.127 60.8058 244.749 61.167 245.169C61.5366 245.589 62.0742 245.799 62.7798 245.799C63.1494 245.799 63.5022 245.74 63.8382 245.622C64.1826 245.496 64.5102 245.307 64.821 245.055L65.1612 245.799ZM68.6147 246.555L65.9183 240.229H66.9893L69.2825 245.811H68.9801L71.2985 240.229H72.3191L69.5849 246.555H68.6147ZM78.561 245.799C78.2838 246.059 77.9268 246.265 77.49 246.416C77.0616 246.567 76.6206 246.643 76.167 246.643C75.5118 246.643 74.9448 246.513 74.466 246.252C73.9956 245.992 73.6302 245.618 73.3698 245.131C73.1178 244.635 72.9918 244.047 72.9918 243.367C72.9918 242.712 73.1178 242.136 73.3698 241.641C73.6218 241.145 73.9704 240.759 74.4156 240.481C74.8692 240.204 75.39 240.066 75.978 240.066C76.5408 240.066 77.0238 240.192 77.427 240.444C77.8302 240.687 78.1368 241.04 78.3468 241.502C78.5652 241.964 78.6744 242.518 78.6744 243.165V243.354H73.8864V242.686H78.0948L77.7672 243.153C77.784 242.413 77.637 241.846 77.3262 241.452C77.0238 241.057 76.5786 240.859 75.9906 240.859C75.3774 240.859 74.8944 241.078 74.5416 241.515C74.1972 241.943 74.025 242.539 74.025 243.304C74.025 244.127 74.2056 244.749 74.5668 245.169C74.9364 245.589 75.474 245.799 76.1796 245.799C76.5492 245.799 76.902 245.74 77.238 245.622C77.5824 245.496 77.91 245.307 78.2208 245.055L78.561 245.799ZM80.2235 246.555V237.281H81.2441V246.555H80.2235ZM89.132 246.643C88.5272 246.643 87.998 246.508 87.5444 246.24C87.0992 245.971 86.7506 245.593 86.4986 245.106C86.255 244.61 86.1332 244.026 86.1332 243.354C86.1332 242.691 86.255 242.111 86.4986 241.615C86.7506 241.12 87.0992 240.738 87.5444 240.469C87.998 240.2 88.5272 240.066 89.132 240.066C89.7368 240.066 90.2618 240.2 90.707 240.469C91.1606 240.738 91.5092 241.12 91.7528 241.615C92.0048 242.111 92.1308 242.691 92.1308 243.354C92.1308 244.026 92.0048 244.61 91.7528 245.106C91.5092 245.593 91.1606 245.971 90.707 246.24C90.2618 246.508 89.7368 246.643 89.132 246.643ZM89.132 245.799C89.7536 245.799 90.2324 245.593 90.5684 245.181C90.9128 244.761 91.085 244.152 91.085 243.354C91.085 242.573 90.9128 241.972 90.5684 241.552C90.224 241.132 89.7452 240.922 89.132 240.922C88.5188 240.922 88.0358 241.132 87.683 241.552C87.3386 241.972 87.1664 242.573 87.1664 243.354C87.1664 244.152 87.3344 244.761 87.6704 245.181C88.0148 245.593 88.502 245.799 89.132 245.799ZM92.8149 241.023V240.217H96.6201V241.023H92.8149ZM96.7965 238.213C96.5613 238.146 96.3429 238.113 96.1413 238.113C95.9397 238.113 95.7549 238.15 95.5869 238.226C95.4273 238.293 95.3013 238.419 95.2089 238.604C95.1165 238.789 95.0703 239.045 95.0703 239.373V246.555H94.0497V239.247C94.0497 238.566 94.2177 238.062 94.5537 237.735C94.8897 237.399 95.3517 237.231 95.9397 237.231C96.0825 237.231 96.2253 237.239 96.3681 237.256C96.5109 237.273 96.6537 237.302 96.7965 237.344V238.213ZM100.345 241.023V240.217H104.415V241.023H100.345ZM104.39 245.647V246.517C104.247 246.559 104.104 246.588 103.962 246.605C103.827 246.63 103.676 246.643 103.508 246.643C102.92 246.643 102.45 246.475 102.097 246.139C101.752 245.803 101.58 245.299 101.58 244.627V238.591L102.601 238.226V244.488C102.601 244.824 102.647 245.085 102.739 245.269C102.84 245.454 102.975 245.584 103.143 245.66C103.311 245.727 103.5 245.761 103.71 245.761C103.836 245.761 103.949 245.752 104.05 245.736C104.151 245.719 104.264 245.689 104.39 245.647ZM105.645 246.555V237.281H106.666V241.502L106.502 241.628C106.678 241.116 106.972 240.729 107.384 240.469C107.795 240.2 108.27 240.066 108.808 240.066C110.328 240.066 111.088 240.901 111.088 242.573V246.555H110.068V242.623C110.068 242.035 109.95 241.607 109.715 241.338C109.48 241.061 109.11 240.922 108.606 240.922C108.018 240.922 107.548 241.103 107.195 241.464C106.842 241.825 106.666 242.313 106.666 242.926V246.555H105.645ZM118.207 245.799C117.93 246.059 117.573 246.265 117.136 246.416C116.707 246.567 116.266 246.643 115.813 246.643C115.158 246.643 114.591 246.513 114.112 246.252C113.641 245.992 113.276 245.618 113.016 245.131C112.764 244.635 112.638 244.047 112.638 243.367C112.638 242.712 112.764 242.136 113.016 241.641C113.268 241.145 113.616 240.759 114.061 240.481C114.515 240.204 115.036 240.066 115.624 240.066C116.187 240.066 116.67 240.192 117.073 240.444C117.476 240.687 117.783 241.04 117.993 241.502C118.211 241.964 118.32 242.518 118.32 243.165V243.354H113.532V242.686H117.741L117.413 243.153C117.43 242.413 117.283 241.846 116.972 241.452C116.67 241.057 116.224 240.859 115.636 240.859C115.023 240.859 114.54 241.078 114.187 241.515C113.843 241.943 113.671 242.539 113.671 243.304C113.671 244.127 113.851 244.749 114.213 245.169C114.582 245.589 115.12 245.799 115.825 245.799C116.195 245.799 116.548 245.74 116.884 245.622C117.228 245.496 117.556 245.307 117.867 245.055L118.207 245.799ZM125.297 246.643C124.23 246.643 123.386 246.37 122.764 245.824L123.104 245.068C123.44 245.328 123.785 245.521 124.137 245.647C124.499 245.765 124.898 245.824 125.334 245.824C125.813 245.824 126.174 245.744 126.418 245.584C126.67 245.416 126.796 245.177 126.796 244.866C126.796 244.614 126.712 244.417 126.544 244.274C126.376 244.123 126.099 244.001 125.712 243.909L124.641 243.657C124.112 243.539 123.701 243.329 123.407 243.027C123.121 242.724 122.978 242.363 122.978 241.943C122.978 241.573 123.079 241.25 123.281 240.973C123.482 240.687 123.764 240.465 124.125 240.305C124.486 240.145 124.914 240.066 125.41 240.066C125.855 240.066 126.275 240.137 126.67 240.28C127.065 240.423 127.397 240.628 127.665 240.897L127.325 241.641C127.023 241.389 126.712 241.204 126.393 241.086C126.082 240.96 125.754 240.897 125.41 240.897C124.956 240.897 124.604 240.985 124.352 241.162C124.108 241.338 123.986 241.578 123.986 241.88C123.986 242.14 124.062 242.346 124.213 242.497C124.373 242.649 124.625 242.766 124.969 242.85L126.04 243.115C126.636 243.241 127.073 243.451 127.35 243.745C127.636 244.03 127.779 244.396 127.779 244.841C127.779 245.387 127.556 245.824 127.111 246.151C126.666 246.479 126.061 246.643 125.297 246.643ZM129.405 249.276V241.993C129.405 241.699 129.397 241.405 129.38 241.111C129.372 240.809 129.347 240.511 129.305 240.217H130.275L130.388 241.527L130.287 241.716C130.43 241.187 130.703 240.78 131.106 240.494C131.51 240.208 131.997 240.066 132.568 240.066C133.122 240.066 133.61 240.204 134.03 240.481C134.458 240.759 134.79 241.145 135.025 241.641C135.269 242.136 135.39 242.716 135.39 243.379C135.39 244.043 135.269 244.623 135.025 245.118C134.79 245.605 134.462 245.983 134.042 246.252C133.622 246.513 133.131 246.643 132.568 246.643C131.997 246.643 131.51 246.5 131.106 246.214C130.703 245.929 130.43 245.521 130.287 244.992L130.426 244.866V249.276H129.405ZM132.379 245.799C132.992 245.799 133.471 245.589 133.815 245.169C134.16 244.749 134.332 244.152 134.332 243.379C134.332 242.607 134.16 242.006 133.815 241.578C133.471 241.141 132.992 240.922 132.379 240.922C131.749 240.922 131.266 241.132 130.93 241.552C130.594 241.972 130.426 242.573 130.426 243.354C130.426 244.135 130.594 244.74 130.93 245.169C131.266 245.589 131.749 245.799 132.379 245.799ZM142.152 245.799C141.874 246.059 141.517 246.265 141.081 246.416C140.652 246.567 140.211 246.643 139.758 246.643C139.102 246.643 138.535 246.513 138.057 246.252C137.586 245.992 137.221 245.618 136.96 245.131C136.708 244.635 136.582 244.047 136.582 243.367C136.582 242.712 136.708 242.136 136.96 241.641C137.212 241.145 137.561 240.759 138.006 240.481C138.46 240.204 138.981 240.066 139.569 240.066C140.131 240.066 140.614 240.192 141.018 240.444C141.421 240.687 141.727 241.04 141.937 241.502C142.156 241.964 142.265 242.518 142.265 243.165V243.354H137.477V242.686H141.685L141.358 243.153C141.375 242.413 141.228 241.846 140.917 241.452C140.614 241.057 140.169 240.859 139.581 240.859C138.968 240.859 138.485 241.078 138.132 241.515C137.788 241.943 137.616 242.539 137.616 243.304C137.616 244.127 137.796 244.749 138.157 245.169C138.527 245.589 139.065 245.799 139.77 245.799C140.14 245.799 140.493 245.74 140.829 245.622C141.173 245.496 141.501 245.307 141.811 245.055L142.152 245.799ZM146.473 246.643C145.851 246.643 145.314 246.508 144.86 246.24C144.406 245.971 144.054 245.593 143.802 245.106C143.558 244.618 143.436 244.043 143.436 243.379C143.436 242.724 143.562 242.149 143.814 241.653C144.066 241.149 144.423 240.759 144.885 240.481C145.347 240.204 145.893 240.066 146.523 240.066C146.952 240.066 147.363 240.141 147.758 240.292C148.161 240.435 148.493 240.637 148.753 240.897L148.413 241.653C148.102 241.41 147.796 241.229 147.493 241.111C147.199 240.985 146.893 240.922 146.574 240.922C145.935 240.922 145.427 241.137 145.049 241.565C144.679 241.993 144.495 242.598 144.495 243.379C144.495 244.152 144.679 244.749 145.049 245.169C145.419 245.589 145.927 245.799 146.574 245.799C146.884 245.799 147.191 245.74 147.493 245.622C147.796 245.496 148.102 245.311 148.413 245.068L148.753 245.824C148.485 246.076 148.144 246.277 147.733 246.429C147.33 246.571 146.91 246.643 146.473 246.643ZM149.17 241.023V240.217H153.24V241.023H149.17ZM153.215 245.647V246.517C153.072 246.559 152.929 246.588 152.787 246.605C152.652 246.63 152.501 246.643 152.333 246.643C151.745 246.643 151.275 246.475 150.922 246.139C150.577 245.803 150.405 245.299 150.405 244.627V238.591L151.426 238.226V244.488C151.426 244.824 151.472 245.085 151.564 245.269C151.665 245.454 151.8 245.584 151.968 245.66C152.136 245.727 152.325 245.761 152.535 245.761C152.661 245.761 152.774 245.752 152.875 245.736C152.976 245.719 153.089 245.689 153.215 245.647ZM156.902 246.643C156.339 246.643 155.843 246.513 155.415 246.252C154.995 245.983 154.667 245.605 154.432 245.118C154.205 244.623 154.092 244.043 154.092 243.379C154.092 242.716 154.21 242.136 154.445 241.641C154.68 241.145 155.008 240.759 155.428 240.481C155.856 240.204 156.347 240.066 156.902 240.066C157.481 240.066 157.973 240.208 158.376 240.494C158.779 240.78 159.052 241.187 159.195 241.716L159.044 241.817V240.217H160.052V246.555H159.044V244.917L159.195 244.992C159.052 245.521 158.779 245.929 158.376 246.214C157.973 246.5 157.481 246.643 156.902 246.643ZM157.103 245.799C157.725 245.799 158.204 245.589 158.54 245.169C158.876 244.74 159.044 244.135 159.044 243.354C159.044 242.573 158.872 241.972 158.527 241.552C158.191 241.132 157.717 240.922 157.103 240.922C156.482 240.922 155.995 241.141 155.642 241.578C155.297 242.006 155.125 242.607 155.125 243.379C155.125 244.152 155.297 244.749 155.642 245.169C155.995 245.589 156.482 245.799 157.103 245.799ZM161.13 241.023V240.217H165.2V241.023H161.13ZM165.175 245.647V246.517C165.032 246.559 164.889 246.588 164.747 246.605C164.612 246.63 164.461 246.643 164.293 246.643C163.705 246.643 163.235 246.475 162.882 246.139C162.537 245.803 162.365 245.299 162.365 244.627V238.591L163.386 238.226V244.488C163.386 244.824 163.432 245.085 163.524 245.269C163.625 245.454 163.76 245.584 163.928 245.66C164.096 245.727 164.285 245.761 164.495 245.761C164.621 245.761 164.734 245.752 164.835 245.736C164.936 245.719 165.049 245.689 165.175 245.647ZM169.051 246.643C168.446 246.643 167.917 246.508 167.463 246.24C167.018 245.971 166.67 245.593 166.418 245.106C166.174 244.61 166.052 244.026 166.052 243.354C166.052 242.691 166.174 242.111 166.418 241.615C166.67 241.12 167.018 240.738 167.463 240.469C167.917 240.2 168.446 240.066 169.051 240.066C169.656 240.066 170.181 240.2 170.626 240.469C171.08 240.738 171.428 241.12 171.672 241.615C171.924 242.111 172.05 242.691 172.05 243.354C172.05 244.026 171.924 244.61 171.672 245.106C171.428 245.593 171.08 245.971 170.626 246.24C170.181 246.508 169.656 246.643 169.051 246.643ZM169.051 245.799C169.673 245.799 170.151 245.593 170.487 245.181C170.832 244.761 171.004 244.152 171.004 243.354C171.004 242.573 170.832 241.972 170.487 241.552C170.143 241.132 169.664 240.922 169.051 240.922C168.438 240.922 167.955 241.132 167.602 241.552C167.258 241.972 167.085 242.573 167.085 243.354C167.085 244.152 167.253 244.761 167.589 245.181C167.934 245.593 168.421 245.799 169.051 245.799ZM173.641 246.555V241.993C173.641 241.699 173.632 241.405 173.616 241.111C173.607 240.809 173.582 240.511 173.54 240.217H174.51L174.649 241.779L174.51 241.741C174.628 241.187 174.88 240.771 175.266 240.494C175.661 240.208 176.102 240.066 176.589 240.066C176.698 240.066 176.799 240.074 176.892 240.091C176.992 240.099 177.085 240.116 177.169 240.141L177.144 241.074C176.95 241.006 176.728 240.973 176.476 240.973C176.039 240.973 175.686 241.069 175.417 241.263C175.157 241.456 174.964 241.704 174.838 242.006C174.72 242.3 174.661 242.611 174.661 242.938V246.555H173.641ZM184.112 246.643C183.507 246.643 182.978 246.508 182.524 246.24C182.079 245.971 181.731 245.593 181.479 245.106C181.235 244.61 181.113 244.026 181.113 243.354C181.113 242.691 181.235 242.111 181.479 241.615C181.731 241.12 182.079 240.738 182.524 240.469C182.978 240.2 183.507 240.066 184.112 240.066C184.717 240.066 185.242 240.2 185.687 240.469C186.141 240.738 186.489 241.12 186.733 241.615C186.985 242.111 187.111 242.691 187.111 243.354C187.111 244.026 186.985 244.61 186.733 245.106C186.489 245.593 186.141 245.971 185.687 246.24C185.242 246.508 184.717 246.643 184.112 246.643ZM184.112 245.799C184.734 245.799 185.212 245.593 185.548 245.181C185.893 244.761 186.065 244.152 186.065 243.354C186.065 242.573 185.893 241.972 185.548 241.552C185.204 241.132 184.725 240.922 184.112 240.922C183.499 240.922 183.016 241.132 182.663 241.552C182.319 241.972 182.146 242.573 182.146 243.354C182.146 244.152 182.314 244.761 182.65 245.181C182.995 245.593 183.482 245.799 184.112 245.799ZM188.702 246.555V241.993C188.702 241.699 188.693 241.405 188.676 241.111C188.668 240.809 188.643 240.511 188.601 240.217H189.571L189.684 241.527L189.558 241.628C189.735 241.116 190.029 240.729 190.44 240.469C190.852 240.2 191.327 240.066 191.864 240.066C193.385 240.066 194.145 240.901 194.145 242.573V246.555H193.124V242.623C193.124 242.035 193.007 241.607 192.771 241.338C192.536 241.061 192.167 240.922 191.663 240.922C191.075 240.922 190.604 241.103 190.251 241.464C189.899 241.825 189.722 242.313 189.722 242.926V246.555H188.702ZM201.789 246.643C201.227 246.643 200.731 246.513 200.303 246.252C199.883 245.983 199.555 245.605 199.32 245.118C199.093 244.623 198.98 244.043 198.98 243.379C198.98 242.716 199.097 242.136 199.332 241.641C199.568 241.145 199.895 240.759 200.315 240.481C200.744 240.204 201.235 240.066 201.789 240.066C202.369 240.066 202.86 240.208 203.264 240.494C203.667 240.78 203.94 241.187 204.083 241.716L203.931 241.817V240.217H204.939V246.555H203.931V244.917L204.083 244.992C203.94 245.521 203.667 245.929 203.264 246.214C202.86 246.5 202.369 246.643 201.789 246.643ZM201.991 245.799C202.613 245.799 203.091 245.589 203.427 245.169C203.763 244.74 203.931 244.135 203.931 243.354C203.931 242.573 203.759 241.972 203.415 241.552C203.079 241.132 202.604 240.922 201.991 240.922C201.369 240.922 200.882 241.141 200.529 241.578C200.185 242.006 200.013 242.607 200.013 243.379C200.013 244.152 200.185 244.749 200.529 245.169C200.882 245.589 201.369 245.799 201.991 245.799ZM99.505 265.555V256.281H100.526V260.502L100.362 260.628C100.538 260.116 100.832 259.729 101.244 259.469C101.655 259.2 102.13 259.066 102.668 259.066C104.188 259.066 104.948 259.901 104.948 261.573V265.555H103.928V261.623C103.928 261.035 103.81 260.607 103.575 260.338C103.34 260.061 102.97 259.922 102.466 259.922C101.878 259.922 101.408 260.103 101.055 260.464C100.702 260.825 100.526 261.313 100.526 261.926V265.555H99.505ZM106.875 265.555V259.217H107.896V265.555H106.875ZM106.775 256.533H108.022V257.692H106.775V256.533ZM109.878 265.555V256.281H110.898V265.555H109.878ZM112.88 265.555V256.281H113.901V265.555H112.88ZM118.025 265.643C116.958 265.643 116.114 265.37 115.492 264.824L115.832 264.068C116.168 264.328 116.513 264.521 116.865 264.647C117.227 264.765 117.626 264.824 118.062 264.824C118.541 264.824 118.902 264.744 119.146 264.584C119.398 264.416 119.524 264.177 119.524 263.866C119.524 263.614 119.44 263.417 119.272 263.274C119.104 263.123 118.827 263.001 118.44 262.909L117.369 262.657C116.84 262.539 116.429 262.329 116.135 262.027C115.849 261.724 115.706 261.363 115.706 260.943C115.706 260.573 115.807 260.25 116.009 259.973C116.21 259.687 116.492 259.465 116.853 259.305C117.214 259.145 117.642 259.066 118.138 259.066C118.583 259.066 119.003 259.137 119.398 259.28C119.793 259.423 120.125 259.628 120.393 259.897L120.053 260.641C119.751 260.389 119.44 260.204 119.121 260.086C118.81 259.96 118.482 259.897 118.138 259.897C117.684 259.897 117.332 259.985 117.08 260.162C116.836 260.338 116.714 260.578 116.714 260.88C116.714 261.14 116.79 261.346 116.941 261.497C117.101 261.649 117.353 261.766 117.697 261.85L118.768 262.115C119.364 262.241 119.801 262.451 120.078 262.745C120.364 263.03 120.507 263.396 120.507 263.841C120.507 264.387 120.284 264.824 119.839 265.151C119.394 265.479 118.789 265.643 118.025 265.643ZM122.133 265.555V259.217H123.154V265.555H122.133ZM122.032 256.533H123.28V257.692H122.032V256.533ZM130.717 265.555H129.709V263.854L129.861 263.992C129.718 264.521 129.445 264.929 129.042 265.214C128.638 265.5 128.147 265.643 127.567 265.643C127.013 265.643 126.522 265.508 126.093 265.24C125.673 264.962 125.346 264.576 125.11 264.08C124.875 263.576 124.758 262.993 124.758 262.329C124.758 261.665 124.871 261.09 125.098 260.603C125.333 260.116 125.661 259.738 126.081 259.469C126.509 259.2 127.005 259.066 127.567 259.066C128.147 259.066 128.638 259.213 129.042 259.507C129.445 259.792 129.718 260.195 129.861 260.716L129.697 260.842V256.281H130.717V265.555ZM127.769 264.799C128.382 264.799 128.857 264.589 129.193 264.169C129.537 263.74 129.709 263.135 129.709 262.354C129.709 261.581 129.541 260.985 129.205 260.565C128.869 260.137 128.391 259.922 127.769 259.922C127.147 259.922 126.66 260.132 126.307 260.552C125.963 260.972 125.791 261.565 125.791 262.329C125.791 263.11 125.963 263.719 126.307 264.156C126.66 264.584 127.147 264.799 127.769 264.799ZM137.882 264.799C137.605 265.059 137.248 265.265 136.811 265.416C136.383 265.567 135.942 265.643 135.488 265.643C134.833 265.643 134.266 265.513 133.787 265.252C133.317 264.992 132.951 264.618 132.691 264.131C132.439 263.635 132.313 263.047 132.313 262.367C132.313 261.712 132.439 261.136 132.691 260.641C132.943 260.145 133.291 259.759 133.737 259.481C134.19 259.204 134.711 259.066 135.299 259.066C135.862 259.066 136.345 259.192 136.748 259.444C137.151 259.687 137.458 260.04 137.668 260.502C137.886 260.964 137.995 261.518 137.995 262.165V262.354H133.207V261.686H137.416L137.088 262.153C137.105 261.413 136.958 260.846 136.647 260.452C136.345 260.057 135.9 259.859 135.312 259.859C134.698 259.859 134.215 260.078 133.863 260.515C133.518 260.943 133.346 261.539 133.346 262.304C133.346 263.127 133.527 263.749 133.888 264.169C134.257 264.589 134.795 264.799 135.501 264.799C135.87 264.799 136.223 264.74 136.559 264.622C136.903 264.496 137.231 264.307 137.542 264.055L137.882 264.799ZM139.368 264.257H140.666V265.555H139.368V264.257Z" fill="#253757"/>
<g opacity="0.1">
<circle cx="120" cy="138.554" r="24" fill="#FCC304"/>
<circle cx="120" cy="138.554" r="24" fill="url(#paint1_linear)" fill-opacity="0.25"/>
</g>
<path d="M130.848 169.594V175.554H110.768V170.034L120.048 160.354C121.782 158.54 122.648 156.847 122.648 155.274C122.648 153.434 121.555 152.514 119.368 152.514C118.248 152.514 117.062 152.74 115.808 153.194C114.582 153.62 113.342 154.247 112.088 155.074L109.728 149.754C110.875 148.82 112.355 148.087 114.168 147.554C116.008 146.994 117.875 146.714 119.768 146.714C121.822 146.714 123.608 147.047 125.128 147.714C126.675 148.354 127.862 149.287 128.688 150.514C129.542 151.714 129.968 153.127 129.968 154.754C129.968 156.407 129.635 157.914 128.968 159.274C128.328 160.607 127.222 162.114 125.648 163.794L119.968 169.594H130.848Z" fill="#FCC304"/>
<path d="M130.848 169.594V175.554H110.768V170.034L120.048 160.354C121.782 158.54 122.648 156.847 122.648 155.274C122.648 153.434 121.555 152.514 119.368 152.514C118.248 152.514 117.062 152.74 115.808 153.194C114.582 153.62 113.342 154.247 112.088 155.074L109.728 149.754C110.875 148.82 112.355 148.087 114.168 147.554C116.008 146.994 117.875 146.714 119.768 146.714C121.822 146.714 123.608 147.047 125.128 147.714C126.675 148.354 127.862 149.287 128.688 150.514C129.542 151.714 129.968 153.127 129.968 154.754C129.968 156.407 129.635 157.914 128.968 159.274C128.328 160.607 127.222 162.114 125.648 163.794L119.968 169.594H130.848Z" fill="url(#paint2_linear)" fill-opacity="0.25"/>
<defs>
<filter id="filter0_d" x="0" y="66.5537" width="272" height="288" filterUnits="userSpaceOnUse" color-interpolation-filters="sRGB">
<feFlood flood-opacity="0" result="BackgroundImageFix"/>
<feColorMatrix in="SourceAlpha" type="matrix" values="0 0 0 0 0 0 0 0 0 0 0 0 0 0 0 0 0 0 127 0"/>
<feOffset dx="16" dy="16"/>
<feGaussianBlur stdDeviation="8"/>
<feColorMatrix type="matrix" values="0 0 0 0 0 0 0 0 0 0 0 0 0 0 0 0 0 0 0.02 0"/>
<feBlend mode="normal" in2="BackgroundImageFix" result="effect1_dropShadow"/>
<feBlend mode="normal" in="SourceGraphic" in2="effect1_dropShadow" result="shape"/>
</filter>
<linearGradient id="paint0_linear" x1="234.58" y1="381.927" x2="234.58" y2="397.927" gradientUnits="userSpaceOnUse">
<stop stop-color="white"/>
<stop offset="1" stop-color="white" stop-opacity="0"/>
</linearGradient>
<linearGradient id="paint1_linear" x1="120" y1="114.554" x2="120" y2="162.554" gradientUnits="userSpaceOnUse">
<stop stop-color="white"/>
<stop offset="1" stop-color="white" stop-opacity="0"/>
</linearGradient>
<linearGradient id="paint2_linear" x1="108" y1="173.054" x2="133" y2="173.054" gradientUnits="userSpaceOnUse">
<stop stop-color="white"/>
<stop offset="1" stop-color="white" stop-opacity="0"/>
</linearGradient>
</defs>
</svg>
