<svg width="272" height="390" viewBox="0 0 272 390" fill="none" xmlns="http://www.w3.org/2000/svg">
<rect x="23.6602" y="382.827" width="421.912" height="16" rx="8" transform="rotate(-65 23.6602 382.827)" fill="#03D542"/>
<rect x="23.6602" y="382.827" width="421.912" height="16" rx="8" transform="rotate(-65 23.6602 382.827)" fill="url(#paint0_linear)" fill-opacity="0.25"/>
<g filter="url(#filter0_d)">
<rect y="67" width="240" height="256" fill="white"/>
</g>
<path d="M44.1983 209V200.029H47.8019C48.7091 200.029 49.4189 200.235 49.9313 200.646C50.4437 201.049 50.6999 201.625 50.6999 202.372C50.6999 202.893 50.5571 203.334 50.2715 203.695C49.9943 204.048 49.6079 204.3 49.1123 204.451V204.351C49.6751 204.46 50.1161 204.708 50.4353 205.094C50.7545 205.48 50.9141 205.968 50.9141 206.556C50.9141 207.345 50.6537 207.95 50.1329 208.37C49.6121 208.79 48.8771 209 47.9279 209H44.1983ZM45.2189 208.143H47.8397C48.5453 208.143 49.0619 208.013 49.3895 207.753C49.7255 207.492 49.8935 207.085 49.8935 206.53C49.8935 205.984 49.7255 205.573 49.3895 205.296C49.0535 205.018 48.5369 204.88 47.8397 204.88H45.2189V208.143ZM45.2189 204.01H47.6381C48.3185 204.01 48.8267 203.876 49.1627 203.607C49.5071 203.338 49.6793 202.944 49.6793 202.423C49.6793 201.91 49.5113 201.528 49.1753 201.276C48.8393 201.016 48.3269 200.886 47.6381 200.886H45.2189V204.01ZM52.3463 211.86L52.1321 211.066C52.5185 210.974 52.8419 210.865 53.1023 210.739C53.3711 210.621 53.5937 210.466 53.7701 210.273C53.9549 210.079 54.1145 209.823 54.2489 209.504L54.6521 208.572L54.8789 208.257L57.1973 202.662H58.2179L55.2569 209.58C55.0301 210.092 54.7739 210.499 54.4883 210.802C54.2027 211.113 53.8793 211.348 53.5181 211.507C53.1653 211.667 52.7747 211.785 52.3463 211.86ZM54.6647 209.328L51.8171 202.662H52.8881L55.1813 208.257L54.6647 209.328ZM61.7332 203.469V202.662H65.803V203.469H61.7332ZM65.7778 208.093V208.962C65.635 209.004 65.4922 209.034 65.3494 209.05C65.215 209.076 65.0638 209.088 64.8958 209.088C64.3078 209.088 63.8374 208.92 63.4846 208.584C63.1402 208.248 62.968 207.744 62.968 207.072V201.037L63.9886 200.671V206.934C63.9886 207.27 64.0348 207.53 64.1272 207.715C64.228 207.9 64.3624 208.03 64.5304 208.105C64.6984 208.173 64.8874 208.206 65.0974 208.206C65.2234 208.206 65.3368 208.198 65.4376 208.181C65.5384 208.164 65.6518 208.135 65.7778 208.093ZM67.0329 209V199.726H68.0535V203.947L67.8897 204.073C68.0661 203.561 68.3601 203.175 68.7717 202.914C69.1833 202.645 69.6579 202.511 70.1955 202.511C71.7159 202.511 72.4761 203.347 72.4761 205.018V209H71.4555V205.069C71.4555 204.481 71.3379 204.052 71.1027 203.784C70.8675 203.506 70.4979 203.368 69.9939 203.368C69.4059 203.368 68.9355 203.548 68.5827 203.91C68.2299 204.271 68.0535 204.758 68.0535 205.371V209H67.0329ZM79.5946 208.244C79.3174 208.504 78.9604 208.71 78.5236 208.861C78.0952 209.013 77.6542 209.088 77.2006 209.088C76.5454 209.088 75.9784 208.958 75.4996 208.698C75.0292 208.437 74.6638 208.063 74.4034 207.576C74.1514 207.081 74.0254 206.493 74.0254 205.812C74.0254 205.157 74.1514 204.582 74.4034 204.086C74.6554 203.59 75.004 203.204 75.4492 202.927C75.9028 202.65 76.4236 202.511 77.0116 202.511C77.5744 202.511 78.0574 202.637 78.4606 202.889C78.8638 203.133 79.1704 203.485 79.3804 203.947C79.5988 204.409 79.708 204.964 79.708 205.611V205.8H74.92V205.132H79.1284L78.8008 205.598C78.8176 204.859 78.6706 204.292 78.3598 203.897C78.0574 203.502 77.6122 203.305 77.0242 203.305C76.411 203.305 75.928 203.523 75.5752 203.96C75.2308 204.388 75.0586 204.985 75.0586 205.749C75.0586 206.572 75.2392 207.194 75.6004 207.614C75.97 208.034 76.5076 208.244 77.2132 208.244C77.5828 208.244 77.9356 208.185 78.2716 208.068C78.616 207.942 78.9436 207.753 79.2544 207.501L79.5946 208.244ZM86.6845 209.088C85.6177 209.088 84.7735 208.815 84.1519 208.269L84.4921 207.513C84.8281 207.774 85.1725 207.967 85.5253 208.093C85.8865 208.21 86.2855 208.269 86.7223 208.269C87.2011 208.269 87.5623 208.189 87.8059 208.03C88.0579 207.862 88.1839 207.622 88.1839 207.312C88.1839 207.06 88.0999 206.862 87.9319 206.719C87.7639 206.568 87.4867 206.446 87.1003 206.354L86.0293 206.102C85.5001 205.984 85.0885 205.774 84.7945 205.472C84.5089 205.17 84.3661 204.808 84.3661 204.388C84.3661 204.019 84.4669 203.695 84.6685 203.418C84.8701 203.133 85.1515 202.91 85.5127 202.75C85.8739 202.591 86.3023 202.511 86.7979 202.511C87.2431 202.511 87.6631 202.582 88.0579 202.725C88.4527 202.868 88.7845 203.074 89.0533 203.343L88.7131 204.086C88.4107 203.834 88.0999 203.649 87.7807 203.532C87.4699 203.406 87.1423 203.343 86.7979 203.343C86.3443 203.343 85.9915 203.431 85.7395 203.607C85.4959 203.784 85.3741 204.023 85.3741 204.325C85.3741 204.586 85.4497 204.792 85.6009 204.943C85.7605 205.094 86.0125 205.212 86.3569 205.296L87.4279 205.56C88.0243 205.686 88.4611 205.896 88.7383 206.19C89.0239 206.476 89.1667 206.841 89.1667 207.286C89.1667 207.832 88.9441 208.269 88.4989 208.597C88.0537 208.924 87.4489 209.088 86.6845 209.088ZM93.225 209.088C92.6622 209.088 92.1666 208.958 91.7382 208.698C91.3182 208.429 90.9906 208.051 90.7554 207.564C90.5286 207.068 90.4152 206.488 90.4152 205.825C90.4152 205.161 90.5328 204.582 90.768 204.086C91.0032 203.59 91.3308 203.204 91.7508 202.927C92.1792 202.65 92.6706 202.511 93.225 202.511C93.8046 202.511 94.296 202.654 94.6992 202.939C95.1024 203.225 95.3754 203.632 95.5182 204.162L95.367 204.262V202.662H96.375V209H95.367V207.362L95.5182 207.438C95.3754 207.967 95.1024 208.374 94.6992 208.66C94.296 208.945 93.8046 209.088 93.225 209.088ZM93.4266 208.244C94.0482 208.244 94.527 208.034 94.863 207.614C95.199 207.186 95.367 206.581 95.367 205.8C95.367 205.018 95.1948 204.418 94.8504 203.998C94.5144 203.578 94.0398 203.368 93.4266 203.368C92.805 203.368 92.3178 203.586 91.965 204.023C91.6206 204.451 91.4484 205.052 91.4484 205.825C91.4484 206.598 91.6206 207.194 91.965 207.614C92.3178 208.034 92.805 208.244 93.4266 208.244ZM98.3483 209V204.439C98.3483 204.145 98.3399 203.851 98.3231 203.557C98.3147 203.254 98.2895 202.956 98.2475 202.662H99.2177L99.3311 203.973L99.2051 204.061C99.3563 203.565 99.6167 203.183 99.9863 202.914C100.364 202.645 100.81 202.511 101.322 202.511C101.935 202.511 102.41 202.662 102.746 202.965C103.09 203.267 103.309 203.729 103.401 204.351L103.099 204.187C103.233 203.674 103.502 203.267 103.905 202.965C104.317 202.662 104.808 202.511 105.379 202.511C106.076 202.511 106.601 202.721 106.954 203.141C107.307 203.553 107.483 204.178 107.483 205.018V209H106.463V205.069C106.463 204.481 106.358 204.052 106.148 203.784C105.938 203.506 105.606 203.368 105.152 203.368C104.623 203.368 104.203 203.548 103.892 203.91C103.59 204.271 103.439 204.762 103.439 205.384V209H102.418V205.069C102.418 204.481 102.309 204.052 102.091 203.784C101.881 203.506 101.549 203.368 101.095 203.368C100.558 203.368 100.133 203.548 99.8225 203.91C99.5201 204.271 99.3689 204.762 99.3689 205.384V209H98.3483ZM114.614 208.244C114.337 208.504 113.98 208.71 113.543 208.861C113.114 209.013 112.673 209.088 112.22 209.088C111.565 209.088 110.998 208.958 110.519 208.698C110.048 208.437 109.683 208.063 109.423 207.576C109.171 207.081 109.045 206.493 109.045 205.812C109.045 205.157 109.171 204.582 109.423 204.086C109.675 203.59 110.023 203.204 110.468 202.927C110.922 202.65 111.443 202.511 112.031 202.511C112.594 202.511 113.077 202.637 113.48 202.889C113.883 203.133 114.19 203.485 114.4 203.947C114.618 204.409 114.727 204.964 114.727 205.611V205.8H109.939V205.132H114.148L113.82 205.598C113.837 204.859 113.69 204.292 113.379 203.897C113.077 203.502 112.631 203.305 112.043 203.305C111.43 203.305 110.947 203.523 110.594 203.96C110.25 204.388 110.078 204.985 110.078 205.749C110.078 206.572 110.258 207.194 110.62 207.614C110.989 208.034 111.527 208.244 112.232 208.244C112.602 208.244 112.955 208.185 113.291 208.068C113.635 207.942 113.963 207.753 114.274 207.501L114.614 208.244ZM119.562 209V202.662H120.582V209H119.562ZM119.461 199.978H120.708V201.138H119.461V199.978ZM122.564 209V199.726H123.585V209H122.564ZM125.566 209V199.726H126.587V209H125.566ZM130.811 209.088C130.055 209.088 129.484 208.878 129.098 208.458C128.72 208.038 128.531 207.417 128.531 206.593V202.662H129.551V206.568C129.551 207.139 129.669 207.559 129.904 207.828C130.139 208.097 130.496 208.231 130.975 208.231C131.538 208.231 131.992 208.051 132.336 207.69C132.68 207.328 132.853 206.845 132.853 206.241V202.662H133.873V209H132.878V207.627L133.029 207.551C132.861 208.055 132.575 208.437 132.172 208.698C131.777 208.958 131.324 209.088 130.811 209.088ZM137.983 209.088C136.916 209.088 136.072 208.815 135.45 208.269L135.79 207.513C136.126 207.774 136.471 207.967 136.824 208.093C137.185 208.21 137.584 208.269 138.021 208.269C138.499 208.269 138.861 208.189 139.104 208.03C139.356 207.862 139.482 207.622 139.482 207.312C139.482 207.06 139.398 206.862 139.23 206.719C139.062 206.568 138.785 206.446 138.399 206.354L137.328 206.102C136.798 205.984 136.387 205.774 136.093 205.472C135.807 205.17 135.664 204.808 135.664 204.388C135.664 204.019 135.765 203.695 135.967 203.418C136.168 203.133 136.45 202.91 136.811 202.75C137.172 202.591 137.601 202.511 138.096 202.511C138.541 202.511 138.961 202.582 139.356 202.725C139.751 202.868 140.083 203.074 140.352 203.343L140.011 204.086C139.709 203.834 139.398 203.649 139.079 203.532C138.768 203.406 138.441 203.343 138.096 203.343C137.643 203.343 137.29 203.431 137.038 203.607C136.794 203.784 136.672 204.023 136.672 204.325C136.672 204.586 136.748 204.792 136.899 204.943C137.059 205.094 137.311 205.212 137.655 205.296L138.726 205.56C139.323 205.686 139.759 205.896 140.037 206.19C140.322 206.476 140.465 206.841 140.465 207.286C140.465 207.832 140.242 208.269 139.797 208.597C139.352 208.924 138.747 209.088 137.983 209.088ZM142.091 209V202.662H143.112V209H142.091ZM141.991 199.978H143.238V201.138H141.991V199.978ZM147.715 209.088C147.11 209.088 146.581 208.954 146.127 208.685C145.682 208.416 145.333 208.038 145.081 207.551C144.838 207.055 144.716 206.472 144.716 205.8C144.716 205.136 144.838 204.556 145.081 204.061C145.333 203.565 145.682 203.183 146.127 202.914C146.581 202.645 147.11 202.511 147.715 202.511C148.319 202.511 148.844 202.645 149.29 202.914C149.743 203.183 150.092 203.565 150.335 204.061C150.587 204.556 150.713 205.136 150.713 205.8C150.713 206.472 150.587 207.055 150.335 207.551C150.092 208.038 149.743 208.416 149.29 208.685C148.844 208.954 148.319 209.088 147.715 209.088ZM147.715 208.244C148.336 208.244 148.815 208.038 149.151 207.627C149.495 207.207 149.668 206.598 149.668 205.8C149.668 205.018 149.495 204.418 149.151 203.998C148.807 203.578 148.328 203.368 147.715 203.368C147.101 203.368 146.618 203.578 146.266 203.998C145.921 204.418 145.749 205.018 145.749 205.8C145.749 206.598 145.917 207.207 146.253 207.627C146.597 208.038 147.085 208.244 147.715 208.244ZM152.304 209V204.439C152.304 204.145 152.296 203.851 152.279 203.557C152.271 203.254 152.246 202.956 152.204 202.662H153.174L153.287 203.973L153.161 204.073C153.338 203.561 153.632 203.175 154.043 202.914C154.455 202.645 154.929 202.511 155.467 202.511C156.987 202.511 157.748 203.347 157.748 205.018V209H156.727V205.069C156.727 204.481 156.609 204.052 156.374 203.784C156.139 203.506 155.769 203.368 155.265 203.368C154.677 203.368 154.207 203.548 153.854 203.91C153.501 204.271 153.325 204.758 153.325 205.371V209H152.304ZM164.661 209L162.318 202.662H163.389L165.342 208.244H165.014L167.03 202.662H167.925L169.915 208.244H169.588L171.579 202.662H172.587L170.243 209H169.26L167.169 203.292H167.723L165.644 209H164.661ZM173.911 209V199.726H174.932V203.947L174.768 204.073C174.945 203.561 175.239 203.175 175.65 202.914C176.062 202.645 176.536 202.511 177.074 202.511C178.594 202.511 179.355 203.347 179.355 205.018V209H178.334V205.069C178.334 204.481 178.216 204.052 177.981 203.784C177.746 203.506 177.376 203.368 176.872 203.368C176.284 203.368 175.814 203.548 175.461 203.91C175.108 204.271 174.932 204.758 174.932 205.371V209H173.911ZM181.282 209V202.662H182.303V209H181.282ZM181.181 199.978H182.429V201.138H181.181V199.978ZM186.943 209.088C186.321 209.088 185.784 208.954 185.33 208.685C184.876 208.416 184.524 208.038 184.272 207.551C184.028 207.064 183.906 206.488 183.906 205.825C183.906 205.17 184.032 204.594 184.284 204.099C184.536 203.595 184.893 203.204 185.355 202.927C185.817 202.65 186.363 202.511 186.993 202.511C187.422 202.511 187.833 202.587 188.228 202.738C188.631 202.881 188.963 203.082 189.223 203.343L188.883 204.099C188.572 203.855 188.266 203.674 187.963 203.557C187.669 203.431 187.363 203.368 187.044 203.368C186.405 203.368 185.897 203.582 185.519 204.01C185.149 204.439 184.965 205.044 184.965 205.825C184.965 206.598 185.149 207.194 185.519 207.614C185.889 208.034 186.397 208.244 187.044 208.244C187.354 208.244 187.661 208.185 187.963 208.068C188.266 207.942 188.572 207.757 188.883 207.513L189.223 208.269C188.955 208.521 188.614 208.723 188.203 208.874C187.8 209.017 187.38 209.088 186.943 209.088ZM190.523 209V199.726H191.543V203.947L191.38 204.073C191.556 203.561 191.85 203.175 192.262 202.914C192.673 202.645 193.148 202.511 193.685 202.511C195.206 202.511 195.966 203.347 195.966 205.018V209H194.945V205.069C194.945 204.481 194.828 204.052 194.593 203.784C194.357 203.506 193.988 203.368 193.484 203.368C192.896 203.368 192.425 203.548 192.073 203.91C191.72 204.271 191.543 204.758 191.543 205.371V209H190.523ZM38.7813 228V218.726H39.8019V228H38.7813ZM41.7837 228V221.662H42.8043V228H41.7837ZM41.6829 218.978H42.9303V220.138H41.6829V218.978ZM43.8914 222.469V221.662H47.6966V222.469H43.8914ZM47.873 219.659C47.6378 219.592 47.4194 219.558 47.2178 219.558C47.0162 219.558 46.8314 219.596 46.6634 219.671C46.5038 219.739 46.3778 219.865 46.2854 220.049C46.193 220.234 46.1468 220.49 46.1468 220.818V228H45.1262V220.692C45.1262 220.012 45.2942 219.508 45.6302 219.18C45.9662 218.844 46.4282 218.676 47.0162 218.676C47.159 218.676 47.3018 218.684 47.4446 218.701C47.5874 218.718 47.7302 218.747 47.873 218.789V219.659ZM47.8412 222.469V221.662H51.911V222.469H47.8412ZM51.8858 227.093V227.962C51.743 228.004 51.6002 228.034 51.4574 228.05C51.323 228.076 51.1718 228.088 51.0038 228.088C50.4158 228.088 49.9454 227.92 49.5926 227.584C49.2482 227.248 49.076 226.744 49.076 226.072V220.037L50.0966 219.671V225.934C50.0966 226.27 50.1428 226.53 50.2352 226.715C50.336 226.9 50.4704 227.03 50.6384 227.105C50.8064 227.173 50.9954 227.206 51.2054 227.206C51.3314 227.206 51.4448 227.198 51.5456 227.181C51.6464 227.164 51.7598 227.135 51.8858 227.093ZM55.2829 228.088C54.2161 228.088 53.3719 227.815 52.7503 227.269L53.0905 226.513C53.4265 226.774 53.7709 226.967 54.1237 227.093C54.4849 227.21 54.8839 227.269 55.3207 227.269C55.7995 227.269 56.1607 227.189 56.4043 227.03C56.6563 226.862 56.7823 226.622 56.7823 226.312C56.7823 226.06 56.6983 225.862 56.5303 225.719C56.3623 225.568 56.0851 225.446 55.6987 225.354L54.6277 225.102C54.0985 224.984 53.6869 224.774 53.3929 224.472C53.1073 224.17 52.9645 223.808 52.9645 223.388C52.9645 223.019 53.0653 222.695 53.2669 222.418C53.4685 222.133 53.7499 221.91 54.1111 221.75C54.4723 221.591 54.9007 221.511 55.3963 221.511C55.8415 221.511 56.2615 221.582 56.6563 221.725C57.0511 221.868 57.3829 222.074 57.6517 222.343L57.3115 223.086C57.0091 222.834 56.6983 222.649 56.3791 222.532C56.0683 222.406 55.7407 222.343 55.3963 222.343C54.9427 222.343 54.5899 222.431 54.3379 222.607C54.0943 222.784 53.9725 223.023 53.9725 223.325C53.9725 223.586 54.0481 223.792 54.1993 223.943C54.3589 224.094 54.6109 224.212 54.9553 224.296L56.0263 224.56C56.6227 224.686 57.0595 224.896 57.3367 225.19C57.6223 225.476 57.7651 225.841 57.7651 226.286C57.7651 226.832 57.5425 227.269 57.0973 227.597C56.6521 227.924 56.0473 228.088 55.2829 228.088ZM61.7824 222.469V221.662H65.8522V222.469H61.7824ZM65.827 227.093V227.962C65.6842 228.004 65.5414 228.034 65.3986 228.05C65.2642 228.076 65.113 228.088 64.945 228.088C64.357 228.088 63.8866 227.92 63.5338 227.584C63.1894 227.248 63.0172 226.744 63.0172 226.072V220.037L64.0378 219.671V225.934C64.0378 226.27 64.084 226.53 64.1764 226.715C64.2772 226.9 64.4116 227.03 64.5796 227.105C64.7476 227.173 64.9366 227.206 65.1466 227.206C65.2726 227.206 65.386 227.198 65.4868 227.181C65.5876 227.164 65.701 227.135 65.827 227.093ZM67.0821 228V218.726H68.1027V222.947L67.9389 223.073C68.1153 222.561 68.4093 222.175 68.8209 221.914C69.2325 221.645 69.7071 221.511 70.2447 221.511C71.7651 221.511 72.5253 222.347 72.5253 224.018V228H71.5047V224.069C71.5047 223.481 71.3871 223.052 71.1519 222.784C70.9167 222.506 70.5471 222.368 70.0431 222.368C69.4551 222.368 68.9847 222.548 68.6319 222.91C68.2791 223.271 68.1027 223.758 68.1027 224.371V228H67.0821ZM79.6438 227.244C79.3666 227.504 79.0096 227.71 78.5728 227.861C78.1444 228.013 77.7034 228.088 77.2498 228.088C76.5946 228.088 76.0276 227.958 75.5488 227.698C75.0784 227.437 74.713 227.063 74.4526 226.576C74.2006 226.081 74.0746 225.493 74.0746 224.812C74.0746 224.157 74.2006 223.582 74.4526 223.086C74.7046 222.59 75.0532 222.204 75.4984 221.927C75.952 221.65 76.4728 221.511 77.0608 221.511C77.6236 221.511 78.1066 221.637 78.5098 221.889C78.913 222.133 79.2196 222.485 79.4296 222.947C79.648 223.409 79.7572 223.964 79.7572 224.611V224.8H74.9692V224.132H79.1776L78.85 224.598C78.8668 223.859 78.7198 223.292 78.409 222.897C78.1066 222.502 77.6614 222.305 77.0734 222.305C76.4602 222.305 75.9772 222.523 75.6244 222.96C75.28 223.388 75.1078 223.985 75.1078 224.749C75.1078 225.572 75.2884 226.194 75.6496 226.614C76.0192 227.034 76.5568 227.244 77.2624 227.244C77.632 227.244 77.9848 227.185 78.3208 227.068C78.6652 226.942 78.9928 226.753 79.3036 226.501L79.6438 227.244ZM84.5917 228V218.726H85.6123V222.947L85.4485 223.073C85.6249 222.561 85.9189 222.175 86.3305 221.914C86.7421 221.645 87.2167 221.511 87.7543 221.511C89.2747 221.511 90.0349 222.347 90.0349 224.018V228H89.0143V224.069C89.0143 223.481 88.8967 223.052 88.6615 222.784C88.4263 222.506 88.0567 222.368 87.5527 222.368C86.9647 222.368 86.4943 222.548 86.1415 222.91C85.7887 223.271 85.6123 223.758 85.6123 224.371V228H84.5917ZM94.583 228.088C93.9782 228.088 93.449 227.954 92.9954 227.685C92.5502 227.416 92.2016 227.038 91.9496 226.551C91.706 226.055 91.5842 225.472 91.5842 224.8C91.5842 224.136 91.706 223.556 91.9496 223.061C92.2016 222.565 92.5502 222.183 92.9954 221.914C93.449 221.645 93.9782 221.511 94.583 221.511C95.1878 221.511 95.7128 221.645 96.158 221.914C96.6116 222.183 96.9602 222.565 97.2038 223.061C97.4558 223.556 97.5818 224.136 97.5818 224.8C97.5818 225.472 97.4558 226.055 97.2038 226.551C96.9602 227.038 96.6116 227.416 96.158 227.685C95.7128 227.954 95.1878 228.088 94.583 228.088ZM94.583 227.244C95.2046 227.244 95.6834 227.038 96.0194 226.627C96.3638 226.207 96.536 225.598 96.536 224.8C96.536 224.018 96.3638 223.418 96.0194 222.998C95.675 222.578 95.1962 222.368 94.583 222.368C93.9698 222.368 93.4868 222.578 93.134 222.998C92.7896 223.418 92.6174 224.018 92.6174 224.8C92.6174 225.598 92.7854 226.207 93.1214 226.627C93.4658 227.038 93.953 227.244 94.583 227.244ZM99.1727 228V223.439C99.1727 223.145 99.1643 222.851 99.1475 222.557C99.1391 222.254 99.1139 221.956 99.0719 221.662H100.042L100.181 223.225L100.042 223.187C100.16 222.632 100.412 222.217 100.798 221.939C101.193 221.654 101.634 221.511 102.121 221.511C102.23 221.511 102.331 221.519 102.424 221.536C102.524 221.545 102.617 221.561 102.701 221.587L102.676 222.519C102.482 222.452 102.26 222.418 102.008 222.418C101.571 222.418 101.218 222.515 100.949 222.708C100.689 222.901 100.496 223.149 100.37 223.451C100.252 223.745 100.193 224.056 100.193 224.384V228H99.1727ZM103.738 228V221.662H104.758V228H103.738ZM103.637 218.978H104.884V220.138H103.637V218.978ZM106.387 228V227.294L110.722 222.053L110.886 222.469H106.526V221.662H111.604V222.406L107.295 227.622L107.156 227.194H111.742V228H106.387ZM115.735 228.088C115.13 228.088 114.601 227.954 114.147 227.685C113.702 227.416 113.353 227.038 113.101 226.551C112.858 226.055 112.736 225.472 112.736 224.8C112.736 224.136 112.858 223.556 113.101 223.061C113.353 222.565 113.702 222.183 114.147 221.914C114.601 221.645 115.13 221.511 115.735 221.511C116.34 221.511 116.865 221.645 117.31 221.914C117.763 222.183 118.112 222.565 118.356 223.061C118.608 223.556 118.734 224.136 118.734 224.8C118.734 225.472 118.608 226.055 118.356 226.551C118.112 227.038 117.763 227.416 117.31 227.685C116.865 227.954 116.34 228.088 115.735 228.088ZM115.735 227.244C116.356 227.244 116.835 227.038 117.171 226.627C117.516 226.207 117.688 225.598 117.688 224.8C117.688 224.018 117.516 223.418 117.171 222.998C116.827 222.578 116.348 222.368 115.735 222.368C115.122 222.368 114.639 222.578 114.286 222.998C113.941 223.418 113.769 224.018 113.769 224.8C113.769 225.598 113.937 226.207 114.273 226.627C114.618 227.038 115.105 227.244 115.735 227.244ZM120.324 228V223.439C120.324 223.145 120.316 222.851 120.299 222.557C120.291 222.254 120.266 221.956 120.224 221.662H121.194L121.307 222.973L121.181 223.073C121.358 222.561 121.652 222.175 122.063 221.914C122.475 221.645 122.949 221.511 123.487 221.511C125.007 221.511 125.768 222.347 125.768 224.018V228H124.747V224.069C124.747 223.481 124.629 223.052 124.394 222.784C124.159 222.506 123.789 222.368 123.285 222.368C122.697 222.368 122.227 222.548 121.874 222.91C121.521 223.271 121.345 223.758 121.345 224.371V228H120.324ZM133.601 228.088C132.996 228.088 132.467 227.954 132.014 227.685C131.568 227.416 131.22 227.038 130.968 226.551C130.724 226.055 130.602 225.472 130.602 224.8C130.602 224.136 130.724 223.556 130.968 223.061C131.22 222.565 131.568 222.183 132.014 221.914C132.467 221.645 132.996 221.511 133.601 221.511C134.206 221.511 134.731 221.645 135.176 221.914C135.63 222.183 135.978 222.565 136.222 223.061C136.474 223.556 136.6 224.136 136.6 224.8C136.6 225.472 136.474 226.055 136.222 226.551C135.978 227.038 135.63 227.416 135.176 227.685C134.731 227.954 134.206 228.088 133.601 228.088ZM133.601 227.244C134.223 227.244 134.702 227.038 135.038 226.627C135.382 226.207 135.554 225.598 135.554 224.8C135.554 224.018 135.382 223.418 135.038 222.998C134.693 222.578 134.214 222.368 133.601 222.368C132.988 222.368 132.505 222.578 132.152 222.998C131.808 223.418 131.636 224.018 131.636 224.8C131.636 225.598 131.804 226.207 132.14 226.627C132.484 227.038 132.971 227.244 133.601 227.244ZM137.284 222.469V221.662H141.089V222.469H137.284ZM141.266 219.659C141.03 219.592 140.812 219.558 140.61 219.558C140.409 219.558 140.224 219.596 140.056 219.671C139.896 219.739 139.77 219.865 139.678 220.049C139.586 220.234 139.539 220.49 139.539 220.818V228H138.519V220.692C138.519 220.012 138.687 219.508 139.023 219.18C139.359 218.844 139.821 218.676 140.409 218.676C140.552 218.676 140.694 218.684 140.837 218.701C140.98 218.718 141.123 218.747 141.266 218.789V219.659ZM144.814 222.469V221.662H148.884V222.469H144.814ZM148.859 227.093V227.962C148.716 228.004 148.573 228.034 148.431 228.05C148.296 228.076 148.145 228.088 147.977 228.088C147.389 228.088 146.919 227.92 146.566 227.584C146.221 227.248 146.049 226.744 146.049 226.072V220.037L147.07 219.671V225.934C147.07 226.27 147.116 226.53 147.208 226.715C147.309 226.9 147.444 227.03 147.612 227.105C147.78 227.173 147.969 227.206 148.179 227.206C148.305 227.206 148.418 227.198 148.519 227.181C148.62 227.164 148.733 227.135 148.859 227.093ZM150.114 228V218.726H151.135V222.947L150.971 223.073C151.147 222.561 151.441 222.175 151.853 221.914C152.265 221.645 152.739 221.511 153.277 221.511C154.797 221.511 155.557 222.347 155.557 224.018V228H154.537V224.069C154.537 223.481 154.419 223.052 154.184 222.784C153.949 222.506 153.579 222.368 153.075 222.368C152.487 222.368 152.017 222.548 151.664 222.91C151.311 223.271 151.135 223.758 151.135 224.371V228H150.114ZM162.676 227.244C162.399 227.504 162.042 227.71 161.605 227.861C161.176 228.013 160.735 228.088 160.282 228.088C159.627 228.088 159.06 227.958 158.581 227.698C158.11 227.437 157.745 227.063 157.485 226.576C157.233 226.081 157.107 225.493 157.107 224.812C157.107 224.157 157.233 223.582 157.485 223.086C157.737 222.59 158.085 222.204 158.53 221.927C158.984 221.65 159.505 221.511 160.093 221.511C160.656 221.511 161.139 221.637 161.542 221.889C161.945 222.133 162.252 222.485 162.462 222.947C162.68 223.409 162.789 223.964 162.789 224.611V224.8H158.001V224.132H162.21L161.882 224.598C161.899 223.859 161.752 223.292 161.441 222.897C161.139 222.502 160.693 222.305 160.105 222.305C159.492 222.305 159.009 222.523 158.656 222.96C158.312 223.388 158.14 223.985 158.14 224.749C158.14 225.572 158.32 226.194 158.682 226.614C159.051 227.034 159.589 227.244 160.294 227.244C160.664 227.244 161.017 227.185 161.353 227.068C161.697 226.942 162.025 226.753 162.336 226.501L162.676 227.244ZM169.766 228.088C168.699 228.088 167.855 227.815 167.233 227.269L167.573 226.513C167.909 226.774 168.254 226.967 168.607 227.093C168.968 227.21 169.367 227.269 169.804 227.269C170.282 227.269 170.644 227.189 170.887 227.03C171.139 226.862 171.265 226.622 171.265 226.312C171.265 226.06 171.181 225.862 171.013 225.719C170.845 225.568 170.568 225.446 170.182 225.354L169.111 225.102C168.581 224.984 168.17 224.774 167.876 224.472C167.59 224.17 167.447 223.808 167.447 223.388C167.447 223.019 167.548 222.695 167.75 222.418C167.951 222.133 168.233 221.91 168.594 221.75C168.955 221.591 169.384 221.511 169.879 221.511C170.324 221.511 170.744 221.582 171.139 221.725C171.534 221.868 171.866 222.074 172.135 222.343L171.794 223.086C171.492 222.834 171.181 222.649 170.862 222.532C170.551 222.406 170.224 222.343 169.879 222.343C169.426 222.343 169.073 222.431 168.821 222.607C168.577 222.784 168.455 223.023 168.455 223.325C168.455 223.586 168.531 223.792 168.682 223.943C168.842 224.094 169.094 224.212 169.438 224.296L170.509 224.56C171.106 224.686 171.542 224.896 171.82 225.19C172.105 225.476 172.248 225.841 172.248 226.286C172.248 226.832 172.025 227.269 171.58 227.597C171.135 227.924 170.53 228.088 169.766 228.088ZM179.066 227.244C178.788 227.504 178.431 227.71 177.995 227.861C177.566 228.013 177.125 228.088 176.672 228.088C176.016 228.088 175.449 227.958 174.971 227.698C174.5 227.437 174.135 227.063 173.874 226.576C173.622 226.081 173.496 225.493 173.496 224.812C173.496 224.157 173.622 223.582 173.874 223.086C174.126 222.59 174.475 222.204 174.92 221.927C175.374 221.65 175.895 221.511 176.483 221.511C177.045 221.511 177.528 221.637 177.932 221.889C178.335 222.133 178.641 222.485 178.851 222.947C179.07 223.409 179.179 223.964 179.179 224.611V224.8H174.391V224.132H178.599L178.272 224.598C178.289 223.859 178.142 223.292 177.831 222.897C177.528 222.502 177.083 222.305 176.495 222.305C175.882 222.305 175.399 222.523 175.046 222.96C174.702 223.388 174.53 223.985 174.53 224.749C174.53 225.572 174.71 226.194 175.071 226.614C175.441 227.034 175.979 227.244 176.684 227.244C177.054 227.244 177.407 227.185 177.743 227.068C178.087 226.942 178.415 226.753 178.725 226.501L179.066 227.244ZM183.16 228.088C182.597 228.088 182.102 227.958 181.673 227.698C181.253 227.429 180.926 227.051 180.69 226.564C180.464 226.068 180.35 225.488 180.35 224.825C180.35 224.161 180.468 223.582 180.703 223.086C180.938 222.59 181.266 222.204 181.686 221.927C182.114 221.65 182.606 221.511 183.16 221.511C183.74 221.511 184.231 221.654 184.634 221.939C185.037 222.225 185.31 222.632 185.453 223.162L185.302 223.262V221.662H186.31V228H185.302V226.362L185.453 226.438C185.31 226.967 185.037 227.374 184.634 227.66C184.231 227.945 183.74 228.088 183.16 228.088ZM183.362 227.244C183.983 227.244 184.462 227.034 184.798 226.614C185.134 226.186 185.302 225.581 185.302 224.8C185.302 224.018 185.13 223.418 184.785 222.998C184.449 222.578 183.975 222.368 183.362 222.368C182.74 222.368 182.253 222.586 181.9 223.023C181.556 223.451 181.383 224.052 181.383 224.825C181.383 225.598 181.556 226.194 181.9 226.614C182.253 227.034 182.74 227.244 183.362 227.244ZM190.674 222.469V221.662H194.744V222.469H190.674ZM194.719 227.093V227.962C194.576 228.004 194.433 228.034 194.29 228.05C194.156 228.076 194.005 228.088 193.837 228.088C193.249 228.088 192.778 227.92 192.425 227.584C192.081 227.248 191.909 226.744 191.909 226.072V220.037L192.929 219.671V225.934C192.929 226.27 192.976 226.53 193.068 226.715C193.169 226.9 193.303 227.03 193.471 227.105C193.639 227.173 193.828 227.206 194.038 227.206C194.164 227.206 194.278 227.198 194.378 227.181C194.479 227.164 194.593 227.135 194.719 227.093ZM198.595 228.088C197.99 228.088 197.461 227.954 197.007 227.685C196.562 227.416 196.213 227.038 195.961 226.551C195.718 226.055 195.596 225.472 195.596 224.8C195.596 224.136 195.718 223.556 195.961 223.061C196.213 222.565 196.562 222.183 197.007 221.914C197.461 221.645 197.99 221.511 198.595 221.511C199.199 221.511 199.724 221.645 200.17 221.914C200.623 222.183 200.972 222.565 201.215 223.061C201.467 223.556 201.593 224.136 201.593 224.8C201.593 225.472 201.467 226.055 201.215 226.551C200.972 227.038 200.623 227.416 200.17 227.685C199.724 227.954 199.199 228.088 198.595 228.088ZM198.595 227.244C199.216 227.244 199.695 227.038 200.031 226.627C200.375 226.207 200.548 225.598 200.548 224.8C200.548 224.018 200.375 223.418 200.031 222.998C199.687 222.578 199.208 222.368 198.595 222.368C197.981 222.368 197.498 222.578 197.146 222.998C196.801 223.418 196.629 224.018 196.629 224.8C196.629 225.598 196.797 226.207 197.133 226.627C197.477 227.038 197.965 227.244 198.595 227.244ZM34.1584 241.469V240.662H38.2282V241.469H34.1584ZM38.203 246.093V246.962C38.0602 247.004 37.9174 247.034 37.7746 247.05C37.6402 247.076 37.489 247.088 37.321 247.088C36.733 247.088 36.2626 246.92 35.9098 246.584C35.5654 246.248 35.3932 245.744 35.3932 245.072V239.037L36.4138 238.671V244.934C36.4138 245.27 36.46 245.53 36.5524 245.715C36.6532 245.9 36.7876 246.03 36.9556 246.105C37.1236 246.173 37.3126 246.206 37.5226 246.206C37.6486 246.206 37.762 246.198 37.8628 246.181C37.9636 246.164 38.077 246.135 38.203 246.093ZM39.4581 247V237.726H40.4787V241.947L40.3149 242.073C40.4913 241.561 40.7853 241.175 41.1969 240.914C41.6085 240.645 42.0831 240.511 42.6207 240.511C44.1411 240.511 44.9013 241.347 44.9013 243.018V247H43.8807V243.069C43.8807 242.481 43.7631 242.052 43.5279 241.784C43.2927 241.506 42.9231 241.368 42.4191 241.368C41.8311 241.368 41.3607 241.548 41.0079 241.91C40.6551 242.271 40.4787 242.758 40.4787 243.371V247H39.4581ZM52.0198 246.244C51.7426 246.504 51.3856 246.71 50.9488 246.861C50.5204 247.013 50.0794 247.088 49.6258 247.088C48.9706 247.088 48.4036 246.958 47.9248 246.698C47.4544 246.437 47.089 246.063 46.8286 245.576C46.5766 245.081 46.4506 244.493 46.4506 243.812C46.4506 243.157 46.5766 242.582 46.8286 242.086C47.0806 241.59 47.4292 241.204 47.8744 240.927C48.328 240.65 48.8488 240.511 49.4368 240.511C49.9996 240.511 50.4826 240.637 50.8858 240.889C51.289 241.133 51.5956 241.485 51.8056 241.947C52.024 242.409 52.1332 242.964 52.1332 243.611V243.8H47.3452V243.132H51.5536L51.226 243.598C51.2428 242.859 51.0958 242.292 50.785 241.897C50.4826 241.502 50.0374 241.305 49.4494 241.305C48.8362 241.305 48.3532 241.523 48.0004 241.96C47.656 242.388 47.4838 242.985 47.4838 243.749C47.4838 244.572 47.6644 245.194 48.0256 245.614C48.3952 246.034 48.9328 246.244 49.6384 246.244C50.008 246.244 50.3608 246.185 50.6968 246.068C51.0412 245.942 51.3688 245.753 51.6796 245.501L52.0198 246.244ZM56.9677 247V237.726H57.9883V247H56.9677ZM65.1612 246.244C64.884 246.504 64.527 246.71 64.0902 246.861C63.6618 247.013 63.2208 247.088 62.7672 247.088C62.112 247.088 61.545 246.958 61.0662 246.698C60.5958 246.437 60.2304 246.063 59.97 245.576C59.718 245.081 59.592 244.493 59.592 243.812C59.592 243.157 59.718 242.582 59.97 242.086C60.222 241.59 60.5706 241.204 61.0158 240.927C61.4694 240.65 61.9902 240.511 62.5782 240.511C63.141 240.511 63.624 240.637 64.0272 240.889C64.4304 241.133 64.737 241.485 64.947 241.947C65.1654 242.409 65.2746 242.964 65.2746 243.611V243.8H60.4866V243.132H64.695L64.3674 243.598C64.3842 242.859 64.2372 242.292 63.9264 241.897C63.624 241.502 63.1788 241.305 62.5908 241.305C61.9776 241.305 61.4946 241.523 61.1418 241.96C60.7974 242.388 60.6252 242.985 60.6252 243.749C60.6252 244.572 60.8058 245.194 61.167 245.614C61.5366 246.034 62.0742 246.244 62.7798 246.244C63.1494 246.244 63.5022 246.185 63.8382 246.068C64.1826 245.942 64.5102 245.753 64.821 245.501L65.1612 246.244ZM68.6147 247L65.9183 240.675H66.9893L69.2825 246.257H68.9801L71.2985 240.675H72.3191L69.5849 247H68.6147ZM78.561 246.244C78.2838 246.504 77.9268 246.71 77.49 246.861C77.0616 247.013 76.6206 247.088 76.167 247.088C75.5118 247.088 74.9448 246.958 74.466 246.698C73.9956 246.437 73.6302 246.063 73.3698 245.576C73.1178 245.081 72.9918 244.493 72.9918 243.812C72.9918 243.157 73.1178 242.582 73.3698 242.086C73.6218 241.59 73.9704 241.204 74.4156 240.927C74.8692 240.65 75.39 240.511 75.978 240.511C76.5408 240.511 77.0238 240.637 77.427 240.889C77.8302 241.133 78.1368 241.485 78.3468 241.947C78.5652 242.409 78.6744 242.964 78.6744 243.611V243.8H73.8864V243.132H78.0948L77.7672 243.598C77.784 242.859 77.637 242.292 77.3262 241.897C77.0238 241.502 76.5786 241.305 75.9906 241.305C75.3774 241.305 74.8944 241.523 74.5416 241.96C74.1972 242.388 74.025 242.985 74.025 243.749C74.025 244.572 74.2056 245.194 74.5668 245.614C74.9364 246.034 75.474 246.244 76.1796 246.244C76.5492 246.244 76.902 246.185 77.238 246.068C77.5824 245.942 77.91 245.753 78.2208 245.501L78.561 246.244ZM80.2235 247V237.726H81.2441V247H80.2235ZM89.132 247.088C88.5272 247.088 87.998 246.954 87.5444 246.685C87.0992 246.416 86.7506 246.038 86.4986 245.551C86.255 245.055 86.1332 244.472 86.1332 243.8C86.1332 243.136 86.255 242.556 86.4986 242.061C86.7506 241.565 87.0992 241.183 87.5444 240.914C87.998 240.645 88.5272 240.511 89.132 240.511C89.7368 240.511 90.2618 240.645 90.707 240.914C91.1606 241.183 91.5092 241.565 91.7528 242.061C92.0048 242.556 92.1308 243.136 92.1308 243.8C92.1308 244.472 92.0048 245.055 91.7528 245.551C91.5092 246.038 91.1606 246.416 90.707 246.685C90.2618 246.954 89.7368 247.088 89.132 247.088ZM89.132 246.244C89.7536 246.244 90.2324 246.038 90.5684 245.627C90.9128 245.207 91.085 244.598 91.085 243.8C91.085 243.018 90.9128 242.418 90.5684 241.998C90.224 241.578 89.7452 241.368 89.132 241.368C88.5188 241.368 88.0358 241.578 87.683 241.998C87.3386 242.418 87.1664 243.018 87.1664 243.8C87.1664 244.598 87.3344 245.207 87.6704 245.627C88.0148 246.038 88.502 246.244 89.132 246.244ZM92.8149 241.469V240.662H96.6201V241.469H92.8149ZM96.7965 238.659C96.5613 238.592 96.3429 238.558 96.1413 238.558C95.9397 238.558 95.7549 238.596 95.5869 238.671C95.4273 238.739 95.3013 238.865 95.2089 239.049C95.1165 239.234 95.0703 239.49 95.0703 239.818V247H94.0497V239.692C94.0497 239.012 94.2177 238.508 94.5537 238.18C94.8897 237.844 95.3517 237.676 95.9397 237.676C96.0825 237.676 96.2253 237.684 96.3681 237.701C96.5109 237.718 96.6537 237.747 96.7965 237.789V238.659ZM100.345 241.469V240.662H104.415V241.469H100.345ZM104.39 246.093V246.962C104.247 247.004 104.104 247.034 103.962 247.05C103.827 247.076 103.676 247.088 103.508 247.088C102.92 247.088 102.45 246.92 102.097 246.584C101.752 246.248 101.58 245.744 101.58 245.072V239.037L102.601 238.671V244.934C102.601 245.27 102.647 245.53 102.739 245.715C102.84 245.9 102.975 246.03 103.143 246.105C103.311 246.173 103.5 246.206 103.71 246.206C103.836 246.206 103.949 246.198 104.05 246.181C104.151 246.164 104.264 246.135 104.39 246.093ZM105.645 247V237.726H106.666V241.947L106.502 242.073C106.678 241.561 106.972 241.175 107.384 240.914C107.795 240.645 108.27 240.511 108.808 240.511C110.328 240.511 111.088 241.347 111.088 243.018V247H110.068V243.069C110.068 242.481 109.95 242.052 109.715 241.784C109.48 241.506 109.11 241.368 108.606 241.368C108.018 241.368 107.548 241.548 107.195 241.91C106.842 242.271 106.666 242.758 106.666 243.371V247H105.645ZM118.207 246.244C117.93 246.504 117.573 246.71 117.136 246.861C116.707 247.013 116.266 247.088 115.813 247.088C115.158 247.088 114.591 246.958 114.112 246.698C113.641 246.437 113.276 246.063 113.016 245.576C112.764 245.081 112.638 244.493 112.638 243.812C112.638 243.157 112.764 242.582 113.016 242.086C113.268 241.59 113.616 241.204 114.061 240.927C114.515 240.65 115.036 240.511 115.624 240.511C116.187 240.511 116.67 240.637 117.073 240.889C117.476 241.133 117.783 241.485 117.993 241.947C118.211 242.409 118.32 242.964 118.32 243.611V243.8H113.532V243.132H117.741L117.413 243.598C117.43 242.859 117.283 242.292 116.972 241.897C116.67 241.502 116.224 241.305 115.636 241.305C115.023 241.305 114.54 241.523 114.187 241.96C113.843 242.388 113.671 242.985 113.671 243.749C113.671 244.572 113.851 245.194 114.213 245.614C114.582 246.034 115.12 246.244 115.825 246.244C116.195 246.244 116.548 246.185 116.884 246.068C117.228 245.942 117.556 245.753 117.867 245.501L118.207 246.244ZM125.297 247.088C124.23 247.088 123.386 246.815 122.764 246.269L123.104 245.513C123.44 245.774 123.785 245.967 124.137 246.093C124.499 246.21 124.898 246.269 125.334 246.269C125.813 246.269 126.174 246.189 126.418 246.03C126.67 245.862 126.796 245.622 126.796 245.312C126.796 245.06 126.712 244.862 126.544 244.719C126.376 244.568 126.099 244.446 125.712 244.354L124.641 244.102C124.112 243.984 123.701 243.774 123.407 243.472C123.121 243.17 122.978 242.808 122.978 242.388C122.978 242.019 123.079 241.695 123.281 241.418C123.482 241.133 123.764 240.91 124.125 240.75C124.486 240.591 124.914 240.511 125.41 240.511C125.855 240.511 126.275 240.582 126.67 240.725C127.065 240.868 127.397 241.074 127.665 241.343L127.325 242.086C127.023 241.834 126.712 241.649 126.393 241.532C126.082 241.406 125.754 241.343 125.41 241.343C124.956 241.343 124.604 241.431 124.352 241.607C124.108 241.784 123.986 242.023 123.986 242.325C123.986 242.586 124.062 242.792 124.213 242.943C124.373 243.094 124.625 243.212 124.969 243.296L126.04 243.56C126.636 243.686 127.073 243.896 127.35 244.19C127.636 244.476 127.779 244.841 127.779 245.286C127.779 245.832 127.556 246.269 127.111 246.597C126.666 246.924 126.061 247.088 125.297 247.088ZM129.405 249.722V242.439C129.405 242.145 129.397 241.851 129.38 241.557C129.372 241.254 129.347 240.956 129.305 240.662H130.275L130.388 241.973L130.287 242.162C130.43 241.632 130.703 241.225 131.106 240.939C131.51 240.654 131.997 240.511 132.568 240.511C133.122 240.511 133.61 240.65 134.03 240.927C134.458 241.204 134.79 241.59 135.025 242.086C135.269 242.582 135.39 243.161 135.39 243.825C135.39 244.488 135.269 245.068 135.025 245.564C134.79 246.051 134.462 246.429 134.042 246.698C133.622 246.958 133.131 247.088 132.568 247.088C131.997 247.088 131.51 246.945 131.106 246.66C130.703 246.374 130.43 245.967 130.287 245.438L130.426 245.312V249.722H129.405ZM132.379 246.244C132.992 246.244 133.471 246.034 133.815 245.614C134.16 245.194 134.332 244.598 134.332 243.825C134.332 243.052 134.16 242.451 133.815 242.023C133.471 241.586 132.992 241.368 132.379 241.368C131.749 241.368 131.266 241.578 130.93 241.998C130.594 242.418 130.426 243.018 130.426 243.8C130.426 244.581 130.594 245.186 130.93 245.614C131.266 246.034 131.749 246.244 132.379 246.244ZM142.152 246.244C141.874 246.504 141.517 246.71 141.081 246.861C140.652 247.013 140.211 247.088 139.758 247.088C139.102 247.088 138.535 246.958 138.057 246.698C137.586 246.437 137.221 246.063 136.96 245.576C136.708 245.081 136.582 244.493 136.582 243.812C136.582 243.157 136.708 242.582 136.96 242.086C137.212 241.59 137.561 241.204 138.006 240.927C138.46 240.65 138.981 240.511 139.569 240.511C140.131 240.511 140.614 240.637 141.018 240.889C141.421 241.133 141.727 241.485 141.937 241.947C142.156 242.409 142.265 242.964 142.265 243.611V243.8H137.477V243.132H141.685L141.358 243.598C141.375 242.859 141.228 242.292 140.917 241.897C140.614 241.502 140.169 241.305 139.581 241.305C138.968 241.305 138.485 241.523 138.132 241.96C137.788 242.388 137.616 242.985 137.616 243.749C137.616 244.572 137.796 245.194 138.157 245.614C138.527 246.034 139.065 246.244 139.77 246.244C140.14 246.244 140.493 246.185 140.829 246.068C141.173 245.942 141.501 245.753 141.811 245.501L142.152 246.244ZM146.473 247.088C145.851 247.088 145.314 246.954 144.86 246.685C144.406 246.416 144.054 246.038 143.802 245.551C143.558 245.064 143.436 244.488 143.436 243.825C143.436 243.17 143.562 242.594 143.814 242.099C144.066 241.595 144.423 241.204 144.885 240.927C145.347 240.65 145.893 240.511 146.523 240.511C146.952 240.511 147.363 240.587 147.758 240.738C148.161 240.881 148.493 241.082 148.753 241.343L148.413 242.099C148.102 241.855 147.796 241.674 147.493 241.557C147.199 241.431 146.893 241.368 146.574 241.368C145.935 241.368 145.427 241.582 145.049 242.01C144.679 242.439 144.495 243.044 144.495 243.825C144.495 244.598 144.679 245.194 145.049 245.614C145.419 246.034 145.927 246.244 146.574 246.244C146.884 246.244 147.191 246.185 147.493 246.068C147.796 245.942 148.102 245.757 148.413 245.513L148.753 246.269C148.485 246.521 148.144 246.723 147.733 246.874C147.33 247.017 146.91 247.088 146.473 247.088ZM149.17 241.469V240.662H153.24V241.469H149.17ZM153.215 246.093V246.962C153.072 247.004 152.929 247.034 152.787 247.05C152.652 247.076 152.501 247.088 152.333 247.088C151.745 247.088 151.275 246.92 150.922 246.584C150.577 246.248 150.405 245.744 150.405 245.072V239.037L151.426 238.671V244.934C151.426 245.27 151.472 245.53 151.564 245.715C151.665 245.9 151.8 246.03 151.968 246.105C152.136 246.173 152.325 246.206 152.535 246.206C152.661 246.206 152.774 246.198 152.875 246.181C152.976 246.164 153.089 246.135 153.215 246.093ZM156.902 247.088C156.339 247.088 155.843 246.958 155.415 246.698C154.995 246.429 154.667 246.051 154.432 245.564C154.205 245.068 154.092 244.488 154.092 243.825C154.092 243.161 154.21 242.582 154.445 242.086C154.68 241.59 155.008 241.204 155.428 240.927C155.856 240.65 156.347 240.511 156.902 240.511C157.481 240.511 157.973 240.654 158.376 240.939C158.779 241.225 159.052 241.632 159.195 242.162L159.044 242.262V240.662H160.052V247H159.044V245.362L159.195 245.438C159.052 245.967 158.779 246.374 158.376 246.66C157.973 246.945 157.481 247.088 156.902 247.088ZM157.103 246.244C157.725 246.244 158.204 246.034 158.54 245.614C158.876 245.186 159.044 244.581 159.044 243.8C159.044 243.018 158.872 242.418 158.527 241.998C158.191 241.578 157.717 241.368 157.103 241.368C156.482 241.368 155.995 241.586 155.642 242.023C155.297 242.451 155.125 243.052 155.125 243.825C155.125 244.598 155.297 245.194 155.642 245.614C155.995 246.034 156.482 246.244 157.103 246.244ZM161.13 241.469V240.662H165.2V241.469H161.13ZM165.175 246.093V246.962C165.032 247.004 164.889 247.034 164.747 247.05C164.612 247.076 164.461 247.088 164.293 247.088C163.705 247.088 163.235 246.92 162.882 246.584C162.537 246.248 162.365 245.744 162.365 245.072V239.037L163.386 238.671V244.934C163.386 245.27 163.432 245.53 163.524 245.715C163.625 245.9 163.76 246.03 163.928 246.105C164.096 246.173 164.285 246.206 164.495 246.206C164.621 246.206 164.734 246.198 164.835 246.181C164.936 246.164 165.049 246.135 165.175 246.093ZM169.051 247.088C168.446 247.088 167.917 246.954 167.463 246.685C167.018 246.416 166.67 246.038 166.418 245.551C166.174 245.055 166.052 244.472 166.052 243.8C166.052 243.136 166.174 242.556 166.418 242.061C166.67 241.565 167.018 241.183 167.463 240.914C167.917 240.645 168.446 240.511 169.051 240.511C169.656 240.511 170.181 240.645 170.626 240.914C171.08 241.183 171.428 241.565 171.672 242.061C171.924 242.556 172.05 243.136 172.05 243.8C172.05 244.472 171.924 245.055 171.672 245.551C171.428 246.038 171.08 246.416 170.626 246.685C170.181 246.954 169.656 247.088 169.051 247.088ZM169.051 246.244C169.673 246.244 170.151 246.038 170.487 245.627C170.832 245.207 171.004 244.598 171.004 243.8C171.004 243.018 170.832 242.418 170.487 241.998C170.143 241.578 169.664 241.368 169.051 241.368C168.438 241.368 167.955 241.578 167.602 241.998C167.258 242.418 167.085 243.018 167.085 243.8C167.085 244.598 167.253 245.207 167.589 245.627C167.934 246.038 168.421 246.244 169.051 246.244ZM173.641 247V242.439C173.641 242.145 173.632 241.851 173.616 241.557C173.607 241.254 173.582 240.956 173.54 240.662H174.51L174.649 242.225L174.51 242.187C174.628 241.632 174.88 241.217 175.266 240.939C175.661 240.654 176.102 240.511 176.589 240.511C176.698 240.511 176.799 240.519 176.892 240.536C176.992 240.545 177.085 240.561 177.169 240.587L177.144 241.519C176.95 241.452 176.728 241.418 176.476 241.418C176.039 241.418 175.686 241.515 175.417 241.708C175.157 241.901 174.964 242.149 174.838 242.451C174.72 242.745 174.661 243.056 174.661 243.384V247H173.641ZM184.112 247.088C183.507 247.088 182.978 246.954 182.524 246.685C182.079 246.416 181.731 246.038 181.479 245.551C181.235 245.055 181.113 244.472 181.113 243.8C181.113 243.136 181.235 242.556 181.479 242.061C181.731 241.565 182.079 241.183 182.524 240.914C182.978 240.645 183.507 240.511 184.112 240.511C184.717 240.511 185.242 240.645 185.687 240.914C186.141 241.183 186.489 241.565 186.733 242.061C186.985 242.556 187.111 243.136 187.111 243.8C187.111 244.472 186.985 245.055 186.733 245.551C186.489 246.038 186.141 246.416 185.687 246.685C185.242 246.954 184.717 247.088 184.112 247.088ZM184.112 246.244C184.734 246.244 185.212 246.038 185.548 245.627C185.893 245.207 186.065 244.598 186.065 243.8C186.065 243.018 185.893 242.418 185.548 241.998C185.204 241.578 184.725 241.368 184.112 241.368C183.499 241.368 183.016 241.578 182.663 241.998C182.319 242.418 182.146 243.018 182.146 243.8C182.146 244.598 182.314 245.207 182.65 245.627C182.995 246.038 183.482 246.244 184.112 246.244ZM188.702 247V242.439C188.702 242.145 188.693 241.851 188.676 241.557C188.668 241.254 188.643 240.956 188.601 240.662H189.571L189.684 241.973L189.558 242.073C189.735 241.561 190.029 241.175 190.44 240.914C190.852 240.645 191.327 240.511 191.864 240.511C193.385 240.511 194.145 241.347 194.145 243.018V247H193.124V243.069C193.124 242.481 193.007 242.052 192.771 241.784C192.536 241.506 192.167 241.368 191.663 241.368C191.075 241.368 190.604 241.548 190.251 241.91C189.899 242.271 189.722 242.758 189.722 243.371V247H188.702ZM201.789 247.088C201.227 247.088 200.731 246.958 200.303 246.698C199.883 246.429 199.555 246.051 199.32 245.564C199.093 245.068 198.98 244.488 198.98 243.825C198.98 243.161 199.097 242.582 199.332 242.086C199.568 241.59 199.895 241.204 200.315 240.927C200.744 240.65 201.235 240.511 201.789 240.511C202.369 240.511 202.86 240.654 203.264 240.939C203.667 241.225 203.94 241.632 204.083 242.162L203.931 242.262V240.662H204.939V247H203.931V245.362L204.083 245.438C203.94 245.967 203.667 246.374 203.264 246.66C202.86 246.945 202.369 247.088 201.789 247.088ZM201.991 246.244C202.613 246.244 203.091 246.034 203.427 245.614C203.763 245.186 203.931 244.581 203.931 243.8C203.931 243.018 203.759 242.418 203.415 241.998C203.079 241.578 202.604 241.368 201.991 241.368C201.369 241.368 200.882 241.586 200.529 242.023C200.185 242.451 200.013 243.052 200.013 243.825C200.013 244.598 200.185 245.194 200.529 245.614C200.882 246.034 201.369 246.244 201.991 246.244ZM99.505 266V256.726H100.526V260.947L100.362 261.073C100.538 260.561 100.832 260.175 101.244 259.914C101.655 259.645 102.13 259.511 102.668 259.511C104.188 259.511 104.948 260.347 104.948 262.018V266H103.928V262.069C103.928 261.481 103.81 261.052 103.575 260.784C103.34 260.506 102.97 260.368 102.466 260.368C101.878 260.368 101.408 260.548 101.055 260.91C100.702 261.271 100.526 261.758 100.526 262.371V266H99.505ZM106.875 266V259.662H107.896V266H106.875ZM106.775 256.978H108.022V258.138H106.775V256.978ZM109.878 266V256.726H110.898V266H109.878ZM112.88 266V256.726H113.901V266H112.88ZM118.025 266.088C116.958 266.088 116.114 265.815 115.492 265.269L115.832 264.513C116.168 264.774 116.513 264.967 116.865 265.093C117.227 265.21 117.626 265.269 118.062 265.269C118.541 265.269 118.902 265.189 119.146 265.03C119.398 264.862 119.524 264.622 119.524 264.312C119.524 264.06 119.44 263.862 119.272 263.719C119.104 263.568 118.827 263.446 118.44 263.354L117.369 263.102C116.84 262.984 116.429 262.774 116.135 262.472C115.849 262.17 115.706 261.808 115.706 261.388C115.706 261.019 115.807 260.695 116.009 260.418C116.21 260.133 116.492 259.91 116.853 259.75C117.214 259.591 117.642 259.511 118.138 259.511C118.583 259.511 119.003 259.582 119.398 259.725C119.793 259.868 120.125 260.074 120.393 260.343L120.053 261.086C119.751 260.834 119.44 260.649 119.121 260.532C118.81 260.406 118.482 260.343 118.138 260.343C117.684 260.343 117.332 260.431 117.08 260.607C116.836 260.784 116.714 261.023 116.714 261.325C116.714 261.586 116.79 261.792 116.941 261.943C117.101 262.094 117.353 262.212 117.697 262.296L118.768 262.56C119.364 262.686 119.801 262.896 120.078 263.19C120.364 263.476 120.507 263.841 120.507 264.286C120.507 264.832 120.284 265.269 119.839 265.597C119.394 265.924 118.789 266.088 118.025 266.088ZM122.133 266V259.662H123.154V266H122.133ZM122.032 256.978H123.28V258.138H122.032V256.978ZM130.717 266H129.709V264.299L129.861 264.438C129.718 264.967 129.445 265.374 129.042 265.66C128.638 265.945 128.147 266.088 127.567 266.088C127.013 266.088 126.522 265.954 126.093 265.685C125.673 265.408 125.346 265.021 125.11 264.526C124.875 264.022 124.758 263.438 124.758 262.774C124.758 262.111 124.871 261.535 125.098 261.048C125.333 260.561 125.661 260.183 126.081 259.914C126.509 259.645 127.005 259.511 127.567 259.511C128.147 259.511 128.638 259.658 129.042 259.952C129.445 260.238 129.718 260.641 129.861 261.162L129.697 261.288V256.726H130.717V266ZM127.769 265.244C128.382 265.244 128.857 265.034 129.193 264.614C129.537 264.186 129.709 263.581 129.709 262.8C129.709 262.027 129.541 261.43 129.205 261.01C128.869 260.582 128.391 260.368 127.769 260.368C127.147 260.368 126.66 260.578 126.307 260.998C125.963 261.418 125.791 262.01 125.791 262.774C125.791 263.556 125.963 264.165 126.307 264.601C126.66 265.03 127.147 265.244 127.769 265.244ZM137.882 265.244C137.605 265.504 137.248 265.71 136.811 265.861C136.383 266.013 135.942 266.088 135.488 266.088C134.833 266.088 134.266 265.958 133.787 265.698C133.317 265.437 132.951 265.063 132.691 264.576C132.439 264.081 132.313 263.493 132.313 262.812C132.313 262.157 132.439 261.582 132.691 261.086C132.943 260.59 133.291 260.204 133.737 259.927C134.19 259.65 134.711 259.511 135.299 259.511C135.862 259.511 136.345 259.637 136.748 259.889C137.151 260.133 137.458 260.485 137.668 260.947C137.886 261.409 137.995 261.964 137.995 262.611V262.8H133.207V262.132H137.416L137.088 262.598C137.105 261.859 136.958 261.292 136.647 260.897C136.345 260.502 135.9 260.305 135.312 260.305C134.698 260.305 134.215 260.523 133.863 260.96C133.518 261.388 133.346 261.985 133.346 262.749C133.346 263.572 133.527 264.194 133.888 264.614C134.257 265.034 134.795 265.244 135.501 265.244C135.87 265.244 136.223 265.185 136.559 265.068C136.903 264.942 137.231 264.753 137.542 264.501L137.882 265.244ZM139.368 264.702H140.666V266H139.368V264.702Z" fill="#253757"/>
<g opacity="0.1">
<circle cx="120" cy="139" r="24" fill="#C4C4C4"/>
<circle cx="120" cy="139" r="24" fill="#03D542"/>
<circle cx="120" cy="139" r="24" fill="url(#paint1_linear)" fill-opacity="0.25"/>
</g>
<path d="M125.088 161.32C126.741 161.8 128.008 162.64 128.888 163.84C129.794 165.04 130.248 166.507 130.248 168.24C130.248 169.893 129.794 171.333 128.888 172.56C128.008 173.76 126.728 174.693 125.048 175.36C123.368 176 121.408 176.32 119.168 176.32C117.168 176.32 115.221 176.053 113.328 175.52C111.461 174.96 109.968 174.213 108.848 173.28L111.208 167.96C113.688 169.667 116.221 170.52 118.808 170.52C120.408 170.52 121.541 170.293 122.208 169.84C122.874 169.36 123.208 168.56 123.208 167.44C123.208 166.373 122.874 165.613 122.208 165.16C121.568 164.707 120.488 164.48 118.968 164.48H114.528V158.72H118.208C119.701 158.72 120.768 158.52 121.408 158.12C122.074 157.693 122.408 157.013 122.408 156.08C122.408 155.067 122.088 154.293 121.448 153.76C120.834 153.227 119.968 152.96 118.848 152.96C117.701 152.96 116.488 153.187 115.208 153.64C113.954 154.067 112.754 154.693 111.608 155.52L109.248 150.2C110.394 149.293 111.888 148.56 113.728 148C115.594 147.44 117.474 147.16 119.368 147.16C121.394 147.16 123.168 147.48 124.688 148.12C126.208 148.76 127.381 149.68 128.208 150.88C129.061 152.053 129.488 153.427 129.488 155C129.514 156.493 129.141 157.787 128.368 158.88C127.594 159.973 126.501 160.787 125.088 161.32Z" fill="#03D542"/>
<path d="M125.088 161.32C126.741 161.8 128.008 162.64 128.888 163.84C129.794 165.04 130.248 166.507 130.248 168.24C130.248 169.893 129.794 171.333 128.888 172.56C128.008 173.76 126.728 174.693 125.048 175.36C123.368 176 121.408 176.32 119.168 176.32C117.168 176.32 115.221 176.053 113.328 175.52C111.461 174.96 109.968 174.213 108.848 173.28L111.208 167.96C113.688 169.667 116.221 170.52 118.808 170.52C120.408 170.52 121.541 170.293 122.208 169.84C122.874 169.36 123.208 168.56 123.208 167.44C123.208 166.373 122.874 165.613 122.208 165.16C121.568 164.707 120.488 164.48 118.968 164.48H114.528V158.72H118.208C119.701 158.72 120.768 158.52 121.408 158.12C122.074 157.693 122.408 157.013 122.408 156.08C122.408 155.067 122.088 154.293 121.448 153.76C120.834 153.227 119.968 152.96 118.848 152.96C117.701 152.96 116.488 153.187 115.208 153.64C113.954 154.067 112.754 154.693 111.608 155.52L109.248 150.2C110.394 149.293 111.888 148.56 113.728 148C115.594 147.44 117.474 147.16 119.368 147.16C121.394 147.16 123.168 147.48 124.688 148.12C126.208 148.76 127.381 149.68 128.208 150.88C129.061 152.053 129.488 153.427 129.488 155C129.514 156.493 129.141 157.787 128.368 158.88C127.594 159.973 126.501 160.787 125.088 161.32Z" fill="url(#paint2_linear)" fill-opacity="0.25"/>
<defs>
<filter id="filter0_d" x="0" y="67" width="272" height="288" filterUnits="userSpaceOnUse" color-interpolation-filters="sRGB">
<feFlood flood-opacity="0" result="BackgroundImageFix"/>
<feColorMatrix in="SourceAlpha" type="matrix" values="0 0 0 0 0 0 0 0 0 0 0 0 0 0 0 0 0 0 127 0"/>
<feOffset dx="16" dy="16"/>
<feGaussianBlur stdDeviation="8"/>
<feColorMatrix type="matrix" values="0 0 0 0 0 0 0 0 0 0 0 0 0 0 0 0 0 0 0.02 0"/>
<feBlend mode="normal" in2="BackgroundImageFix" result="effect1_dropShadow"/>
<feBlend mode="normal" in="SourceGraphic" in2="effect1_dropShadow" result="shape"/>
</filter>
<linearGradient id="paint0_linear" x1="234.616" y1="382.827" x2="234.616" y2="398.827" gradientUnits="userSpaceOnUse">
<stop stop-color="white"/>
<stop offset="1" stop-color="white" stop-opacity="0"/>
</linearGradient>
<linearGradient id="paint1_linear" x1="120" y1="115" x2="120" y2="163" gradientUnits="userSpaceOnUse">
<stop stop-color="white"/>
<stop offset="1" stop-color="white" stop-opacity="0"/>
</linearGradient>
<linearGradient id="paint2_linear" x1="108" y1="173.5" x2="132" y2="173.5" gradientUnits="userSpaceOnUse">
<stop stop-color="white"/>
<stop offset="1" stop-color="white" stop-opacity="0"/>
</linearGradient>
</defs>
</svg>
