<svg width="272" height="390" viewBox="0 0 272 390" fill="none" xmlns="http://www.w3.org/2000/svg">
<rect x="23.8828" y="382.905" width="422.339" height="16" rx="8" transform="rotate(-65 23.8828 382.905)" fill="#F25656"/>
<rect x="23.8828" y="382.905" width="422.339" height="16" rx="8" transform="rotate(-65 23.8828 382.905)" fill="url(#paint0_linear)" fill-opacity="0.25"/>
<g filter="url(#filter0_d)">
<rect y="67.5537" width="240" height="256" fill="white"/>
</g>
<path d="M44.1983 209.555V200.583H47.8019C48.7091 200.583 49.4189 200.789 49.9313 201.201C50.4437 201.604 50.6999 202.179 50.6999 202.927C50.6999 203.448 50.5571 203.889 50.2715 204.25C49.9943 204.603 49.6079 204.855 49.1123 205.006V204.905C49.6751 205.014 50.1161 205.262 50.4353 205.649C50.7545 206.035 50.9141 206.522 50.9141 207.11C50.9141 207.9 50.6537 208.505 50.1329 208.925C49.6121 209.345 48.8771 209.555 47.9279 209.555H44.1983ZM45.2189 208.698H47.8397C48.5453 208.698 49.0619 208.568 49.3895 208.307C49.7255 208.047 49.8935 207.639 49.8935 207.085C49.8935 206.539 49.7255 206.127 49.3895 205.85C49.0535 205.573 48.5369 205.434 47.8397 205.434H45.2189V208.698ZM45.2189 204.565H47.6381C48.3185 204.565 48.8267 204.431 49.1627 204.162C49.5071 203.893 49.6793 203.498 49.6793 202.977C49.6793 202.465 49.5113 202.083 49.1753 201.831C48.8393 201.57 48.3269 201.44 47.6381 201.44H45.2189V204.565ZM52.3463 212.415L52.1321 211.621C52.5185 211.529 52.8419 211.419 53.1023 211.293C53.3711 211.176 53.5937 211.02 53.7701 210.827C53.9549 210.634 54.1145 210.378 54.2489 210.059L54.6521 209.126L54.8789 208.811L57.1973 203.217H58.2179L55.2569 210.134C55.0301 210.647 54.7739 211.054 54.4883 211.356C54.2027 211.667 53.8793 211.902 53.5181 212.062C53.1653 212.222 52.7747 212.339 52.3463 212.415ZM54.6647 209.882L51.8171 203.217H52.8881L55.1813 208.811L54.6647 209.882ZM61.7332 204.023V203.217H65.803V204.023H61.7332ZM65.7778 208.647V209.517C65.635 209.559 65.4922 209.588 65.3494 209.605C65.215 209.63 65.0638 209.643 64.8958 209.643C64.3078 209.643 63.8374 209.475 63.4846 209.139C63.1402 208.803 62.968 208.299 62.968 207.627V201.591L63.9886 201.226V207.488C63.9886 207.824 64.0348 208.085 64.1272 208.269C64.228 208.454 64.3624 208.584 64.5304 208.66C64.6984 208.727 64.8874 208.761 65.0974 208.761C65.2234 208.761 65.3368 208.752 65.4376 208.736C65.5384 208.719 65.6518 208.689 65.7778 208.647ZM67.0329 209.555V200.281H68.0535V204.502L67.8897 204.628C68.0661 204.116 68.3601 203.729 68.7717 203.469C69.1833 203.2 69.6579 203.066 70.1955 203.066C71.7159 203.066 72.4761 203.901 72.4761 205.573V209.555H71.4555V205.623C71.4555 205.035 71.3379 204.607 71.1027 204.338C70.8675 204.061 70.4979 203.922 69.9939 203.922C69.4059 203.922 68.9355 204.103 68.5827 204.464C68.2299 204.825 68.0535 205.313 68.0535 205.926V209.555H67.0329ZM79.5946 208.799C79.3174 209.059 78.9604 209.265 78.5236 209.416C78.0952 209.567 77.6542 209.643 77.2006 209.643C76.5454 209.643 75.9784 209.513 75.4996 209.252C75.0292 208.992 74.6638 208.618 74.4034 208.131C74.1514 207.635 74.0254 207.047 74.0254 206.367C74.0254 205.712 74.1514 205.136 74.4034 204.641C74.6554 204.145 75.004 203.759 75.4492 203.481C75.9028 203.204 76.4236 203.066 77.0116 203.066C77.5744 203.066 78.0574 203.192 78.4606 203.444C78.8638 203.687 79.1704 204.04 79.3804 204.502C79.5988 204.964 79.708 205.518 79.708 206.165V206.354H74.92V205.686H79.1284L78.8008 206.153C78.8176 205.413 78.6706 204.846 78.3598 204.452C78.0574 204.057 77.6122 203.859 77.0242 203.859C76.411 203.859 75.928 204.078 75.5752 204.515C75.2308 204.943 75.0586 205.539 75.0586 206.304C75.0586 207.127 75.2392 207.749 75.6004 208.169C75.97 208.589 76.5076 208.799 77.2132 208.799C77.5828 208.799 77.9356 208.74 78.2716 208.622C78.616 208.496 78.9436 208.307 79.2544 208.055L79.5946 208.799ZM86.6845 209.643C85.6177 209.643 84.7735 209.37 84.1519 208.824L84.4921 208.068C84.8281 208.328 85.1725 208.521 85.5253 208.647C85.8865 208.765 86.2855 208.824 86.7223 208.824C87.2011 208.824 87.5623 208.744 87.8059 208.584C88.0579 208.416 88.1839 208.177 88.1839 207.866C88.1839 207.614 88.0999 207.417 87.9319 207.274C87.7639 207.123 87.4867 207.001 87.1003 206.909L86.0293 206.657C85.5001 206.539 85.0885 206.329 84.7945 206.027C84.5089 205.724 84.3661 205.363 84.3661 204.943C84.3661 204.573 84.4669 204.25 84.6685 203.973C84.8701 203.687 85.1515 203.465 85.5127 203.305C85.8739 203.145 86.3023 203.066 86.7979 203.066C87.2431 203.066 87.6631 203.137 88.0579 203.28C88.4527 203.423 88.7845 203.628 89.0533 203.897L88.7131 204.641C88.4107 204.389 88.0999 204.204 87.7807 204.086C87.4699 203.96 87.1423 203.897 86.7979 203.897C86.3443 203.897 85.9915 203.985 85.7395 204.162C85.4959 204.338 85.3741 204.578 85.3741 204.88C85.3741 205.14 85.4497 205.346 85.6009 205.497C85.7605 205.649 86.0125 205.766 86.3569 205.85L87.4279 206.115C88.0243 206.241 88.4611 206.451 88.7383 206.745C89.0239 207.03 89.1667 207.396 89.1667 207.841C89.1667 208.387 88.9441 208.824 88.4989 209.151C88.0537 209.479 87.4489 209.643 86.6845 209.643ZM93.225 209.643C92.6622 209.643 92.1666 209.513 91.7382 209.252C91.3182 208.983 90.9906 208.605 90.7554 208.118C90.5286 207.623 90.4152 207.043 90.4152 206.379C90.4152 205.716 90.5328 205.136 90.768 204.641C91.0032 204.145 91.3308 203.759 91.7508 203.481C92.1792 203.204 92.6706 203.066 93.225 203.066C93.8046 203.066 94.296 203.208 94.6992 203.494C95.1024 203.78 95.3754 204.187 95.5182 204.716L95.367 204.817V203.217H96.375V209.555H95.367V207.917L95.5182 207.992C95.3754 208.521 95.1024 208.929 94.6992 209.214C94.296 209.5 93.8046 209.643 93.225 209.643ZM93.4266 208.799C94.0482 208.799 94.527 208.589 94.863 208.169C95.199 207.74 95.367 207.135 95.367 206.354C95.367 205.573 95.1948 204.972 94.8504 204.552C94.5144 204.132 94.0398 203.922 93.4266 203.922C92.805 203.922 92.3178 204.141 91.965 204.578C91.6206 205.006 91.4484 205.607 91.4484 206.379C91.4484 207.152 91.6206 207.749 91.965 208.169C92.3178 208.589 92.805 208.799 93.4266 208.799ZM98.3483 209.555V204.993C98.3483 204.699 98.3399 204.405 98.3231 204.111C98.3147 203.809 98.2895 203.511 98.2475 203.217H99.2177L99.3311 204.527L99.2051 204.615C99.3563 204.12 99.6167 203.738 99.9863 203.469C100.364 203.2 100.81 203.066 101.322 203.066C101.935 203.066 102.41 203.217 102.746 203.519C103.09 203.822 103.309 204.284 103.401 204.905L103.099 204.741C103.233 204.229 103.502 203.822 103.905 203.519C104.317 203.217 104.808 203.066 105.379 203.066C106.076 203.066 106.601 203.276 106.954 203.696C107.307 204.107 107.483 204.733 107.483 205.573V209.555H106.463V205.623C106.463 205.035 106.358 204.607 106.148 204.338C105.938 204.061 105.606 203.922 105.152 203.922C104.623 203.922 104.203 204.103 103.892 204.464C103.59 204.825 103.439 205.317 103.439 205.938V209.555H102.418V205.623C102.418 205.035 102.309 204.607 102.091 204.338C101.881 204.061 101.549 203.922 101.095 203.922C100.558 203.922 100.133 204.103 99.8225 204.464C99.5201 204.825 99.3689 205.317 99.3689 205.938V209.555H98.3483ZM114.614 208.799C114.337 209.059 113.98 209.265 113.543 209.416C113.114 209.567 112.673 209.643 112.22 209.643C111.565 209.643 110.998 209.513 110.519 209.252C110.048 208.992 109.683 208.618 109.423 208.131C109.171 207.635 109.045 207.047 109.045 206.367C109.045 205.712 109.171 205.136 109.423 204.641C109.675 204.145 110.023 203.759 110.468 203.481C110.922 203.204 111.443 203.066 112.031 203.066C112.594 203.066 113.077 203.192 113.48 203.444C113.883 203.687 114.19 204.04 114.4 204.502C114.618 204.964 114.727 205.518 114.727 206.165V206.354H109.939V205.686H114.148L113.82 206.153C113.837 205.413 113.69 204.846 113.379 204.452C113.077 204.057 112.631 203.859 112.043 203.859C111.43 203.859 110.947 204.078 110.594 204.515C110.25 204.943 110.078 205.539 110.078 206.304C110.078 207.127 110.258 207.749 110.62 208.169C110.989 208.589 111.527 208.799 112.232 208.799C112.602 208.799 112.955 208.74 113.291 208.622C113.635 208.496 113.963 208.307 114.274 208.055L114.614 208.799ZM119.562 209.555V203.217H120.582V209.555H119.562ZM119.461 200.533H120.708V201.692H119.461V200.533ZM122.564 209.555V200.281H123.585V209.555H122.564ZM125.566 209.555V200.281H126.587V209.555H125.566ZM130.811 209.643C130.055 209.643 129.484 209.433 129.098 209.013C128.72 208.593 128.531 207.971 128.531 207.148V203.217H129.551V207.123C129.551 207.694 129.669 208.114 129.904 208.383C130.139 208.652 130.496 208.786 130.975 208.786C131.538 208.786 131.992 208.605 132.336 208.244C132.68 207.883 132.853 207.4 132.853 206.795V203.217H133.873V209.555H132.878V208.181L133.029 208.106C132.861 208.61 132.575 208.992 132.172 209.252C131.777 209.513 131.324 209.643 130.811 209.643ZM137.983 209.643C136.916 209.643 136.072 209.37 135.45 208.824L135.79 208.068C136.126 208.328 136.471 208.521 136.824 208.647C137.185 208.765 137.584 208.824 138.021 208.824C138.499 208.824 138.861 208.744 139.104 208.584C139.356 208.416 139.482 208.177 139.482 207.866C139.482 207.614 139.398 207.417 139.23 207.274C139.062 207.123 138.785 207.001 138.399 206.909L137.328 206.657C136.798 206.539 136.387 206.329 136.093 206.027C135.807 205.724 135.664 205.363 135.664 204.943C135.664 204.573 135.765 204.25 135.967 203.973C136.168 203.687 136.45 203.465 136.811 203.305C137.172 203.145 137.601 203.066 138.096 203.066C138.541 203.066 138.961 203.137 139.356 203.28C139.751 203.423 140.083 203.628 140.352 203.897L140.011 204.641C139.709 204.389 139.398 204.204 139.079 204.086C138.768 203.96 138.441 203.897 138.096 203.897C137.643 203.897 137.29 203.985 137.038 204.162C136.794 204.338 136.672 204.578 136.672 204.88C136.672 205.14 136.748 205.346 136.899 205.497C137.059 205.649 137.311 205.766 137.655 205.85L138.726 206.115C139.323 206.241 139.759 206.451 140.037 206.745C140.322 207.03 140.465 207.396 140.465 207.841C140.465 208.387 140.242 208.824 139.797 209.151C139.352 209.479 138.747 209.643 137.983 209.643ZM142.091 209.555V203.217H143.112V209.555H142.091ZM141.991 200.533H143.238V201.692H141.991V200.533ZM147.715 209.643C147.11 209.643 146.581 209.508 146.127 209.24C145.682 208.971 145.333 208.593 145.081 208.106C144.838 207.61 144.716 207.026 144.716 206.354C144.716 205.691 144.838 205.111 145.081 204.615C145.333 204.12 145.682 203.738 146.127 203.469C146.581 203.2 147.11 203.066 147.715 203.066C148.319 203.066 148.844 203.2 149.29 203.469C149.743 203.738 150.092 204.12 150.335 204.615C150.587 205.111 150.713 205.691 150.713 206.354C150.713 207.026 150.587 207.61 150.335 208.106C150.092 208.593 149.743 208.971 149.29 209.24C148.844 209.508 148.319 209.643 147.715 209.643ZM147.715 208.799C148.336 208.799 148.815 208.593 149.151 208.181C149.495 207.761 149.668 207.152 149.668 206.354C149.668 205.573 149.495 204.972 149.151 204.552C148.807 204.132 148.328 203.922 147.715 203.922C147.101 203.922 146.618 204.132 146.266 204.552C145.921 204.972 145.749 205.573 145.749 206.354C145.749 207.152 145.917 207.761 146.253 208.181C146.597 208.593 147.085 208.799 147.715 208.799ZM152.304 209.555V204.993C152.304 204.699 152.296 204.405 152.279 204.111C152.271 203.809 152.246 203.511 152.204 203.217H153.174L153.287 204.527L153.161 204.628C153.338 204.116 153.632 203.729 154.043 203.469C154.455 203.2 154.929 203.066 155.467 203.066C156.987 203.066 157.748 203.901 157.748 205.573V209.555H156.727V205.623C156.727 205.035 156.609 204.607 156.374 204.338C156.139 204.061 155.769 203.922 155.265 203.922C154.677 203.922 154.207 204.103 153.854 204.464C153.501 204.825 153.325 205.313 153.325 205.926V209.555H152.304ZM164.661 209.555L162.318 203.217H163.389L165.342 208.799H165.014L167.03 203.217H167.925L169.915 208.799H169.588L171.579 203.217H172.587L170.243 209.555H169.26L167.169 203.847H167.723L165.644 209.555H164.661ZM173.911 209.555V200.281H174.932V204.502L174.768 204.628C174.945 204.116 175.239 203.729 175.65 203.469C176.062 203.2 176.536 203.066 177.074 203.066C178.594 203.066 179.355 203.901 179.355 205.573V209.555H178.334V205.623C178.334 205.035 178.216 204.607 177.981 204.338C177.746 204.061 177.376 203.922 176.872 203.922C176.284 203.922 175.814 204.103 175.461 204.464C175.108 204.825 174.932 205.313 174.932 205.926V209.555H173.911ZM181.282 209.555V203.217H182.303V209.555H181.282ZM181.181 200.533H182.429V201.692H181.181V200.533ZM186.943 209.643C186.321 209.643 185.784 209.508 185.33 209.24C184.876 208.971 184.524 208.593 184.272 208.106C184.028 207.618 183.906 207.043 183.906 206.379C183.906 205.724 184.032 205.149 184.284 204.653C184.536 204.149 184.893 203.759 185.355 203.481C185.817 203.204 186.363 203.066 186.993 203.066C187.422 203.066 187.833 203.141 188.228 203.292C188.631 203.435 188.963 203.637 189.223 203.897L188.883 204.653C188.572 204.41 188.266 204.229 187.963 204.111C187.669 203.985 187.363 203.922 187.044 203.922C186.405 203.922 185.897 204.137 185.519 204.565C185.149 204.993 184.965 205.598 184.965 206.379C184.965 207.152 185.149 207.749 185.519 208.169C185.889 208.589 186.397 208.799 187.044 208.799C187.354 208.799 187.661 208.74 187.963 208.622C188.266 208.496 188.572 208.311 188.883 208.068L189.223 208.824C188.955 209.076 188.614 209.277 188.203 209.429C187.8 209.571 187.38 209.643 186.943 209.643ZM190.523 209.555V200.281H191.543V204.502L191.38 204.628C191.556 204.116 191.85 203.729 192.262 203.469C192.673 203.2 193.148 203.066 193.685 203.066C195.206 203.066 195.966 203.901 195.966 205.573V209.555H194.945V205.623C194.945 205.035 194.828 204.607 194.593 204.338C194.357 204.061 193.988 203.922 193.484 203.922C192.896 203.922 192.425 204.103 192.073 204.464C191.72 204.825 191.543 205.313 191.543 205.926V209.555H190.523ZM38.7813 228.555V219.281H39.8019V228.555H38.7813ZM41.7837 228.555V222.217H42.8043V228.555H41.7837ZM41.6829 219.533H42.9303V220.692H41.6829V219.533ZM43.8914 223.023V222.217H47.6966V223.023H43.8914ZM47.873 220.213C47.6378 220.146 47.4194 220.113 47.2178 220.113C47.0162 220.113 46.8314 220.15 46.6634 220.226C46.5038 220.293 46.3778 220.419 46.2854 220.604C46.193 220.789 46.1468 221.045 46.1468 221.373V228.555H45.1262V221.247C45.1262 220.566 45.2942 220.062 45.6302 219.735C45.9662 219.399 46.4282 219.231 47.0162 219.231C47.159 219.231 47.3018 219.239 47.4446 219.256C47.5874 219.273 47.7302 219.302 47.873 219.344V220.213ZM47.8412 223.023V222.217H51.911V223.023H47.8412ZM51.8858 227.647V228.517C51.743 228.559 51.6002 228.588 51.4574 228.605C51.323 228.63 51.1718 228.643 51.0038 228.643C50.4158 228.643 49.9454 228.475 49.5926 228.139C49.2482 227.803 49.076 227.299 49.076 226.627V220.591L50.0966 220.226V226.488C50.0966 226.824 50.1428 227.085 50.2352 227.269C50.336 227.454 50.4704 227.584 50.6384 227.66C50.8064 227.727 50.9954 227.761 51.2054 227.761C51.3314 227.761 51.4448 227.752 51.5456 227.736C51.6464 227.719 51.7598 227.689 51.8858 227.647ZM55.2829 228.643C54.2161 228.643 53.3719 228.37 52.7503 227.824L53.0905 227.068C53.4265 227.328 53.7709 227.521 54.1237 227.647C54.4849 227.765 54.8839 227.824 55.3207 227.824C55.7995 227.824 56.1607 227.744 56.4043 227.584C56.6563 227.416 56.7823 227.177 56.7823 226.866C56.7823 226.614 56.6983 226.417 56.5303 226.274C56.3623 226.123 56.0851 226.001 55.6987 225.909L54.6277 225.657C54.0985 225.539 53.6869 225.329 53.3929 225.027C53.1073 224.724 52.9645 224.363 52.9645 223.943C52.9645 223.573 53.0653 223.25 53.2669 222.973C53.4685 222.687 53.7499 222.465 54.1111 222.305C54.4723 222.145 54.9007 222.066 55.3963 222.066C55.8415 222.066 56.2615 222.137 56.6563 222.28C57.0511 222.423 57.3829 222.628 57.6517 222.897L57.3115 223.641C57.0091 223.389 56.6983 223.204 56.3791 223.086C56.0683 222.96 55.7407 222.897 55.3963 222.897C54.9427 222.897 54.5899 222.985 54.3379 223.162C54.0943 223.338 53.9725 223.578 53.9725 223.88C53.9725 224.14 54.0481 224.346 54.1993 224.497C54.3589 224.649 54.6109 224.766 54.9553 224.85L56.0263 225.115C56.6227 225.241 57.0595 225.451 57.3367 225.745C57.6223 226.03 57.7651 226.396 57.7651 226.841C57.7651 227.387 57.5425 227.824 57.0973 228.151C56.6521 228.479 56.0473 228.643 55.2829 228.643ZM61.7824 223.023V222.217H65.8522V223.023H61.7824ZM65.827 227.647V228.517C65.6842 228.559 65.5414 228.588 65.3986 228.605C65.2642 228.63 65.113 228.643 64.945 228.643C64.357 228.643 63.8866 228.475 63.5338 228.139C63.1894 227.803 63.0172 227.299 63.0172 226.627V220.591L64.0378 220.226V226.488C64.0378 226.824 64.084 227.085 64.1764 227.269C64.2772 227.454 64.4116 227.584 64.5796 227.66C64.7476 227.727 64.9366 227.761 65.1466 227.761C65.2726 227.761 65.386 227.752 65.4868 227.736C65.5876 227.719 65.701 227.689 65.827 227.647ZM67.0821 228.555V219.281H68.1027V223.502L67.9389 223.628C68.1153 223.116 68.4093 222.729 68.8209 222.469C69.2325 222.2 69.7071 222.066 70.2447 222.066C71.7651 222.066 72.5253 222.901 72.5253 224.573V228.555H71.5047V224.623C71.5047 224.035 71.3871 223.607 71.1519 223.338C70.9167 223.061 70.5471 222.922 70.0431 222.922C69.4551 222.922 68.9847 223.103 68.6319 223.464C68.2791 223.825 68.1027 224.313 68.1027 224.926V228.555H67.0821ZM79.6438 227.799C79.3666 228.059 79.0096 228.265 78.5728 228.416C78.1444 228.567 77.7034 228.643 77.2498 228.643C76.5946 228.643 76.0276 228.513 75.5488 228.252C75.0784 227.992 74.713 227.618 74.4526 227.131C74.2006 226.635 74.0746 226.047 74.0746 225.367C74.0746 224.712 74.2006 224.136 74.4526 223.641C74.7046 223.145 75.0532 222.759 75.4984 222.481C75.952 222.204 76.4728 222.066 77.0608 222.066C77.6236 222.066 78.1066 222.192 78.5098 222.444C78.913 222.687 79.2196 223.04 79.4296 223.502C79.648 223.964 79.7572 224.518 79.7572 225.165V225.354H74.9692V224.686H79.1776L78.85 225.153C78.8668 224.413 78.7198 223.846 78.409 223.452C78.1066 223.057 77.6614 222.859 77.0734 222.859C76.4602 222.859 75.9772 223.078 75.6244 223.515C75.28 223.943 75.1078 224.539 75.1078 225.304C75.1078 226.127 75.2884 226.749 75.6496 227.169C76.0192 227.589 76.5568 227.799 77.2624 227.799C77.632 227.799 77.9848 227.74 78.3208 227.622C78.6652 227.496 78.9928 227.307 79.3036 227.055L79.6438 227.799ZM84.5917 228.555V219.281H85.6123V223.502L85.4485 223.628C85.6249 223.116 85.9189 222.729 86.3305 222.469C86.7421 222.2 87.2167 222.066 87.7543 222.066C89.2747 222.066 90.0349 222.901 90.0349 224.573V228.555H89.0143V224.623C89.0143 224.035 88.8967 223.607 88.6615 223.338C88.4263 223.061 88.0567 222.922 87.5527 222.922C86.9647 222.922 86.4943 223.103 86.1415 223.464C85.7887 223.825 85.6123 224.313 85.6123 224.926V228.555H84.5917ZM94.583 228.643C93.9782 228.643 93.449 228.508 92.9954 228.24C92.5502 227.971 92.2016 227.593 91.9496 227.106C91.706 226.61 91.5842 226.026 91.5842 225.354C91.5842 224.691 91.706 224.111 91.9496 223.615C92.2016 223.12 92.5502 222.738 92.9954 222.469C93.449 222.2 93.9782 222.066 94.583 222.066C95.1878 222.066 95.7128 222.2 96.158 222.469C96.6116 222.738 96.9602 223.12 97.2038 223.615C97.4558 224.111 97.5818 224.691 97.5818 225.354C97.5818 226.026 97.4558 226.61 97.2038 227.106C96.9602 227.593 96.6116 227.971 96.158 228.24C95.7128 228.508 95.1878 228.643 94.583 228.643ZM94.583 227.799C95.2046 227.799 95.6834 227.593 96.0194 227.181C96.3638 226.761 96.536 226.152 96.536 225.354C96.536 224.573 96.3638 223.972 96.0194 223.552C95.675 223.132 95.1962 222.922 94.583 222.922C93.9698 222.922 93.4868 223.132 93.134 223.552C92.7896 223.972 92.6174 224.573 92.6174 225.354C92.6174 226.152 92.7854 226.761 93.1214 227.181C93.4658 227.593 93.953 227.799 94.583 227.799ZM99.1727 228.555V223.993C99.1727 223.699 99.1643 223.405 99.1475 223.111C99.1391 222.809 99.1139 222.511 99.0719 222.217H100.042L100.181 223.779L100.042 223.741C100.16 223.187 100.412 222.771 100.798 222.494C101.193 222.208 101.634 222.066 102.121 222.066C102.23 222.066 102.331 222.074 102.424 222.091C102.524 222.099 102.617 222.116 102.701 222.141L102.676 223.074C102.482 223.006 102.26 222.973 102.008 222.973C101.571 222.973 101.218 223.069 100.949 223.263C100.689 223.456 100.496 223.704 100.37 224.006C100.252 224.3 100.193 224.611 100.193 224.938V228.555H99.1727ZM103.738 228.555V222.217H104.758V228.555H103.738ZM103.637 219.533H104.884V220.692H103.637V219.533ZM106.387 228.555V227.849L110.722 222.607L110.886 223.023H106.526V222.217H111.604V222.96L107.295 228.177L107.156 227.748H111.742V228.555H106.387ZM115.735 228.643C115.13 228.643 114.601 228.508 114.147 228.24C113.702 227.971 113.353 227.593 113.101 227.106C112.858 226.61 112.736 226.026 112.736 225.354C112.736 224.691 112.858 224.111 113.101 223.615C113.353 223.12 113.702 222.738 114.147 222.469C114.601 222.2 115.13 222.066 115.735 222.066C116.34 222.066 116.865 222.2 117.31 222.469C117.763 222.738 118.112 223.12 118.356 223.615C118.608 224.111 118.734 224.691 118.734 225.354C118.734 226.026 118.608 226.61 118.356 227.106C118.112 227.593 117.763 227.971 117.31 228.24C116.865 228.508 116.34 228.643 115.735 228.643ZM115.735 227.799C116.356 227.799 116.835 227.593 117.171 227.181C117.516 226.761 117.688 226.152 117.688 225.354C117.688 224.573 117.516 223.972 117.171 223.552C116.827 223.132 116.348 222.922 115.735 222.922C115.122 222.922 114.639 223.132 114.286 223.552C113.941 223.972 113.769 224.573 113.769 225.354C113.769 226.152 113.937 226.761 114.273 227.181C114.618 227.593 115.105 227.799 115.735 227.799ZM120.324 228.555V223.993C120.324 223.699 120.316 223.405 120.299 223.111C120.291 222.809 120.266 222.511 120.224 222.217H121.194L121.307 223.527L121.181 223.628C121.358 223.116 121.652 222.729 122.063 222.469C122.475 222.2 122.949 222.066 123.487 222.066C125.007 222.066 125.768 222.901 125.768 224.573V228.555H124.747V224.623C124.747 224.035 124.629 223.607 124.394 223.338C124.159 223.061 123.789 222.922 123.285 222.922C122.697 222.922 122.227 223.103 121.874 223.464C121.521 223.825 121.345 224.313 121.345 224.926V228.555H120.324ZM133.601 228.643C132.996 228.643 132.467 228.508 132.014 228.24C131.568 227.971 131.22 227.593 130.968 227.106C130.724 226.61 130.602 226.026 130.602 225.354C130.602 224.691 130.724 224.111 130.968 223.615C131.22 223.12 131.568 222.738 132.014 222.469C132.467 222.2 132.996 222.066 133.601 222.066C134.206 222.066 134.731 222.2 135.176 222.469C135.63 222.738 135.978 223.12 136.222 223.615C136.474 224.111 136.6 224.691 136.6 225.354C136.6 226.026 136.474 226.61 136.222 227.106C135.978 227.593 135.63 227.971 135.176 228.24C134.731 228.508 134.206 228.643 133.601 228.643ZM133.601 227.799C134.223 227.799 134.702 227.593 135.038 227.181C135.382 226.761 135.554 226.152 135.554 225.354C135.554 224.573 135.382 223.972 135.038 223.552C134.693 223.132 134.214 222.922 133.601 222.922C132.988 222.922 132.505 223.132 132.152 223.552C131.808 223.972 131.636 224.573 131.636 225.354C131.636 226.152 131.804 226.761 132.14 227.181C132.484 227.593 132.971 227.799 133.601 227.799ZM137.284 223.023V222.217H141.089V223.023H137.284ZM141.266 220.213C141.03 220.146 140.812 220.113 140.61 220.113C140.409 220.113 140.224 220.15 140.056 220.226C139.896 220.293 139.77 220.419 139.678 220.604C139.586 220.789 139.539 221.045 139.539 221.373V228.555H138.519V221.247C138.519 220.566 138.687 220.062 139.023 219.735C139.359 219.399 139.821 219.231 140.409 219.231C140.552 219.231 140.694 219.239 140.837 219.256C140.98 219.273 141.123 219.302 141.266 219.344V220.213ZM144.814 223.023V222.217H148.884V223.023H144.814ZM148.859 227.647V228.517C148.716 228.559 148.573 228.588 148.431 228.605C148.296 228.63 148.145 228.643 147.977 228.643C147.389 228.643 146.919 228.475 146.566 228.139C146.221 227.803 146.049 227.299 146.049 226.627V220.591L147.07 220.226V226.488C147.07 226.824 147.116 227.085 147.208 227.269C147.309 227.454 147.444 227.584 147.612 227.66C147.78 227.727 147.969 227.761 148.179 227.761C148.305 227.761 148.418 227.752 148.519 227.736C148.62 227.719 148.733 227.689 148.859 227.647ZM150.114 228.555V219.281H151.135V223.502L150.971 223.628C151.147 223.116 151.441 222.729 151.853 222.469C152.265 222.2 152.739 222.066 153.277 222.066C154.797 222.066 155.557 222.901 155.557 224.573V228.555H154.537V224.623C154.537 224.035 154.419 223.607 154.184 223.338C153.949 223.061 153.579 222.922 153.075 222.922C152.487 222.922 152.017 223.103 151.664 223.464C151.311 223.825 151.135 224.313 151.135 224.926V228.555H150.114ZM162.676 227.799C162.399 228.059 162.042 228.265 161.605 228.416C161.176 228.567 160.735 228.643 160.282 228.643C159.627 228.643 159.06 228.513 158.581 228.252C158.11 227.992 157.745 227.618 157.485 227.131C157.233 226.635 157.107 226.047 157.107 225.367C157.107 224.712 157.233 224.136 157.485 223.641C157.737 223.145 158.085 222.759 158.53 222.481C158.984 222.204 159.505 222.066 160.093 222.066C160.656 222.066 161.139 222.192 161.542 222.444C161.945 222.687 162.252 223.04 162.462 223.502C162.68 223.964 162.789 224.518 162.789 225.165V225.354H158.001V224.686H162.21L161.882 225.153C161.899 224.413 161.752 223.846 161.441 223.452C161.139 223.057 160.693 222.859 160.105 222.859C159.492 222.859 159.009 223.078 158.656 223.515C158.312 223.943 158.14 224.539 158.14 225.304C158.14 226.127 158.32 226.749 158.682 227.169C159.051 227.589 159.589 227.799 160.294 227.799C160.664 227.799 161.017 227.74 161.353 227.622C161.697 227.496 162.025 227.307 162.336 227.055L162.676 227.799ZM169.766 228.643C168.699 228.643 167.855 228.37 167.233 227.824L167.573 227.068C167.909 227.328 168.254 227.521 168.607 227.647C168.968 227.765 169.367 227.824 169.804 227.824C170.282 227.824 170.644 227.744 170.887 227.584C171.139 227.416 171.265 227.177 171.265 226.866C171.265 226.614 171.181 226.417 171.013 226.274C170.845 226.123 170.568 226.001 170.182 225.909L169.111 225.657C168.581 225.539 168.17 225.329 167.876 225.027C167.59 224.724 167.447 224.363 167.447 223.943C167.447 223.573 167.548 223.25 167.75 222.973C167.951 222.687 168.233 222.465 168.594 222.305C168.955 222.145 169.384 222.066 169.879 222.066C170.324 222.066 170.744 222.137 171.139 222.28C171.534 222.423 171.866 222.628 172.135 222.897L171.794 223.641C171.492 223.389 171.181 223.204 170.862 223.086C170.551 222.96 170.224 222.897 169.879 222.897C169.426 222.897 169.073 222.985 168.821 223.162C168.577 223.338 168.455 223.578 168.455 223.88C168.455 224.14 168.531 224.346 168.682 224.497C168.842 224.649 169.094 224.766 169.438 224.85L170.509 225.115C171.106 225.241 171.542 225.451 171.82 225.745C172.105 226.03 172.248 226.396 172.248 226.841C172.248 227.387 172.025 227.824 171.58 228.151C171.135 228.479 170.53 228.643 169.766 228.643ZM179.066 227.799C178.788 228.059 178.431 228.265 177.995 228.416C177.566 228.567 177.125 228.643 176.672 228.643C176.016 228.643 175.449 228.513 174.971 228.252C174.5 227.992 174.135 227.618 173.874 227.131C173.622 226.635 173.496 226.047 173.496 225.367C173.496 224.712 173.622 224.136 173.874 223.641C174.126 223.145 174.475 222.759 174.92 222.481C175.374 222.204 175.895 222.066 176.483 222.066C177.045 222.066 177.528 222.192 177.932 222.444C178.335 222.687 178.641 223.04 178.851 223.502C179.07 223.964 179.179 224.518 179.179 225.165V225.354H174.391V224.686H178.599L178.272 225.153C178.289 224.413 178.142 223.846 177.831 223.452C177.528 223.057 177.083 222.859 176.495 222.859C175.882 222.859 175.399 223.078 175.046 223.515C174.702 223.943 174.53 224.539 174.53 225.304C174.53 226.127 174.71 226.749 175.071 227.169C175.441 227.589 175.979 227.799 176.684 227.799C177.054 227.799 177.407 227.74 177.743 227.622C178.087 227.496 178.415 227.307 178.725 227.055L179.066 227.799ZM183.16 228.643C182.597 228.643 182.102 228.513 181.673 228.252C181.253 227.983 180.926 227.605 180.69 227.118C180.464 226.623 180.35 226.043 180.35 225.379C180.35 224.716 180.468 224.136 180.703 223.641C180.938 223.145 181.266 222.759 181.686 222.481C182.114 222.204 182.606 222.066 183.16 222.066C183.74 222.066 184.231 222.208 184.634 222.494C185.037 222.78 185.31 223.187 185.453 223.716L185.302 223.817V222.217H186.31V228.555H185.302V226.917L185.453 226.992C185.31 227.521 185.037 227.929 184.634 228.214C184.231 228.5 183.74 228.643 183.16 228.643ZM183.362 227.799C183.983 227.799 184.462 227.589 184.798 227.169C185.134 226.74 185.302 226.135 185.302 225.354C185.302 224.573 185.13 223.972 184.785 223.552C184.449 223.132 183.975 222.922 183.362 222.922C182.74 222.922 182.253 223.141 181.9 223.578C181.556 224.006 181.383 224.607 181.383 225.379C181.383 226.152 181.556 226.749 181.9 227.169C182.253 227.589 182.74 227.799 183.362 227.799ZM190.674 223.023V222.217H194.744V223.023H190.674ZM194.719 227.647V228.517C194.576 228.559 194.433 228.588 194.29 228.605C194.156 228.63 194.005 228.643 193.837 228.643C193.249 228.643 192.778 228.475 192.425 228.139C192.081 227.803 191.909 227.299 191.909 226.627V220.591L192.929 220.226V226.488C192.929 226.824 192.976 227.085 193.068 227.269C193.169 227.454 193.303 227.584 193.471 227.66C193.639 227.727 193.828 227.761 194.038 227.761C194.164 227.761 194.278 227.752 194.378 227.736C194.479 227.719 194.593 227.689 194.719 227.647ZM198.595 228.643C197.99 228.643 197.461 228.508 197.007 228.24C196.562 227.971 196.213 227.593 195.961 227.106C195.718 226.61 195.596 226.026 195.596 225.354C195.596 224.691 195.718 224.111 195.961 223.615C196.213 223.12 196.562 222.738 197.007 222.469C197.461 222.2 197.99 222.066 198.595 222.066C199.199 222.066 199.724 222.2 200.17 222.469C200.623 222.738 200.972 223.12 201.215 223.615C201.467 224.111 201.593 224.691 201.593 225.354C201.593 226.026 201.467 226.61 201.215 227.106C200.972 227.593 200.623 227.971 200.17 228.24C199.724 228.508 199.199 228.643 198.595 228.643ZM198.595 227.799C199.216 227.799 199.695 227.593 200.031 227.181C200.375 226.761 200.548 226.152 200.548 225.354C200.548 224.573 200.375 223.972 200.031 223.552C199.687 223.132 199.208 222.922 198.595 222.922C197.981 222.922 197.498 223.132 197.146 223.552C196.801 223.972 196.629 224.573 196.629 225.354C196.629 226.152 196.797 226.761 197.133 227.181C197.477 227.593 197.965 227.799 198.595 227.799ZM34.1584 242.023V241.217H38.2282V242.023H34.1584ZM38.203 246.647V247.517C38.0602 247.559 37.9174 247.588 37.7746 247.605C37.6402 247.63 37.489 247.643 37.321 247.643C36.733 247.643 36.2626 247.475 35.9098 247.139C35.5654 246.803 35.3932 246.299 35.3932 245.627V239.591L36.4138 239.226V245.488C36.4138 245.824 36.46 246.085 36.5524 246.269C36.6532 246.454 36.7876 246.584 36.9556 246.66C37.1236 246.727 37.3126 246.761 37.5226 246.761C37.6486 246.761 37.762 246.752 37.8628 246.736C37.9636 246.719 38.077 246.689 38.203 246.647ZM39.4581 247.555V238.281H40.4787V242.502L40.3149 242.628C40.4913 242.116 40.7853 241.729 41.1969 241.469C41.6085 241.2 42.0831 241.066 42.6207 241.066C44.1411 241.066 44.9013 241.901 44.9013 243.573V247.555H43.8807V243.623C43.8807 243.035 43.7631 242.607 43.5279 242.338C43.2927 242.061 42.9231 241.922 42.4191 241.922C41.8311 241.922 41.3607 242.103 41.0079 242.464C40.6551 242.825 40.4787 243.313 40.4787 243.926V247.555H39.4581ZM52.0198 246.799C51.7426 247.059 51.3856 247.265 50.9488 247.416C50.5204 247.567 50.0794 247.643 49.6258 247.643C48.9706 247.643 48.4036 247.513 47.9248 247.252C47.4544 246.992 47.089 246.618 46.8286 246.131C46.5766 245.635 46.4506 245.047 46.4506 244.367C46.4506 243.712 46.5766 243.136 46.8286 242.641C47.0806 242.145 47.4292 241.759 47.8744 241.481C48.328 241.204 48.8488 241.066 49.4368 241.066C49.9996 241.066 50.4826 241.192 50.8858 241.444C51.289 241.687 51.5956 242.04 51.8056 242.502C52.024 242.964 52.1332 243.518 52.1332 244.165V244.354H47.3452V243.686H51.5536L51.226 244.153C51.2428 243.413 51.0958 242.846 50.785 242.452C50.4826 242.057 50.0374 241.859 49.4494 241.859C48.8362 241.859 48.3532 242.078 48.0004 242.515C47.656 242.943 47.4838 243.539 47.4838 244.304C47.4838 245.127 47.6644 245.749 48.0256 246.169C48.3952 246.589 48.9328 246.799 49.6384 246.799C50.008 246.799 50.3608 246.74 50.6968 246.622C51.0412 246.496 51.3688 246.307 51.6796 246.055L52.0198 246.799ZM56.9677 247.555V238.281H57.9883V247.555H56.9677ZM65.1612 246.799C64.884 247.059 64.527 247.265 64.0902 247.416C63.6618 247.567 63.2208 247.643 62.7672 247.643C62.112 247.643 61.545 247.513 61.0662 247.252C60.5958 246.992 60.2304 246.618 59.97 246.131C59.718 245.635 59.592 245.047 59.592 244.367C59.592 243.712 59.718 243.136 59.97 242.641C60.222 242.145 60.5706 241.759 61.0158 241.481C61.4694 241.204 61.9902 241.066 62.5782 241.066C63.141 241.066 63.624 241.192 64.0272 241.444C64.4304 241.687 64.737 242.04 64.947 242.502C65.1654 242.964 65.2746 243.518 65.2746 244.165V244.354H60.4866V243.686H64.695L64.3674 244.153C64.3842 243.413 64.2372 242.846 63.9264 242.452C63.624 242.057 63.1788 241.859 62.5908 241.859C61.9776 241.859 61.4946 242.078 61.1418 242.515C60.7974 242.943 60.6252 243.539 60.6252 244.304C60.6252 245.127 60.8058 245.749 61.167 246.169C61.5366 246.589 62.0742 246.799 62.7798 246.799C63.1494 246.799 63.5022 246.74 63.8382 246.622C64.1826 246.496 64.5102 246.307 64.821 246.055L65.1612 246.799ZM68.6147 247.555L65.9183 241.229H66.9893L69.2825 246.811H68.9801L71.2985 241.229H72.3191L69.5849 247.555H68.6147ZM78.561 246.799C78.2838 247.059 77.9268 247.265 77.49 247.416C77.0616 247.567 76.6206 247.643 76.167 247.643C75.5118 247.643 74.9448 247.513 74.466 247.252C73.9956 246.992 73.6302 246.618 73.3698 246.131C73.1178 245.635 72.9918 245.047 72.9918 244.367C72.9918 243.712 73.1178 243.136 73.3698 242.641C73.6218 242.145 73.9704 241.759 74.4156 241.481C74.8692 241.204 75.39 241.066 75.978 241.066C76.5408 241.066 77.0238 241.192 77.427 241.444C77.8302 241.687 78.1368 242.04 78.3468 242.502C78.5652 242.964 78.6744 243.518 78.6744 244.165V244.354H73.8864V243.686H78.0948L77.7672 244.153C77.784 243.413 77.637 242.846 77.3262 242.452C77.0238 242.057 76.5786 241.859 75.9906 241.859C75.3774 241.859 74.8944 242.078 74.5416 242.515C74.1972 242.943 74.025 243.539 74.025 244.304C74.025 245.127 74.2056 245.749 74.5668 246.169C74.9364 246.589 75.474 246.799 76.1796 246.799C76.5492 246.799 76.902 246.74 77.238 246.622C77.5824 246.496 77.91 246.307 78.2208 246.055L78.561 246.799ZM80.2235 247.555V238.281H81.2441V247.555H80.2235ZM89.132 247.643C88.5272 247.643 87.998 247.508 87.5444 247.24C87.0992 246.971 86.7506 246.593 86.4986 246.106C86.255 245.61 86.1332 245.026 86.1332 244.354C86.1332 243.691 86.255 243.111 86.4986 242.615C86.7506 242.12 87.0992 241.738 87.5444 241.469C87.998 241.2 88.5272 241.066 89.132 241.066C89.7368 241.066 90.2618 241.2 90.707 241.469C91.1606 241.738 91.5092 242.12 91.7528 242.615C92.0048 243.111 92.1308 243.691 92.1308 244.354C92.1308 245.026 92.0048 245.61 91.7528 246.106C91.5092 246.593 91.1606 246.971 90.707 247.24C90.2618 247.508 89.7368 247.643 89.132 247.643ZM89.132 246.799C89.7536 246.799 90.2324 246.593 90.5684 246.181C90.9128 245.761 91.085 245.152 91.085 244.354C91.085 243.573 90.9128 242.972 90.5684 242.552C90.224 242.132 89.7452 241.922 89.132 241.922C88.5188 241.922 88.0358 242.132 87.683 242.552C87.3386 242.972 87.1664 243.573 87.1664 244.354C87.1664 245.152 87.3344 245.761 87.6704 246.181C88.0148 246.593 88.502 246.799 89.132 246.799ZM92.8149 242.023V241.217H96.6201V242.023H92.8149ZM96.7965 239.213C96.5613 239.146 96.3429 239.113 96.1413 239.113C95.9397 239.113 95.7549 239.15 95.5869 239.226C95.4273 239.293 95.3013 239.419 95.2089 239.604C95.1165 239.789 95.0703 240.045 95.0703 240.373V247.555H94.0497V240.247C94.0497 239.566 94.2177 239.062 94.5537 238.735C94.8897 238.399 95.3517 238.231 95.9397 238.231C96.0825 238.231 96.2253 238.239 96.3681 238.256C96.5109 238.273 96.6537 238.302 96.7965 238.344V239.213ZM100.345 242.023V241.217H104.415V242.023H100.345ZM104.39 246.647V247.517C104.247 247.559 104.104 247.588 103.962 247.605C103.827 247.63 103.676 247.643 103.508 247.643C102.92 247.643 102.45 247.475 102.097 247.139C101.752 246.803 101.58 246.299 101.58 245.627V239.591L102.601 239.226V245.488C102.601 245.824 102.647 246.085 102.739 246.269C102.84 246.454 102.975 246.584 103.143 246.66C103.311 246.727 103.5 246.761 103.71 246.761C103.836 246.761 103.949 246.752 104.05 246.736C104.151 246.719 104.264 246.689 104.39 246.647ZM105.645 247.555V238.281H106.666V242.502L106.502 242.628C106.678 242.116 106.972 241.729 107.384 241.469C107.795 241.2 108.27 241.066 108.808 241.066C110.328 241.066 111.088 241.901 111.088 243.573V247.555H110.068V243.623C110.068 243.035 109.95 242.607 109.715 242.338C109.48 242.061 109.11 241.922 108.606 241.922C108.018 241.922 107.548 242.103 107.195 242.464C106.842 242.825 106.666 243.313 106.666 243.926V247.555H105.645ZM118.207 246.799C117.93 247.059 117.573 247.265 117.136 247.416C116.707 247.567 116.266 247.643 115.813 247.643C115.158 247.643 114.591 247.513 114.112 247.252C113.641 246.992 113.276 246.618 113.016 246.131C112.764 245.635 112.638 245.047 112.638 244.367C112.638 243.712 112.764 243.136 113.016 242.641C113.268 242.145 113.616 241.759 114.061 241.481C114.515 241.204 115.036 241.066 115.624 241.066C116.187 241.066 116.67 241.192 117.073 241.444C117.476 241.687 117.783 242.04 117.993 242.502C118.211 242.964 118.32 243.518 118.32 244.165V244.354H113.532V243.686H117.741L117.413 244.153C117.43 243.413 117.283 242.846 116.972 242.452C116.67 242.057 116.224 241.859 115.636 241.859C115.023 241.859 114.54 242.078 114.187 242.515C113.843 242.943 113.671 243.539 113.671 244.304C113.671 245.127 113.851 245.749 114.213 246.169C114.582 246.589 115.12 246.799 115.825 246.799C116.195 246.799 116.548 246.74 116.884 246.622C117.228 246.496 117.556 246.307 117.867 246.055L118.207 246.799ZM125.297 247.643C124.23 247.643 123.386 247.37 122.764 246.824L123.104 246.068C123.44 246.328 123.785 246.521 124.137 246.647C124.499 246.765 124.898 246.824 125.334 246.824C125.813 246.824 126.174 246.744 126.418 246.584C126.67 246.416 126.796 246.177 126.796 245.866C126.796 245.614 126.712 245.417 126.544 245.274C126.376 245.123 126.099 245.001 125.712 244.909L124.641 244.657C124.112 244.539 123.701 244.329 123.407 244.027C123.121 243.724 122.978 243.363 122.978 242.943C122.978 242.573 123.079 242.25 123.281 241.973C123.482 241.687 123.764 241.465 124.125 241.305C124.486 241.145 124.914 241.066 125.41 241.066C125.855 241.066 126.275 241.137 126.67 241.28C127.065 241.423 127.397 241.628 127.665 241.897L127.325 242.641C127.023 242.389 126.712 242.204 126.393 242.086C126.082 241.96 125.754 241.897 125.41 241.897C124.956 241.897 124.604 241.985 124.352 242.162C124.108 242.338 123.986 242.578 123.986 242.88C123.986 243.14 124.062 243.346 124.213 243.497C124.373 243.649 124.625 243.766 124.969 243.85L126.04 244.115C126.636 244.241 127.073 244.451 127.35 244.745C127.636 245.03 127.779 245.396 127.779 245.841C127.779 246.387 127.556 246.824 127.111 247.151C126.666 247.479 126.061 247.643 125.297 247.643ZM129.405 250.276V242.993C129.405 242.699 129.397 242.405 129.38 242.111C129.372 241.809 129.347 241.511 129.305 241.217H130.275L130.388 242.527L130.287 242.716C130.43 242.187 130.703 241.78 131.106 241.494C131.51 241.208 131.997 241.066 132.568 241.066C133.122 241.066 133.61 241.204 134.03 241.481C134.458 241.759 134.79 242.145 135.025 242.641C135.269 243.136 135.39 243.716 135.39 244.379C135.39 245.043 135.269 245.623 135.025 246.118C134.79 246.605 134.462 246.983 134.042 247.252C133.622 247.513 133.131 247.643 132.568 247.643C131.997 247.643 131.51 247.5 131.106 247.214C130.703 246.929 130.43 246.521 130.287 245.992L130.426 245.866V250.276H129.405ZM132.379 246.799C132.992 246.799 133.471 246.589 133.815 246.169C134.16 245.749 134.332 245.152 134.332 244.379C134.332 243.607 134.16 243.006 133.815 242.578C133.471 242.141 132.992 241.922 132.379 241.922C131.749 241.922 131.266 242.132 130.93 242.552C130.594 242.972 130.426 243.573 130.426 244.354C130.426 245.135 130.594 245.74 130.93 246.169C131.266 246.589 131.749 246.799 132.379 246.799ZM142.152 246.799C141.874 247.059 141.517 247.265 141.081 247.416C140.652 247.567 140.211 247.643 139.758 247.643C139.102 247.643 138.535 247.513 138.057 247.252C137.586 246.992 137.221 246.618 136.96 246.131C136.708 245.635 136.582 245.047 136.582 244.367C136.582 243.712 136.708 243.136 136.96 242.641C137.212 242.145 137.561 241.759 138.006 241.481C138.46 241.204 138.981 241.066 139.569 241.066C140.131 241.066 140.614 241.192 141.018 241.444C141.421 241.687 141.727 242.04 141.937 242.502C142.156 242.964 142.265 243.518 142.265 244.165V244.354H137.477V243.686H141.685L141.358 244.153C141.375 243.413 141.228 242.846 140.917 242.452C140.614 242.057 140.169 241.859 139.581 241.859C138.968 241.859 138.485 242.078 138.132 242.515C137.788 242.943 137.616 243.539 137.616 244.304C137.616 245.127 137.796 245.749 138.157 246.169C138.527 246.589 139.065 246.799 139.77 246.799C140.14 246.799 140.493 246.74 140.829 246.622C141.173 246.496 141.501 246.307 141.811 246.055L142.152 246.799ZM146.473 247.643C145.851 247.643 145.314 247.508 144.86 247.24C144.406 246.971 144.054 246.593 143.802 246.106C143.558 245.618 143.436 245.043 143.436 244.379C143.436 243.724 143.562 243.149 143.814 242.653C144.066 242.149 144.423 241.759 144.885 241.481C145.347 241.204 145.893 241.066 146.523 241.066C146.952 241.066 147.363 241.141 147.758 241.292C148.161 241.435 148.493 241.637 148.753 241.897L148.413 242.653C148.102 242.41 147.796 242.229 147.493 242.111C147.199 241.985 146.893 241.922 146.574 241.922C145.935 241.922 145.427 242.137 145.049 242.565C144.679 242.993 144.495 243.598 144.495 244.379C144.495 245.152 144.679 245.749 145.049 246.169C145.419 246.589 145.927 246.799 146.574 246.799C146.884 246.799 147.191 246.74 147.493 246.622C147.796 246.496 148.102 246.311 148.413 246.068L148.753 246.824C148.485 247.076 148.144 247.277 147.733 247.429C147.33 247.571 146.91 247.643 146.473 247.643ZM149.17 242.023V241.217H153.24V242.023H149.17ZM153.215 246.647V247.517C153.072 247.559 152.929 247.588 152.787 247.605C152.652 247.63 152.501 247.643 152.333 247.643C151.745 247.643 151.275 247.475 150.922 247.139C150.577 246.803 150.405 246.299 150.405 245.627V239.591L151.426 239.226V245.488C151.426 245.824 151.472 246.085 151.564 246.269C151.665 246.454 151.8 246.584 151.968 246.66C152.136 246.727 152.325 246.761 152.535 246.761C152.661 246.761 152.774 246.752 152.875 246.736C152.976 246.719 153.089 246.689 153.215 246.647ZM156.902 247.643C156.339 247.643 155.843 247.513 155.415 247.252C154.995 246.983 154.667 246.605 154.432 246.118C154.205 245.623 154.092 245.043 154.092 244.379C154.092 243.716 154.21 243.136 154.445 242.641C154.68 242.145 155.008 241.759 155.428 241.481C155.856 241.204 156.347 241.066 156.902 241.066C157.481 241.066 157.973 241.208 158.376 241.494C158.779 241.78 159.052 242.187 159.195 242.716L159.044 242.817V241.217H160.052V247.555H159.044V245.917L159.195 245.992C159.052 246.521 158.779 246.929 158.376 247.214C157.973 247.5 157.481 247.643 156.902 247.643ZM157.103 246.799C157.725 246.799 158.204 246.589 158.54 246.169C158.876 245.74 159.044 245.135 159.044 244.354C159.044 243.573 158.872 242.972 158.527 242.552C158.191 242.132 157.717 241.922 157.103 241.922C156.482 241.922 155.995 242.141 155.642 242.578C155.297 243.006 155.125 243.607 155.125 244.379C155.125 245.152 155.297 245.749 155.642 246.169C155.995 246.589 156.482 246.799 157.103 246.799ZM161.13 242.023V241.217H165.2V242.023H161.13ZM165.175 246.647V247.517C165.032 247.559 164.889 247.588 164.747 247.605C164.612 247.63 164.461 247.643 164.293 247.643C163.705 247.643 163.235 247.475 162.882 247.139C162.537 246.803 162.365 246.299 162.365 245.627V239.591L163.386 239.226V245.488C163.386 245.824 163.432 246.085 163.524 246.269C163.625 246.454 163.76 246.584 163.928 246.66C164.096 246.727 164.285 246.761 164.495 246.761C164.621 246.761 164.734 246.752 164.835 246.736C164.936 246.719 165.049 246.689 165.175 246.647ZM169.051 247.643C168.446 247.643 167.917 247.508 167.463 247.24C167.018 246.971 166.67 246.593 166.418 246.106C166.174 245.61 166.052 245.026 166.052 244.354C166.052 243.691 166.174 243.111 166.418 242.615C166.67 242.12 167.018 241.738 167.463 241.469C167.917 241.2 168.446 241.066 169.051 241.066C169.656 241.066 170.181 241.2 170.626 241.469C171.08 241.738 171.428 242.12 171.672 242.615C171.924 243.111 172.05 243.691 172.05 244.354C172.05 245.026 171.924 245.61 171.672 246.106C171.428 246.593 171.08 246.971 170.626 247.24C170.181 247.508 169.656 247.643 169.051 247.643ZM169.051 246.799C169.673 246.799 170.151 246.593 170.487 246.181C170.832 245.761 171.004 245.152 171.004 244.354C171.004 243.573 170.832 242.972 170.487 242.552C170.143 242.132 169.664 241.922 169.051 241.922C168.438 241.922 167.955 242.132 167.602 242.552C167.258 242.972 167.085 243.573 167.085 244.354C167.085 245.152 167.253 245.761 167.589 246.181C167.934 246.593 168.421 246.799 169.051 246.799ZM173.641 247.555V242.993C173.641 242.699 173.632 242.405 173.616 242.111C173.607 241.809 173.582 241.511 173.54 241.217H174.51L174.649 242.779L174.51 242.741C174.628 242.187 174.88 241.771 175.266 241.494C175.661 241.208 176.102 241.066 176.589 241.066C176.698 241.066 176.799 241.074 176.892 241.091C176.992 241.099 177.085 241.116 177.169 241.141L177.144 242.074C176.95 242.006 176.728 241.973 176.476 241.973C176.039 241.973 175.686 242.069 175.417 242.263C175.157 242.456 174.964 242.704 174.838 243.006C174.72 243.3 174.661 243.611 174.661 243.938V247.555H173.641ZM184.112 247.643C183.507 247.643 182.978 247.508 182.524 247.24C182.079 246.971 181.731 246.593 181.479 246.106C181.235 245.61 181.113 245.026 181.113 244.354C181.113 243.691 181.235 243.111 181.479 242.615C181.731 242.12 182.079 241.738 182.524 241.469C182.978 241.2 183.507 241.066 184.112 241.066C184.717 241.066 185.242 241.2 185.687 241.469C186.141 241.738 186.489 242.12 186.733 242.615C186.985 243.111 187.111 243.691 187.111 244.354C187.111 245.026 186.985 245.61 186.733 246.106C186.489 246.593 186.141 246.971 185.687 247.24C185.242 247.508 184.717 247.643 184.112 247.643ZM184.112 246.799C184.734 246.799 185.212 246.593 185.548 246.181C185.893 245.761 186.065 245.152 186.065 244.354C186.065 243.573 185.893 242.972 185.548 242.552C185.204 242.132 184.725 241.922 184.112 241.922C183.499 241.922 183.016 242.132 182.663 242.552C182.319 242.972 182.146 243.573 182.146 244.354C182.146 245.152 182.314 245.761 182.65 246.181C182.995 246.593 183.482 246.799 184.112 246.799ZM188.702 247.555V242.993C188.702 242.699 188.693 242.405 188.676 242.111C188.668 241.809 188.643 241.511 188.601 241.217H189.571L189.684 242.527L189.558 242.628C189.735 242.116 190.029 241.729 190.44 241.469C190.852 241.2 191.327 241.066 191.864 241.066C193.385 241.066 194.145 241.901 194.145 243.573V247.555H193.124V243.623C193.124 243.035 193.007 242.607 192.771 242.338C192.536 242.061 192.167 241.922 191.663 241.922C191.075 241.922 190.604 242.103 190.251 242.464C189.899 242.825 189.722 243.313 189.722 243.926V247.555H188.702ZM201.789 247.643C201.227 247.643 200.731 247.513 200.303 247.252C199.883 246.983 199.555 246.605 199.32 246.118C199.093 245.623 198.98 245.043 198.98 244.379C198.98 243.716 199.097 243.136 199.332 242.641C199.568 242.145 199.895 241.759 200.315 241.481C200.744 241.204 201.235 241.066 201.789 241.066C202.369 241.066 202.86 241.208 203.264 241.494C203.667 241.78 203.94 242.187 204.083 242.716L203.931 242.817V241.217H204.939V247.555H203.931V245.917L204.083 245.992C203.94 246.521 203.667 246.929 203.264 247.214C202.86 247.5 202.369 247.643 201.789 247.643ZM201.991 246.799C202.613 246.799 203.091 246.589 203.427 246.169C203.763 245.74 203.931 245.135 203.931 244.354C203.931 243.573 203.759 242.972 203.415 242.552C203.079 242.132 202.604 241.922 201.991 241.922C201.369 241.922 200.882 242.141 200.529 242.578C200.185 243.006 200.013 243.607 200.013 244.379C200.013 245.152 200.185 245.749 200.529 246.169C200.882 246.589 201.369 246.799 201.991 246.799ZM99.505 266.555V257.281H100.526V261.502L100.362 261.628C100.538 261.116 100.832 260.729 101.244 260.469C101.655 260.2 102.13 260.066 102.668 260.066C104.188 260.066 104.948 260.901 104.948 262.573V266.555H103.928V262.623C103.928 262.035 103.81 261.607 103.575 261.338C103.34 261.061 102.97 260.922 102.466 260.922C101.878 260.922 101.408 261.103 101.055 261.464C100.702 261.825 100.526 262.313 100.526 262.926V266.555H99.505ZM106.875 266.555V260.217H107.896V266.555H106.875ZM106.775 257.533H108.022V258.692H106.775V257.533ZM109.878 266.555V257.281H110.898V266.555H109.878ZM112.88 266.555V257.281H113.901V266.555H112.88ZM118.025 266.643C116.958 266.643 116.114 266.37 115.492 265.824L115.832 265.068C116.168 265.328 116.513 265.521 116.865 265.647C117.227 265.765 117.626 265.824 118.062 265.824C118.541 265.824 118.902 265.744 119.146 265.584C119.398 265.416 119.524 265.177 119.524 264.866C119.524 264.614 119.44 264.417 119.272 264.274C119.104 264.123 118.827 264.001 118.44 263.909L117.369 263.657C116.84 263.539 116.429 263.329 116.135 263.027C115.849 262.724 115.706 262.363 115.706 261.943C115.706 261.573 115.807 261.25 116.009 260.973C116.21 260.687 116.492 260.465 116.853 260.305C117.214 260.145 117.642 260.066 118.138 260.066C118.583 260.066 119.003 260.137 119.398 260.28C119.793 260.423 120.125 260.628 120.393 260.897L120.053 261.641C119.751 261.389 119.44 261.204 119.121 261.086C118.81 260.96 118.482 260.897 118.138 260.897C117.684 260.897 117.332 260.985 117.08 261.162C116.836 261.338 116.714 261.578 116.714 261.88C116.714 262.14 116.79 262.346 116.941 262.497C117.101 262.649 117.353 262.766 117.697 262.85L118.768 263.115C119.364 263.241 119.801 263.451 120.078 263.745C120.364 264.03 120.507 264.396 120.507 264.841C120.507 265.387 120.284 265.824 119.839 266.151C119.394 266.479 118.789 266.643 118.025 266.643ZM122.133 266.555V260.217H123.154V266.555H122.133ZM122.032 257.533H123.28V258.692H122.032V257.533ZM130.717 266.555H129.709V264.854L129.861 264.992C129.718 265.521 129.445 265.929 129.042 266.214C128.638 266.5 128.147 266.643 127.567 266.643C127.013 266.643 126.522 266.508 126.093 266.24C125.673 265.962 125.346 265.576 125.11 265.08C124.875 264.576 124.758 263.993 124.758 263.329C124.758 262.665 124.871 262.09 125.098 261.603C125.333 261.116 125.661 260.738 126.081 260.469C126.509 260.2 127.005 260.066 127.567 260.066C128.147 260.066 128.638 260.213 129.042 260.507C129.445 260.792 129.718 261.195 129.861 261.716L129.697 261.842V257.281H130.717V266.555ZM127.769 265.799C128.382 265.799 128.857 265.589 129.193 265.169C129.537 264.74 129.709 264.135 129.709 263.354C129.709 262.581 129.541 261.985 129.205 261.565C128.869 261.137 128.391 260.922 127.769 260.922C127.147 260.922 126.66 261.132 126.307 261.552C125.963 261.972 125.791 262.565 125.791 263.329C125.791 264.11 125.963 264.719 126.307 265.156C126.66 265.584 127.147 265.799 127.769 265.799ZM137.882 265.799C137.605 266.059 137.248 266.265 136.811 266.416C136.383 266.567 135.942 266.643 135.488 266.643C134.833 266.643 134.266 266.513 133.787 266.252C133.317 265.992 132.951 265.618 132.691 265.131C132.439 264.635 132.313 264.047 132.313 263.367C132.313 262.712 132.439 262.136 132.691 261.641C132.943 261.145 133.291 260.759 133.737 260.481C134.19 260.204 134.711 260.066 135.299 260.066C135.862 260.066 136.345 260.192 136.748 260.444C137.151 260.687 137.458 261.04 137.668 261.502C137.886 261.964 137.995 262.518 137.995 263.165V263.354H133.207V262.686H137.416L137.088 263.153C137.105 262.413 136.958 261.846 136.647 261.452C136.345 261.057 135.9 260.859 135.312 260.859C134.698 260.859 134.215 261.078 133.863 261.515C133.518 261.943 133.346 262.539 133.346 263.304C133.346 264.127 133.527 264.749 133.888 265.169C134.257 265.589 134.795 265.799 135.501 265.799C135.87 265.799 136.223 265.74 136.559 265.622C136.903 265.496 137.231 265.307 137.542 265.055L137.882 265.799ZM139.368 265.257H140.666V266.555H139.368V265.257Z" fill="#253757"/>
<g opacity="0.1">
<circle cx="120" cy="139.554" r="24" fill="#F25656"/>
<circle cx="120" cy="139.554" r="24" fill="url(#paint1_linear)" fill-opacity="0.25"/>
</g>
<path d="M131.528 171.755H127.848V176.555H120.488V171.755H109.088V166.235L121.848 148.075H127.848V166.035H131.528V171.755ZM120.488 166.035V159.315L115.808 166.035H120.488Z" fill="#F25656"/>
<path d="M131.528 171.755H127.848V176.555H120.488V171.755H109.088V166.235L121.848 148.075H127.848V166.035H131.528V171.755ZM120.488 166.035V159.315L115.808 166.035H120.488Z" fill="url(#paint2_linear)" fill-opacity="0.25"/>
<defs>
<filter id="filter0_d" x="0" y="67.5537" width="272" height="288" filterUnits="userSpaceOnUse" color-interpolation-filters="sRGB">
<feFlood flood-opacity="0" result="BackgroundImageFix"/>
<feColorMatrix in="SourceAlpha" type="matrix" values="0 0 0 0 0 0 0 0 0 0 0 0 0 0 0 0 0 0 127 0"/>
<feOffset dx="16" dy="16"/>
<feGaussianBlur stdDeviation="8"/>
<feColorMatrix type="matrix" values="0 0 0 0 0 0 0 0 0 0 0 0 0 0 0 0 0 0 0.02 0"/>
<feBlend mode="normal" in2="BackgroundImageFix" result="effect1_dropShadow"/>
<feBlend mode="normal" in="SourceGraphic" in2="effect1_dropShadow" result="shape"/>
</filter>
<linearGradient id="paint0_linear" x1="235.052" y1="382.905" x2="235.052" y2="398.905" gradientUnits="userSpaceOnUse">
<stop stop-color="white"/>
<stop offset="1" stop-color="white" stop-opacity="0"/>
</linearGradient>
<linearGradient id="paint1_linear" x1="120" y1="115.554" x2="120" y2="163.554" gradientUnits="userSpaceOnUse">
<stop stop-color="white"/>
<stop offset="1" stop-color="white" stop-opacity="0"/>
</linearGradient>
<linearGradient id="paint2_linear" x1="108" y1="174.055" x2="132" y2="174.055" gradientUnits="userSpaceOnUse">
<stop stop-color="white"/>
<stop offset="1" stop-color="white" stop-opacity="0"/>
</linearGradient>
</defs>
</svg>
